<svg xmlns="http://www.w3.org/2000/svg" xmlns:xlink="http://www.w3.org/1999/xlink" width="26.031ex" height="6.923ex" aria-hidden="true" viewBox="0 -1769.7 11505.6 3060"><defs><path id="a" d="M51 0q-5 4-5 7 0 2 169 350t173 352q3 7 28 7 23 0 28-7 3-4 172-352T786 7q0-3-5-7H51Zm456 344L384 596 137 92l246-1h247q0 2-123 253Z"/><path id="b" d="M173 380q0 25-19 25-24 0-50-29t-43-89q-1-1-2-3t-1-3-2-2-3-1-4 0-8 0H27q-6 6-6 9 0 7 8 29t24 52 44 51 63 22q42 0 65-24t24-56q0-17-3-26 0-6-15-44t-31-89-18-89q0-27 5-44 13-43 63-43 37 0 69 34t50 79 29 83 11 55q0 23-8 40t-18 26-18 18-8 22q0 22 19 41t41 19q19 0 34-18t16-58q0-27-12-83t-37-125-71-119-106-51q-64 0-102 33-37 32-37 95 0 31 8 64t41 117q22 64 22 82Z"/><path id="c" d="M56 347q0 13 14 20h637q15-8 15-20 0-11-14-19l-318-1H72q-16 5-16 20Zm0-194q0 15 16 20h636q14-10 14-20 0-13-15-20H70q-14 7-14 20Z"/><path id="f" d="M424-948q-2 1-111 514T202 80l-32-49q-5-7-13-21l-20-31q-6 5-13 13L111 5l153 243 209-968q0 3 254 1079t256 1081q6 10 18 10 6 0 12-5t7-12q0-8-278-1189T460-941q-2-9-21-9h-3q-12 0-12 2Z"/><path id="d" d="M58-216q-14 0-24 8t-11 22q0 10 73 302t77 298q13 28 46 28 12-1 20-7t10-12 2-10q0-12-31-134t-33-137q-2-11-2-35v-8q0-73 67-73 9 0 18 1t17 4 15 7 13 7 12 10 11 10 10 12 8 11 9 12l7 10 36 143q36 142 40 151 13 27 43 27 13 0 21-7t11-12 2-10L449 84q-1-5-1-16 0-25 7-33t21-9q9 1 20 9 21 20 41 96 6 20 10 21 2 1 10 1h4q19 0 19-9 0-6-5-27t-20-54-32-50Q510 0 491-8q-8-2-24-2-21 0-38 6t-27 15-17 18-9 15-2 7l-6-6q-6-6-18-15t-26-18-36-16-42-7q-47 0-93 23l-24-97q-21-82-25-95t-12-22q-16-14-34-14Z"/><path id="e" d="M21 287q1 3 2 8t5 22 10 31 15 33 20 30 26 22 33 9q29 0 51-12t31-22 11-20q2-6 3-6t8 7q48 52 111 52h3q48 0 72-41 8-19 8-37 0-30-13-48t-26-23-25-4q-20 0-32 11t-12 29q0 48 56 64-22 13-36 13-56 0-103-74-10-16-15-33t-34-133Q156 25 151 16q-13-27-43-27-13 0-21 6T76 7t-2 10q0 13 40 172t40 177q0 39-26 39-21 0-36-28t-24-61-11-36q-2-2-16-2H27q-6 6-6 9Z"/><path id="g" d="M94 250q0 69 10 131t23 107 37 88 38 67 42 52 33 34 25 21h17q14 0 14-9 0-3-17-21t-41-53-49-86-42-138-17-193 17-192 41-139 49-86 42-53 17-21q0-9-15-9h-16l-28 24q-94 85-137 212T94 250Z"/><path id="h" d="m213 578-13-5q-14-5-40-10t-58-7H83v46h19q47 2 87 15t56 24 28 22q2 3 12 3 9 0 17-6V361l1-300q7-7 12-9t24-4 62-2h26V0h-11q-21 3-159 3-136 0-157-3H88v46h64q16 0 25 1t16 3 8 2 6 5 6 4v517Z"/><path id="i" d="M84 237v13l14 20h581q15-8 15-20t-15-20H98q-14 7-14 20Z"/><path id="m" d="M983 1739q5 11 18 11 7 0 12-5t7-12q0-7-278-1489T460-1241q-2-9-21-9h-3q-12 0-12 2l-14 82q-15 83-43 246t-55 319L201 44 137-83l-26 26 76 153 77 151q1-1 105-604 101-601 104-606L727 384q252 1345 256 1355Z"/><path id="j" d="M109 429q-27 0-43 18t-16 44q0 71 53 123t132 52q91 0 152-56t62-145q0-43-20-82t-48-68-80-74q-36-31-100-92l-59-56 76-1q157 0 167 5 7 2 24 89v3h40v-3q-1-3-13-91T421 3V0H50v31q0 7 6 15t30 35q29 32 50 56 9 10 34 37t34 37 29 33 28 34 23 30 21 32 15 29 13 32 7 30 3 33q0 63-34 109t-97 46q-33 0-58-17t-35-33-10-19q0-1 5-1 18 0 37-14t19-46q0-25-16-42t-45-18Z"/><path id="k" d="M21 287q1 3 2 8t5 22 10 31 15 33 20 30 26 22 33 9q24 0 43-7t30-18 16-22 8-19l2-7q0-2 1-2l11 11q61 64 139 64 54 0 87-27t34-79v-10q0-24-64-273-58-235-62-242-13-27-45-27-13 0-22 8t-11 22q0 9 59 243l62 250q3 15 3 38 0 59-44 59h-5q-86 0-145-101l-7-12-33-134Q156 26 151 16q-13-27-43-27-13 0-21 6T76 7t-2 10q0 13 40 172t40 177q0 39-26 39-21 0-36-28t-24-61-11-36q-2-2-16-2H27q-6 6-6 9Z"/><path id="l" d="M127 463q-27 0-42 17t-16 44q0 55 48 98t116 43q35 0 44-1 74-12 113-53t40-89q0-52-34-101t-94-71l-3-2q0-1 9-3t29-9 38-21q82-53 82-140 0-79-62-138T238-22q-80 0-138 43T42 130q0 28 18 45t45 18q28 0 46-18t18-45q0-11-3-20t-7-16-11-12-12-8-10-4-8-3l-4-1q51-45 124-45 55 0 83 53 17 33 17 101v20q0 95-64 127-15 6-61 7l-42 1-3 2q-2 3-2 16 0 18 8 18 28 0 58 5 34 5 62 42t28 112v8q0 57-35 79-22 14-47 14-32 0-59-11t-38-23-11-12h3q3-1 8-2t10-5 12-7 10-11 8-15 3-20q0-22-14-39t-45-18Z"/><path id="n" d="m60 749 4 1h22l28-24q94-85 137-212t43-264q0-68-10-131T261 12t-37-88-38-67-41-51-32-33-23-19l-4-4H63q-3 0-5 3t-3 9q1 1 11 13Q221-64 221 250T66 725q-10 12-11 13 0 8 5 11Z"/></defs><g fill="currentColor" stroke="currentColor" stroke-width="0" data-mml-node="math"><use xlink:href="#a" data-mml-node="mi" transform="scale(1 -1)"/><use xlink:href="#b" data-mml-node="mi" transform="matrix(1 0 0 -1 833 0)"/><use xlink:href="#c" data-mml-node="mo" transform="matrix(1 0 0 -1 1595.8 0)"/><g data-mml-node="msqrt"><g data-mml-node="mfrac"><use xlink:href="#d" data-mml-node="mi" transform="matrix(1 0 0 -1 3891.6 -676)"/><use xlink:href="#e" data-mml-node="mi" transform="matrix(1 0 0 -1 3967.6 686)"/><path stroke="none" d="M3791.6-220h803v-60h-803z"/></g><use xlink:href="#f" data-mml-node="mo" transform="matrix(1 0 0 -1 2651.6 -75.8)"/><path stroke="none" d="M3671.6-1465.8h1043v-60h-1043z"/></g><use xlink:href="#g" data-mml-node="mo" transform="matrix(1 0 0 -1 4714.6 0)"/><use xlink:href="#h" data-mml-node="mn" transform="matrix(1 0 0 -1 5103.6 0)"/><use xlink:href="#i" data-mml-node="mo" transform="matrix(1 0 0 -1 5825.8 0)"/><g data-mml-node="msqrt"><use xlink:href="#j" data-mml-node="mn" transform="matrix(1 0 0 -1 7846 0)"/><use xlink:href="#i" data-mml-node="mo" transform="matrix(1 0 0 -1 8568.2 0)"/><g data-mml-node="mfrac"><use xlink:href="#h" data-mml-node="mn" transform="matrix(1 0 0 -1 10092.5 -676)"/><g data-mml-node="msup"><use xlink:href="#k" data-mml-node="mi" transform="matrix(1 0 0 -1 9788.4 937.1)"/><g data-mml-node="mfrac"><use xlink:href="#j" data-mml-node="mn" transform="matrix(.49985 0 0 -.49985 10440.94 293.042)"/><use xlink:href="#l" data-mml-node="mn" transform="matrix(.49985 0 0 -.49985 10440.94 815.515)"/><path stroke="none" d="M10370.24 416.06h391.395v-42.42h-391.395z"/></g></g><path stroke="none" d="M9688.4-220h1308.1v-60H9688.4z"/></g><use xlink:href="#m" data-mml-node="mo" transform="matrix(1 0 0 -1 6826 40.3)"/><path stroke="none" d="M7846-1649.7h3270.6v-60H7846z"/></g><use xlink:href="#n" data-mml-node="mo" transform="matrix(1 0 0 -1 11116.6 0)"/></g></svg>