<svg xmlns="http://www.w3.org/2000/svg" xmlns:xlink="http://www.w3.org/1999/xlink" width="31.679ex" height="8.145ex" aria-hidden="true" viewBox="0 -2050 14002.2 3600"><defs><path id="a" d="M230 637q-27 0-32 1t-5 11q0 27 11 33 2 1 174 1 172-1 186-3 56-8 94-28t54-46 21-43 6-34q0-45-29-84t-67-60-67-34-38-13l7-5q67-38 67-110 0-11-5-61t-5-82v-9q0-18 1-28t11-18 26-9q28 0 46 22t26 47q5 14 8 17t15 3q20 0 20-12 0-18-24-57-38-57-90-57h-9q-61 0-101 25t-44 78q0 27 15 84t15 73q0 51-43 74-15 7-25 8t-71 2h-69l-32-130Q244 61 244 59q0-4 1-5t7-4 17-2 33-2h31q6-8 6-9t-3-18q-4-13-10-19h-15q-36 2-131 2H71Q54 2 50 1q-17 0-17 9 0 2 3 14 5 19 10 21 4 1 15 1h6q27 0 60 3 14 3 19 12 3 4 72 278t69 289q0 7-57 9Zm400-83q0 32-21 54t-86 28h-23q-21 0-38 1h-22q-47 0-54-10-1-3-34-133t-33-133q0-1 69-1 78 1 104 7 64 10 100 59 16 23 27 60t11 68Z"/><path id="b" d="M58-216q-14 0-24 8t-11 22q0 10 73 302t77 298q13 28 46 28 12-1 20-7t10-12 2-10q0-12-31-134t-33-137q-2-11-2-35v-8q0-73 67-73 9 0 18 1t17 4 15 7 13 7 12 10 11 10 10 12 8 11 9 12l7 10 36 143q36 142 40 151 13 27 43 27 13 0 21-7t11-12 2-10L449 84q-1-5-1-16 0-25 7-33t21-9q9 1 20 9 21 20 41 96 6 20 10 21 2 1 10 1h4q19 0 19-9 0-6-5-27t-20-54-32-50Q510 0 491-8q-8-2-24-2-21 0-38 6t-27 15-17 18-9 15-2 7l-6-6q-6-6-18-15t-26-18-36-16-42-7q-47 0-93 23l-24-97q-21-82-25-95t-12-22q-16-14-34-14Z"/><path id="c" d="M137 683q1 0 72 5t73 6q12 0 12-9 0-11-36-151-38-148-38-151 0-2 7 5 61 54 130 54 54 0 87-27t34-79q0-51-38-158T402 50q1-14 5-19t15-5q28 0 52 30t39 82q3 11 6 13t16 2q20 0 20-8 0-1-4-15-16-59-51-97-34-43-81-43h-5q-47 0-68 27t-21 57q0 16 36 118t37 153q0 59-44 59h-5q-83 0-144-98l-7-13-34-135Q132 28 127 16q-13-27-44-27-14 0-24 9T48 16q0 14 73 304l74 296q0 13-7 16t-39 5h-21q-6 6-6 8t2 19q5 19 13 19Z"/><path id="d" d="M21 287q1 3 2 8t5 22 10 31 15 33 20 30 26 22 33 9q29 0 51-12t31-22 11-20q2-6 3-6t8 7q48 52 111 52h3q48 0 72-41 8-19 8-37 0-30-13-48t-26-23-25-4q-20 0-32 11t-12 29q0 48 56 64-22 13-36 13-56 0-103-74-10-16-15-33t-34-133Q156 25 151 16q-13-27-43-27-13 0-21 6T76 7t-2 10q0 13 40 172t40 177q0 39-26 39-21 0-36-28t-24-61-11-36q-2-2-16-2H27q-6 6-6 9Z"/><path id="e" d="M423 750q9 0 15-6t6-14q0-5-173-482T92-240q-7-10-17-10-7 0-13 5t-6 14q0 10 174 488t177 483q4 10 16 10Z"/></defs><g fill="currentColor" stroke="currentColor" stroke-width="0" data-mml-node="math"><g data-mml-node="mtable"><g data-mml-node="mtr"><g data-mml-node="mtd"><use xlink:href="#a" data-mml-node="mi" transform="matrix(1 0 0 -1 0 -1300)"/></g><g data-mml-node="mtd"><g data-mml-node="mo" font-family="serif" font-size="884"><text data-variant="normal" transform="translate(3222.7 -1300)">赤</text><text data-variant="normal" transform="translate(4106.7 -1300)">道</text><text data-variant="normal" transform="translate(4990.7 -1300)">半</text><text data-variant="normal" transform="translate(5874.7 -1300)">径</text></g></g></g><g data-mml-node="mtr"><g data-mml-node="mtd"><use xlink:href="#b" data-mml-node="mi" transform="scale(1 -1)"/></g><g data-mml-node="mtd"><g data-mml-node="mo" font-family="serif" font-size="884"><text data-variant="normal" transform="translate(3222.7)">标</text><text data-variant="normal" transform="translate(4106.7)">准</text><text data-variant="normal" transform="translate(4990.7)">重</text><text data-variant="normal" transform="translate(5874.7)">力</text><text data-variant="normal" transform="translate(6758.7)">参</text><text data-variant="normal" transform="translate(7642.7)">数</text></g></g></g><g data-mml-node="mtr"><g data-mml-node="mtd"><g data-mml-node="msub"><use xlink:href="#c" data-mml-node="mi" transform="matrix(1 0 0 -1 0 1300)"/><use xlink:href="#d" data-mml-node="mi" transform="matrix(.707 0 0 -.707 576 1450)"/></g></g><g data-mml-node="mtd"><g data-mml-node="mo" font-family="serif" font-size="884"><text data-variant="normal" transform="translate(3222.7 1300)">目</text><text data-variant="normal" transform="translate(4106.7 1300)">标</text><text data-variant="normal" transform="translate(4990.7 1300)">轨</text><text data-variant="normal" transform="translate(5874.7 1300)">道</text><text data-variant="normal" transform="translate(6758.7 1300)">高</text><text data-variant="normal" transform="translate(7642.7 1300)">度</text></g><g data-mjx-texclass="ORD" data-mml-node="TeXAtom"><use xlink:href="#e" data-mml-node="mo" transform="matrix(1 0 0 -1 8804.5 1300)"/></g><g data-mml-node="mo" font-family="serif" font-size="884"><text data-variant="normal" transform="translate(9582.2 1300)">相</text><text data-variant="normal" transform="translate(10466.2 1300)">切</text><text data-variant="normal" transform="translate(11350.2 1300)">点</text><text data-variant="normal" transform="translate(12234.2 1300)">高</text><text data-variant="normal" transform="translate(13118.2 1300)">度</text></g></g></g></g></g></svg>