<svg xmlns="http://www.w3.org/2000/svg" xmlns:xlink="http://www.w3.org/1999/xlink" width="24.899ex" height="8.145ex" aria-hidden="true" viewBox="0 -2050 11005.6 3600"><defs><path id="a" d="M21 287q1 6 3 16t12 38 20 47 33 37 46 17q36 0 60-18t30-34 6-21q0-2 1-2l11 11q61 64 139 64 54 0 87-27t34-79-38-157-38-127q0-26 17-26 6 0 9 1 29 5 52 38t35 80q2 8 20 8 20 0 20-8 0-1-4-15-8-29-22-57t-46-56-69-27q-47 0-68 27t-21 56q0 19 36 120t37 152q0 59-44 59h-5q-86 0-145-101l-7-12-33-134Q156 26 151 16q-13-27-43-27-13 0-21 6T76 7t-2 10q0 13 38 163t40 163q1 5 1 23 0 39-24 39-38 0-63-100-6-20-6-21-2-6-19-6H27q-6 6-6 9Z"/><path id="b" d="M94 250q0 69 10 131t23 107 37 88 38 67 42 52 33 34 25 21h17q14 0 14-9 0-3-17-21t-41-53-49-86-42-138-17-193 17-192 41-139 49-86 42-53 17-21q0-9-15-9h-16l-28 24q-94 85-137 212T94 250Z"/><path id="c" d="m60 749 4 1h22l28-24q94-85 137-212t43-264q0-68-10-131T261 12t-37-88-38-67-41-51-32-33-23-19l-4-4H63q-3 0-5 3t-3 9q1 1 11 13Q221-64 221 250T66 725q-10 12-11 13 0 8 5 11Z"/><path id="d" d="M52 289q7 42 54 97t116 56q35 0 64-18t43-45q42 63 101 63 37 0 64-22t28-59q0-29-14-47t-27-22-23-4q-19 0-31 11t-12 29q0 46 50 63-11 13-40 13-13 0-19-2-38-16-56-66-60-221-60-258 0-28 16-40t35-12q37 0 73 33t49 81q3 10 6 11t16 2h4q15 0 15-8 0-1-2-11-16-57-62-101T333-11q-70 0-106 63-41-62-94-62h-6q-49 0-70 26T35 71q0 32 19 52t45 20q43 0 43-42 0-20-12-35t-23-20-13-5l-3-1q0-1 6-4t16-7 19-3q36 0 62 45 9 16 23 68t28 108 16 66q5 27 5 39 0 28-15 40t-34 12q-40 0-75-32t-49-82q-2-9-5-10t-16-2H58q-6 6-6 11Z"/><path id="e" d="M21 287q0 14 15 48t48 71 74 36q41 0 66-23t26-64q-2-19-3-21 0-3-16-46t-33-97-16-86q0-43 14-60t42-18q23 0 43 11t31 23 27 33q0 1 5 20t14 59 19 74q38 150 42 157 13 27 43 27 13 0 21-7t11-12 2-9q0-13-49-210T391-23q-28-83-97-132t-138-50q-45 0-79 22t-34 66q0 22 7 37t19 22 20 10 17 3q44 0 44-42 0-20-12-35t-23-20-13-5l-3-1q2-5 19-12t34-7h8q17 0 26 2 33 9 61 38t43 62 23 56 8 30l-6-4q-6-4-19-11T270-6q-20-5-39-5-46 0-81 22t-46 71q-1 7-1 31 0 57 35 149t35 117v14q0 3-4 7t-11 4h-4q-23 0-42-19t-30-41-17-42-8-22q-2-2-16-2H27q-6 6-6 9Z"/></defs><g fill="currentColor" stroke="currentColor" stroke-width="0" data-mml-node="math"><g data-mml-node="mtable"><g data-mml-node="mtr"><g data-mml-node="mtd"><use xlink:href="#a" data-mml-node="mi" transform="matrix(1 0 0 -1 0 -1300)"/></g><g data-mml-node="mtd"><g data-mml-node="mo" font-family="serif" font-size="884"><text data-variant="normal" transform="translate(2877.8 -1300)">部</text><text data-variant="normal" transform="translate(3761.8 -1300)">署</text><text data-variant="normal" transform="translate(4645.8 -1300)">数</text><text data-variant="normal" transform="translate(5529.8 -1300)">量</text></g><use xlink:href="#b" data-mml-node="mo" transform="matrix(1 0 0 -1 6691.6 -1300)"/><g data-mml-node="mo" font-family="serif" font-size="884"><text data-variant="normal" transform="translate(7080.6 -1300)">间</text><text data-variant="normal" transform="translate(7964.6 -1300)">隔</text><text data-variant="normal" transform="translate(8848.6 -1300)">份</text><text data-variant="normal" transform="translate(9732.6 -1300)">数</text></g><use xlink:href="#c" data-mml-node="mo" transform="matrix(1 0 0 -1 10616.6 -1300)"/></g></g><g data-mml-node="mtr"><g data-mml-node="mtd"><use xlink:href="#d" data-mml-node="mi" transform="scale(1 -1)"/></g><g data-mml-node="mtd"><g data-mml-node="mo" font-family="serif" font-size="884"><text data-variant="normal" transform="translate(2877.8)">每</text><text data-variant="normal" transform="translate(3761.8)">几</text><text data-variant="normal" transform="translate(4645.8)">圈</text><text data-variant="normal" transform="translate(5529.8)">部</text><text data-variant="normal" transform="translate(6413.8)">署</text><text data-variant="normal" transform="translate(7297.8)">一</text><text data-variant="normal" transform="translate(8181.8)">次</text></g></g></g><g data-mml-node="mtr"><g data-mml-node="mtd"><use xlink:href="#e" data-mml-node="mi" transform="matrix(1 0 0 -1 0 1300)"/></g><g data-mml-node="mtd"><g data-mml-node="mo" font-family="serif" font-size="884"><text data-variant="normal" transform="translate(2877.8 1300)">每</text><text data-variant="normal" transform="translate(3761.8 1300)">次</text><text data-variant="normal" transform="translate(4645.8 1300)">部</text><text data-variant="normal" transform="translate(5529.8 1300)">署</text><text data-variant="normal" transform="translate(6413.8 1300)">间</text><text data-variant="normal" transform="translate(7297.8 1300)">隔</text></g></g></g></g></g></svg>