<svg xmlns="http://www.w3.org/2000/svg" xmlns:xlink="http://www.w3.org/1999/xlink" width="62.206ex" height="19.341ex" aria-hidden="true" viewBox="0 -4524.5 27495.2 8548.9"><defs><path id="a" d="M21 287q1 3 2 8t5 22 10 31 15 33 20 30 26 22 33 9q29 0 51-12t31-22 11-20q2-6 3-6t8 7q48 52 111 52h3q48 0 72-41 8-19 8-37 0-30-13-48t-26-23-25-4q-20 0-32 11t-12 29q0 48 56 64-22 13-36 13-56 0-103-74-10-16-15-33t-34-133Q156 25 151 16q-13-27-43-27-13 0-21 6T76 7t-2 10q0 13 40 172t40 177q0 39-26 39-21 0-36-28t-24-61-11-36q-2-2-16-2H27q-6 6-6 9Z"/><path id="b" d="M56 347q0 13 14 20h637q15-8 15-20 0-11-14-19l-318-1H72q-16 5-16 20Zm0-194q0 15 16 20h636q14-10 14-20 0-13-15-20H70q-14 7-14 20Z"/><path id="c" d="M137 683q1 0 72 5t73 6q12 0 12-9 0-11-36-151-38-148-38-151 0-2 7 5 61 54 130 54 54 0 87-27t34-79q0-51-38-158T402 50q1-14 5-19t15-5q28 0 52 30t39 82q3 11 6 13t16 2q20 0 20-8 0-1-4-15-16-59-51-97-34-43-81-43h-5q-47 0-68 27t-21 57q0 16 36 118t37 153q0 59-44 59h-5q-83 0-144-98l-7-13-34-135Q132 28 127 16q-13-27-44-27-14 0-24 9T48 16q0 14 73 304l74 296q0 13-7 16t-39 5h-21q-6 6-6 8t2 19q5 19 13 19Z"/><path id="d" d="M56 237v13l14 20h299v150l1 150q10 13 19 13 13 0 20-15V270h298q15-8 15-20t-15-20H409V-68q-8-14-18-14h-4q-12 0-18 14v298H70q-14 7-14 20Z"/><path id="e" d="M230 637q-27 0-32 1t-5 11q0 27 11 33 2 1 174 1 172-1 186-3 56-8 94-28t54-46 21-43 6-34q0-45-29-84t-67-60-67-34-38-13l7-5q67-38 67-110 0-11-5-61t-5-82v-9q0-18 1-28t11-18 26-9q28 0 46 22t26 47q5 14 8 17t15 3q20 0 20-12 0-18-24-57-38-57-90-57h-9q-61 0-101 25t-44 78q0 27 15 84t15 73q0 51-43 74-15 7-25 8t-71 2h-69l-32-130Q244 61 244 59q0-4 1-5t7-4 17-2 33-2h31q6-8 6-9t-3-18q-4-13-10-19h-15q-36 2-131 2H71Q54 2 50 1q-17 0-17 9 0 2 3 14 5 19 10 21 4 1 15 1h6q27 0 60 3 14 3 19 12 3 4 72 278t69 289q0 7-57 9Zm400-83q0 32-21 54t-86 28h-23q-21 0-38 1h-22q-47 0-54-10-1-3-34-133t-33-133q0-1 69-1 78 1 104 7 64 10 100 59 16 23 27 60t11 68Z"/><path id="f" d="M121 647q0 10 4 23t12 13q1 0 72 5t73 6q12 0 12-8 0-7-50-209-50-198-50-205 19 10 29 19 24 18 69 63t70 61q40 27 76 27 30 0 47-19t18-54q0-25-7-42t-19-25-21-11-18-3q-20 0-32 11t-12 29q0 25 16 41t32 21l16 3q-12 12-24 12h-4q-32-3-63-25t-73-64-66-61q2-1 15-3t24-6 26-8 27-14 22-18 17-26 6-33q0-17-5-41t-6-40q0-40 27-40 48 0 78 119 2 8 20 8h4q16 0 16-9 0-5-3-14Q455-11 378-11q-45 0-73 26t-28 75q0 18 3 31t3 24q0 22-14 38t-35 23-34 11-18 3h-2q-12-42-21-81t-14-58-9-37-7-24-7-13-11-9q-13-9-28-9-17 0-26 10t-9 17q0 10 37 160t73 295l37 145q1 13-7 16t-39 5h-18q-3 0-7 3t-3 7Z"/><path id="g" d="M58-216q-14 0-24 8t-11 22q0 10 73 302t77 298q13 28 46 28 12-1 20-7t10-12 2-10q0-12-31-134t-33-137q-2-11-2-35v-8q0-73 67-73 9 0 18 1t17 4 15 7 13 7 12 10 11 10 10 12 8 11 9 12l7 10 36 143q36 142 40 151 13 27 43 27 13 0 21-7t11-12 2-10L449 84q-1-5-1-16 0-25 7-33t21-9q9 1 20 9 21 20 41 96 6 20 10 21 2 1 10 1h4q19 0 19-9 0-6-5-27t-20-54-32-50Q510 0 491-8q-8-2-24-2-21 0-38 6t-27 15-17 18-9 15-2 7l-6-6q-6-6-18-15t-26-18-36-16-42-7q-47 0-93 23l-24-97q-21-82-25-95t-12-22q-16-14-34-14Z"/><path id="h" d="M462 0q-18 3-129 3-116 0-134-3h-9v46h58q7 0 17 2t14 5 7 8q1 2 1 54v50H28v46l151 231q153 232 155 233 2 2 21 2h18l6-6V211h92v-46h-92V66q0-7 6-12 8-7 57-8h29V0h-9ZM293 211v334L74 212l109-1h110Z"/><path id="i" d="M132-11q-34 0-34 33v11l13 28q75 158 109 273l8 24h-32q-38 0-54-3t-39-19q-11-7-22-18t-19-21-9-12q-2-1-15-1-19 0-19 10 0 6 19 35t55 62 71 38q7 2 225 2 160 0 164-1 20-7 20-28 0-31-32-42-6-2-69-2h-64l-3-17q-12-72-12-119 0-52 9-93t19-64 10-28q0-17-14-32t-36-15q-11 0-18 3t-16 24-16 60q-1 9-1 44 0 49 9 105t18 92 10 40h-98l-1-4q0-3-19-79t-43-161-31-97q-11-28-43-28Z"/><path id="j" d="M109 429q-27 0-43 18t-16 44q0 71 53 123t132 52q91 0 152-56t62-145q0-43-20-82t-48-68-80-74q-36-31-100-92l-59-56 76-1q157 0 167 5 7 2 24 89v3h40v-3q-1-3-13-91T421 3V0H50v31q0 7 6 15t30 35q29 32 50 56 9 10 34 37t34 37 29 33 28 34 23 30 21 32 15 29 13 32 7 30 3 33q0 63-34 109t-97 46q-33 0-58-17t-35-33-10-19q0-1 5-1 18 0 37-14t19-46q0-25-16-42t-45-18Z"/><path id="k" d="M21 287q1 3 2 8t5 22 10 31 15 33 20 30 26 22 33 9q24 0 43-7t30-18 16-22 8-19l2-7q0-2 1-2l11 11q61 64 139 64 54 0 87-27t34-79v-10q0-24-64-273-58-235-62-242-13-27-45-27-13 0-22 8t-11 22q0 9 59 243l62 250q3 15 3 38 0 59-44 59h-5q-86 0-145-101l-7-12-33-134Q156 26 151 16q-13-27-43-27-13 0-21 6T76 7t-2 10q0 13 40 172t40 177q0 39-26 39-21 0-36-28t-24-61-11-36q-2-2-16-2H27q-6 6-6 9Z"/><path id="l" d="M40 437q-19 0-19 8 0 5 16 56t34 101l17 49q5 18 13 26h558q32 0 38-1t7-9q0-6-17-114t-19-109q0-7-19-7h-12q-3 0-6 5l-2 3q0 6 6 45t6 61q0 35-13 53t-55 25q-5 1-58 2-46 0-58-1t-18-8q-1-1-71-279T298 60q0-12 88-14 32 0 41-1t9-9q0-5-3-14-4-18-9-21l-2-1h-7q-5 0-52 1T228 2Q99 2 64 0H49q-6 6-6 9t2 18q4 13 10 19h39q80 0 95 9 1 1 2 1 5 3 10 20t40 157q17 68 28 111 70 275 70 281 0 5-29 5h-31q-67 0-88-6-45-10-70-41T67 467q-7-22-10-26t-14-4h-3Z"/><path id="m" d="M33 157q0 101 76 192t171 92q51 0 90-49 16 30 46 30 13 0 23-8t10-20q0-13-37-160T374 68q0-25 7-33t21-9q9 1 20 9 21 20 41 96 6 20 10 21 2 1 10 1h4q19 0 19-9 0-6-5-27t-20-54-32-50Q436 0 417-8q-8-2-24-2-34 0-57 15t-30 31l-6 15q-1 1-4-1l-4-4q-59-56-120-56-55 0-97 40T33 157Zm318 171q0 6-5 22t-23 35-46 20q-35 0-67-31t-50-81q-29-79-41-164v-11q0-8-1-12 0-45 18-62t43-18q38 0 75 33t44 51q2 4 27 107t26 111Z"/><path id="n" d="M21 287q0 14 15 48t48 71 74 36q41 0 66-23t26-64q-2-19-3-21 0-3-16-46t-33-97-16-86q0-43 14-60t42-18q23 0 43 11t31 23 27 33q0 1 5 20t14 59 19 74q38 150 42 157 13 27 43 27 13 0 21-7t11-12 2-9q0-13-49-210T391-23q-28-83-97-132t-138-50q-45 0-79 22t-34 66q0 22 7 37t19 22 20 10 17 3q44 0 44-42 0-20-12-35t-23-20-13-5l-3-1q2-5 19-12t34-7h8q17 0 26 2 33 9 61 38t43 62 23 56 8 30l-6-4q-6-4-19-11T270-6q-20-5-39-5-46 0-81 22t-46 71q-1 7-1 31 0 57 35 149t35 117v14q0 3-4 7t-11 4h-4q-23 0-42-19t-30-41-17-42-8-22q-2-2-16-2H27q-6 6-6 9Z"/><path id="o" d="M52 289q7 42 54 97t116 56q35 0 64-18t43-45q42 63 101 63 37 0 64-22t28-59q0-29-14-47t-27-22-23-4q-19 0-31 11t-12 29q0 46 50 63-11 13-40 13-13 0-19-2-38-16-56-66-60-221-60-258 0-28 16-40t35-12q37 0 73 33t49 81q3 10 6 11t16 2h4q15 0 15-8 0-1-2-11-16-57-62-101T333-11q-70 0-106 63-41-62-94-62h-6q-49 0-70 26T35 71q0 32 19 52t45 20q43 0 43-42 0-20-12-35t-23-20-13-5l-3-1q0-1 6-4t16-7 19-3q36 0 62 45 9 16 23 68t28 108 16 66q5 27 5 39 0 28-15 40t-34 12q-40 0-75-32t-49-82q-2-9-5-10t-16-2H58q-6 6-6 11Z"/><path id="p" d="M21 287q1 6 3 16t12 38 20 47 33 37 46 17q36 0 60-18t30-34 6-21q0-2 1-2l11 11q61 64 139 64 54 0 87-27t34-79-38-157-38-127q0-26 17-26 6 0 9 1 29 5 52 38t35 80q2 8 20 8 20 0 20-8 0-1-4-15-8-29-22-57t-46-56-69-27q-47 0-68 27t-21 56q0 19 36 120t37 152q0 59-44 59h-5q-86 0-145-101l-7-12-33-134Q156 26 151 16q-13-27-43-27-13 0-21 6T76 7t-2 10q0 13 38 163t40 163q1 5 1 23 0 39-24 39-38 0-63-100-6-20-6-21-2-6-19-6H27q-6 6-6 9Z"/><path id="q" d="m712 899 6-6v-28q0-11-14-19-77-53-127-136t-67-185q0-1-1-4-4-28-5-172V240q0-242-1-244-1-4-9-5t-50-1q-52 0-54 1-3 1-4 4-2 10-2 235v82q0 50-1 70 0 99 9 153t42 121q76 150 230 236l13 7h35Z"/><path id="r" d="m718-893-6-6h-35l-11 6q-124 68-198 179t-83 238q-1 10-1 194 0 285 1 287l4 4q3 1 55 1 42 0 50-1t9-5q1-2 1-243v-127q0-104 4-147t22-96q16-48 39-89t48-69 44-45 38-31 18-13 1-20v-17Z"/><path id="s" d="M389 1159q2 1 66 1 41 0 43-1 3-1 4-4 2-10 2-231 0-233-1-242-9-133-78-243T243 259l-14-9 14-9q106-66 178-175t82-248q1-9 1-242v-205q0-29-5-30h-1q-2-1-54-1t-54 1q-3 1-4 4-2 10-2 230v143q0 106-7 166T342 10q-17 44-41 82t-46 63-41 41-31 26-12 10q-1 1-1 18t1 18q0 1 20 16t49 47 60 76 54 117 29 155q1 12 1 246 0 227 1 230l4 4Z"/><path id="t" d="M384 150v116q0 38 5 43 2 1 66 1 41 0 43-1 4-1 5-11 1-15 1-148V12q0-20-5-21h-1q-2-1-54-1t-54 1q-4 1-5 11-1 15-1 148Z"/><path id="u" d="M84 520q0 8 4 13t8 6l3 1q7 0 154-69t291-137l143-69q7-5 7-15t-7-15q-2-2-292-139L107-40h-6q-18 2-18 20v3q-1 7 15 16 19 10 150 72 78 37 130 61l248 118-248 118Q90 504 86 509q-2 4-2 11Z"/><path id="v" d="m213 578-13-5q-14-5-40-10t-58-7H83v46h19q47 2 87 15t56 24 28 22q2 3 12 3 9 0 17-6V361l1-300q7-7 12-9t24-4 62-2h26V0h-11q-21 3-159 3-136 0-157-3H88v46h64q16 0 25 1t16 3 8 2 6 5 6 4v517Z"/><path id="w" d="M78 35v25l16 43 43 18q28 0 50-25t23-88q0-35-9-68t-21-57-26-41-24-27-13-9q-4 0-13 9t-9 13q0 4 11 16t25 30 26 50 16 73V9l-1-1q-2-1-5-2t-6-3-9-2-12-1q-27 0-44 17Z"/><path id="x" d="M84 250q0 122 82 200t194 89h17q16 0 42 1t50 0h99q15-8 15-20 0-9-13-19l-104-1q-111-1-137-6-49-12-87-36t-59-49-36-55-18-48-5-34v-2h444q15-8 15-20t-15-20H124v-2q0-21 10-51t33-65 64-64 97-41q27-6 138-7h104q13-10 13-20 0-12-15-20H446q-18 0-29-1-155 0-245 86-88 82-88 205Z"/><path id="y" d="M20 664q0 2 11 19h111q114 0 116-2 1-1 21-28t63-81 80-104l160-209v231q0 39 1 51 0 70-10 87t-51 20q-22 0-29 6-9 11 0 25l7 4h191q11-7 11-17 0-9-4-14-10-4-18-4-47 0-53-36-3-11-3-318V-8q-8-12-17-12-6 0-11 5-3 2-225 285L156 548l-3-229v-85q0-50-1-67 0-64 4-89t16-34 41-10q23 0 29-6 11-11 0-25l-6-4H36Q24 6 24 16q0 18 32 18 2 1 13 2t17 4 14 10 9 22q2 11 2 273v258l-15 16q-24 24-52 29-24 0-24 16Zm393-245L240 648H120l16-20q1-2 225-287T587 54l2 14v124L413 419Z"/><path id="z" d="M229 286q-13 134-13 150 0 18 24 28h5q4 0 6 1 12-1 22-9t10-20q0-17-6-80t-7-70l58 42q56 41 61 44t10 3q13 0 24-10t12-27q0-13-10-23-5-3-68-33t-68-32l66-31 70-35q9-9 9-23 0-15-9-25t-24-11q-8 0-18 6t-55 40l-58 42q13-134 13-150 0-10-7-19t-26-9q-19 0-26 9t-8 19q0 17 6 80t7 70l-58-42q-56-41-61-44-4-3-10-3-13 0-24 10t-12 27v8q0 3 3 6t5 6 9 7 13 7 19 9 25 11 32 15 40 20L74 315q-9 9-9 23 0 15 9 25t24 11q8 0 18-6t55-40l58-42Z"/><path id="A" d="M94 250q0 69 10 131t23 107 37 88 38 67 42 52 33 34 25 21h17q14 0 14-9 0-3-17-21t-41-53-49-86-42-138-17-193 17-192 41-139 49-86 42-53 17-21q0-9-15-9h-16l-28 24q-94 85-137 212T94 250Z"/><path id="B" d="m60 749 4 1h22l28-24q94-85 137-212t43-264q0-68-10-131T261 12t-37-88-38-67-41-51-32-33-23-19l-4-4H63q-3 0-5 3t-3 9q1 1 11 13Q221-64 221 250T66 725q-10 12-11 13 0 8 5 11Z"/><path id="C" d="M56 320v13l14 20h299v149q0 149 2 153 5 11 17 11 14 0 17-12t4-58V353h298q15-8 15-20 0-13-15-20H409V40h298q15-8 15-20T707 0H70Q56 7 56 20t14 20h299v273H70q-14 7-14 20Z"/></defs><g fill="currentColor" stroke="currentColor" stroke-width="0" data-mml-node="math"><g data-mml-node="mtable"><g data-mml-node="mtr"><g data-mml-node="mtd"><use xlink:href="#a" data-mml-node="mi" transform="matrix(1 0 0 -1 0 -3774.5)"/><use xlink:href="#b" data-mml-node="mo" transform="matrix(1 0 0 -1 728.8 -3774.5)"/><g data-mml-node="msub"><use xlink:href="#c" data-mml-node="mi" transform="matrix(1 0 0 -1 1784.6 -3774.5)"/><use xlink:href="#a" data-mml-node="mi" transform="matrix(.707 0 0 -.707 2360.6 -3624.5)"/></g><use xlink:href="#d" data-mml-node="mo" transform="matrix(1 0 0 -1 2951.7 -3774.5)"/><use xlink:href="#e" data-mml-node="mi" transform="matrix(1 0 0 -1 3951.9 -3774.5)"/></g><g data-mml-node="mtd"><g data-mml-node="mo" font-family="serif" font-size="884"><text data-variant="normal" transform="translate(8502 -3774.5)">目</text><text data-variant="normal" transform="translate(9386 -3774.5)">标</text><text data-variant="normal" transform="translate(10270 -3774.5)">轨</text><text data-variant="normal" transform="translate(11154 -3774.5)">道</text><text data-variant="normal" transform="translate(12038 -3774.5)">半</text><text data-variant="normal" transform="translate(12922 -3774.5)">径</text></g></g></g><g data-mml-node="mtr"><g data-mml-node="mtd"><use xlink:href="#f" data-mml-node="mi" transform="matrix(1 0 0 -1 0 -2106.5)"/><use xlink:href="#b" data-mml-node="mo" transform="matrix(1 0 0 -1 798.8 -2106.5)"/><g data-mml-node="mfrac"><use xlink:href="#g" data-mml-node="mi" transform="matrix(1 0 0 -1 2509.9 -2782.5)"/><g data-mml-node="mrow"><use xlink:href="#h" data-mml-node="mn" transform="matrix(1 0 0 -1 2074.6 -1386.6)"/><g data-mml-node="msup"><use xlink:href="#i" data-mml-node="mi" transform="matrix(1 0 0 -1 2574.6 -1386.6)"/><use xlink:href="#j" data-mml-node="mn" transform="matrix(.707 0 0 -.707 3144.6 -1675.6)"/></g></g><path stroke="none" d="M1974.6-2326.5h1673.6v-60H1974.6z"/></g></g><g data-mml-node="mtd"><g data-mml-node="mo" font-family="serif" font-size="884"><text data-variant="normal" transform="translate(8502 -2106.5)">开</text><text data-variant="normal" transform="translate(9386 -2106.5)">普</text><text data-variant="normal" transform="translate(10270 -2106.5)">勒</text><text data-variant="normal" transform="translate(11154 -2106.5)">常</text><text data-variant="normal" transform="translate(12038 -2106.5)">数</text></g></g></g><g data-mml-node="mtr"><g data-mml-node="mtd"><use xlink:href="#k" data-mml-node="mi" transform="matrix(1 0 0 -1 0 1074.5)"/><use xlink:href="#b" data-mml-node="mo" transform="matrix(1 0 0 -1 774.8 1074.5)"/><g data-mml-node="mfrac"><g data-mml-node="msub"><use xlink:href="#l" data-mml-node="mi" transform="matrix(1 0 0 -1 2050.6 398.5)"/><use xlink:href="#m" data-mml-node="mi" transform="matrix(.707 0 0 -.707 2634.6 548.5)"/></g><g data-mml-node="msub"><use xlink:href="#l" data-mml-node="mi" transform="matrix(1 0 0 -1 2078.2 1760.5)"/><use xlink:href="#a" data-mml-node="mi" transform="matrix(.707 0 0 -.707 2662.2 1910.5)"/></g><path stroke="none" d="M1950.6 854.5h1208.1v-60H1950.6z"/></g><use xlink:href="#b" data-mml-node="mo" transform="matrix(1 0 0 -1 3556.4 1074.5)"/><g data-mml-node="mfrac"><use xlink:href="#n" data-mml-node="mi" transform="matrix(1 0 0 -1 5173.2 398.5)"/><g data-mml-node="mrow"><use xlink:href="#o" data-mml-node="mi" transform="matrix(1 0 0 -1 4832.2 1760.5)"/><use xlink:href="#p" data-mml-node="mi" transform="matrix(1 0 0 -1 5404.2 1760.5)"/></g><path stroke="none" d="M4732.2 854.5h1372v-60h-1372z"/></g></g><g data-mml-node="mtd"><g data-mml-node="mo" font-family="serif" font-size="884"><text data-variant="normal" transform="translate(8502 1074.5)">周</text><text data-variant="normal" transform="translate(9386 1074.5)">期</text><text data-variant="normal" transform="translate(10270 1074.5)">比</text><text data-variant="normal" transform="translate(11154 1074.5)">例</text><text data-variant="normal" transform="translate(12038 1074.5)">常</text><text data-variant="normal" transform="translate(12922 1074.5)">数</text></g><g data-mml-node="mrow"><g data-mml-node="mo" transform="matrix(1 0 0 -1 14083.8 1074.5)"><use xlink:href="#q" transform="translate(0 1251)"/><use xlink:href="#r" transform="translate(0 -751)"/><use xlink:href="#s"/><svg width="889" height="281" y="1060" viewBox="0 49.5 889 281"><use xlink:href="#t" transform="scale(1 1.382)"/></svg><svg width="889" height="281" y="-841" viewBox="0 49.5 889 281"><use xlink:href="#t" transform="scale(1 1.382)"/></svg></g><g data-mml-node="mtable"><g data-mml-node="mtr"><g data-mml-node="mtd"><use xlink:href="#p" data-mml-node="mi" transform="matrix(1 0 0 -1 14972.8 -325.5)"/><use xlink:href="#u" data-mml-node="mo" transform="matrix(1 0 0 -1 15850.6 -325.5)"/><use xlink:href="#v" data-mml-node="mn" transform="matrix(1 0 0 -1 16906.4 -325.5)"/></g><g data-mml-node="mtd"><g data-mml-node="mo" font-family="serif" font-size="884"><text data-variant="normal" transform="translate(21135.7 -325.5)">大</text><text data-variant="normal" transform="translate(22019.7 -325.5)">于</text></g><use xlink:href="#v" data-mml-node="mn" transform="matrix(1 0 0 -1 23181.5 -325.5)"/><g data-mml-node="mo" font-family="serif" font-size="884"><text data-variant="normal" transform="translate(23959.3 -325.5)">才</text><text data-variant="normal" transform="translate(24843.3 -325.5)">有</text><text data-variant="normal" transform="translate(25727.3 -325.5)">意</text><text data-variant="normal" transform="translate(26611.3 -325.5)">义</text></g></g></g><g data-mml-node="mtr"><g data-mml-node="mtd"><use xlink:href="#o" data-mml-node="mi" transform="matrix(1 0 0 -1 14972.8 1074.5)"/><use xlink:href="#w" data-mml-node="mo" transform="matrix(1 0 0 -1 15544.8 1074.5)"/><use xlink:href="#n" data-mml-node="mi" transform="matrix(1 0 0 -1 15989.5 1074.5)"/><use xlink:href="#w" data-mml-node="mo" transform="matrix(1 0 0 -1 16479.5 1074.5)"/><use xlink:href="#p" data-mml-node="mi" transform="matrix(1 0 0 -1 16924.1 1074.5)"/><use xlink:href="#x" data-mml-node="mo" transform="matrix(1 0 0 -1 17801.9 1074.5)"/><g data-mml-node="msup"><g data-mjx-texclass="ORD" data-mml-node="TeXAtom"><use xlink:href="#y" data-mml-node="mi" transform="matrix(1 0 0 -1 18746.7 1074.5)"/></g><use xlink:href="#z" data-mml-node="mo" transform="matrix(.707 0 0 -.707 19468.7 664.4)"/></g></g><g data-mml-node="mtd"><g data-mml-node="mo" font-family="serif" font-size="884"><text data-variant="normal" transform="translate(21135.7 1074.5)">正</text><text data-variant="normal" transform="translate(22019.7 1074.5)">整</text><text data-variant="normal" transform="translate(22903.7 1074.5)">数</text></g></g></g><g data-mml-node="mtr"><g data-mml-node="mtd"><use xlink:href="#A" data-mml-node="mo" transform="matrix(1 0 0 -1 14972.8 2474.5)"/><use xlink:href="#o" data-mml-node="mi" transform="matrix(1 0 0 -1 15361.8 2474.5)"/><use xlink:href="#w" data-mml-node="mo" transform="matrix(1 0 0 -1 15933.8 2474.5)"/><use xlink:href="#n" data-mml-node="mi" transform="matrix(1 0 0 -1 16378.5 2474.5)"/><use xlink:href="#w" data-mml-node="mo" transform="matrix(1 0 0 -1 16868.5 2474.5)"/><use xlink:href="#p" data-mml-node="mi" transform="matrix(1 0 0 -1 17313.1 2474.5)"/><use xlink:href="#B" data-mml-node="mo" transform="matrix(1 0 0 -1 17913.1 2474.5)"/><use xlink:href="#b" data-mml-node="mo" transform="matrix(1 0 0 -1 18579.9 2474.5)"/><use xlink:href="#v" data-mml-node="mn" transform="matrix(1 0 0 -1 19635.7 2474.5)"/></g><g data-mml-node="mtd"><g data-mml-node="mo" font-family="serif" font-size="884"><text data-variant="normal" transform="translate(21135.7 2474.5)">互</text><text data-variant="normal" transform="translate(22019.7 2474.5)">质</text></g></g></g></g></g></g></g><g data-mml-node="mtr"><g data-mml-node="mtd"><use xlink:href="#n" data-mml-node="mi" transform="matrix(1 0 0 -1 0 3774.5)"/><use xlink:href="#b" data-mml-node="mo" transform="matrix(1 0 0 -1 767.8 3774.5)"/><use xlink:href="#o" data-mml-node="mi" transform="matrix(1 0 0 -1 1823.6 3774.5)"/><use xlink:href="#p" data-mml-node="mi" transform="matrix(1 0 0 -1 2395.6 3774.5)"/><use xlink:href="#C" data-mml-node="mo" transform="matrix(1 0 0 -1 3217.8 3774.5)"/><use xlink:href="#v" data-mml-node="mn" transform="matrix(1 0 0 -1 4218 3774.5)"/></g><g data-mml-node="mtd"><g data-mml-node="mo" font-family="serif" font-size="884"><text data-variant="normal" transform="translate(8502 3774.5)">简</text><text data-variant="normal" transform="translate(9386 3774.5)">单</text><text data-variant="normal" transform="translate(10270 3774.5)">共</text><text data-variant="normal" transform="translate(11154 3774.5)">振</text><text data-variant="normal" transform="translate(12038 3774.5)">比</text></g></g></g></g></g></svg>