<svg xmlns="http://www.w3.org/2000/svg" xmlns:xlink="http://www.w3.org/1999/xlink" width="42.032ex" height="31.798ex" aria-hidden="true" viewBox="0 -7277.3 18578 14054.6"><defs><path id="a" d="M40 437q-19 0-19 8 0 5 16 56t34 101l17 49q5 18 13 26h558q32 0 38-1t7-9q0-6-17-114t-19-109q0-7-19-7h-12q-3 0-6 5l-2 3q0 6 6 45t6 61q0 35-13 53t-55 25q-5 1-58 2-46 0-58-1t-18-8q-1-1-71-279T298 60q0-12 88-14 32 0 41-1t9-9q0-5-3-14-4-18-9-21l-2-1h-7q-5 0-52 1T228 2Q99 2 64 0H49q-6 6-6 9t2 18q4 13 10 19h39q80 0 95 9 1 1 2 1 5 3 10 20t40 157q17 68 28 111 70 275 70 281 0 5-29 5h-31q-67 0-88-6-45-10-70-41T67 467q-7-22-10-26t-14-4h-3Z"/><path id="b" d="M21 287q1 3 2 8t5 22 10 31 15 33 20 30 26 22 33 9q29 0 51-12t31-22 11-20q2-6 3-6t8 7q48 52 111 52h3q48 0 72-41 8-19 8-37 0-30-13-48t-26-23-25-4q-20 0-32 11t-12 29q0 48 56 64-22 13-36 13-56 0-103-74-10-16-15-33t-34-133Q156 25 151 16q-13-27-43-27-13 0-21 6T76 7t-2 10q0 13 40 172t40 177q0 39-26 39-21 0-36-28t-24-61-11-36q-2-2-16-2H27q-6 6-6 9Z"/><path id="c" d="M56 347q0 13 14 20h637q15-8 15-20 0-11-14-19l-318-1H72q-16 5-16 20Zm0-194q0 15 16 20h636q14-10 14-20 0-13-15-20H70q-14 7-14 20Z"/><path id="f" d="M424-948q-2 1-111 514T202 80l-32-49q-5-7-13-21l-20-31q-6 5-13 13L111 5l153 243 209-968q0 3 254 1079t256 1081q6 10 18 10 6 0 12-5t7-12q0-8-278-1189T460-941q-2-9-21-9h-3q-12 0-12 2Z"/><path id="d" d="M127 463q-27 0-42 17t-16 44q0 55 48 98t116 43q35 0 44-1 74-12 113-53t40-89q0-52-34-101t-94-71l-3-2q0-1 9-3t29-9 38-21q82-53 82-140 0-79-62-138T238-22q-80 0-138 43T42 130q0 28 18 45t45 18q28 0 46-18t18-45q0-11-3-20t-7-16-11-12-12-8-10-4-8-3l-4-1q51-45 124-45 55 0 83 53 17 33 17 101v20q0 95-64 127-15 6-61 7l-42 1-3 2q-2 3-2 16 0 18 8 18 28 0 58 5 34 5 62 42t28 112v8q0 57-35 79-22 14-47 14-32 0-59-11t-38-23-11-12h3q3-1 8-2t10-5 12-7 10-11 8-15 3-20q0-22-14-39t-45-18Z"/><path id="e" d="M121 647q0 10 4 23t12 13q1 0 72 5t73 6q12 0 12-8 0-7-50-209-50-198-50-205 19 10 29 19 24 18 69 63t70 61q40 27 76 27 30 0 47-19t18-54q0-25-7-42t-19-25-21-11-18-3q-20 0-32 11t-12 29q0 25 16 41t32 21l16 3q-12 12-24 12h-4q-32-3-63-25t-73-64-66-61q2-1 15-3t24-6 26-8 27-14 22-18 17-26 6-33q0-17-5-41t-6-40q0-40 27-40 48 0 78 119 2 8 20 8h4q16 0 16-9 0-5-3-14Q455-11 378-11q-45 0-73 26t-28 75q0 18 3 31t3 24q0 22-14 38t-35 23-34 11-18 3h-2q-12-42-21-81t-14-58-9-37-7-24-7-13-11-9q-13-9-28-9-17 0-26 10t-9 17q0 10 37 160t73 295l37 145q1 13-7 16t-39 5h-18q-3 0-7 3t-3 7Z"/><path id="g" d="M33 157q0 101 76 192t171 92q51 0 90-49 16 30 46 30 13 0 23-8t10-20q0-13-37-160T374 68q0-25 7-33t21-9q9 1 20 9 21 20 41 96 6 20 10 21 2 1 10 1h4q19 0 19-9 0-6-5-27t-20-54-32-50Q436 0 417-8q-8-2-24-2-34 0-57 15t-30 31l-6 15q-1 1-4-1l-4-4q-59-56-120-56-55 0-97 40T33 157Zm318 171q0 6-5 22t-23 35-46 20q-35 0-67-31t-50-81q-29-79-41-164v-11q0-8-1-12 0-45 18-62t43-18q38 0 75 33t44 51q2 4 27 107t26 111Z"/><path id="h" d="M21 287q1 3 2 8t5 22 10 31 15 33 20 30 26 22 33 9q24 0 43-7t30-18 16-22 8-19l2-7q0-2 1-2l11 11q61 64 139 64 54 0 87-27t34-79v-10q0-24-64-273-58-235-62-242-13-27-45-27-13 0-22 8t-11 22q0 9 59 243l62 250q3 15 3 38 0 59-44 59h-5q-86 0-145-101l-7-12-33-134Q156 26 151 16q-13-27-43-27-13 0-21 6T76 7t-2 10q0 13 40 172t40 177q0 39-26 39-21 0-36-28t-24-61-11-36q-2-2-16-2H27q-6 6-6 9Z"/><path id="i" d="M137 683q1 0 72 5t73 6q12 0 12-9 0-11-36-151-38-148-38-151 0-2 7 5 61 54 130 54 54 0 87-27t34-79q0-51-38-158T402 50q1-14 5-19t15-5q28 0 52 30t39 82q3 11 6 13t16 2q20 0 20-8 0-1-4-15-16-59-51-97-34-43-81-43h-5q-47 0-68 27t-21 57q0 16 36 118t37 153q0 59-44 59h-5q-83 0-144-98l-7-13-34-135Q132 28 127 16q-13-27-44-27-14 0-24 9T48 16q0 14 73 304l74 296q0 13-7 16t-39 5h-21q-6 6-6 8t2 19q5 19 13 19Z"/><path id="j" d="m213 578-13-5q-14-5-40-10t-58-7H83v46h19q47 2 87 15t56 24 28 22q2 3 12 3 9 0 17-6V361l1-300q7-7 12-9t24-4 62-2h26V0h-11q-21 3-159 3-136 0-157-3H88v46h64q16 0 25 1t16 3 8 2 6 5 6 4v517Z"/><path id="k" d="M109 429q-27 0-43 18t-16 44q0 71 53 123t132 52q91 0 152-56t62-145q0-43-20-82t-48-68-80-74q-36-31-100-92l-59-56 76-1q157 0 167 5 7 2 24 89v3h40v-3q-1-3-13-91T421 3V0H50v31q0 7 6 15t30 35q29 32 50 56 9 10 34 37t34 37 29 33 28 34 23 30 21 32 15 29 13 32 7 30 3 33q0 63-34 109t-97 46q-33 0-58-17t-35-33-10-19q0-1 5-1 18 0 37-14t19-46q0-25-16-42t-45-18Z"/><path id="l" d="M94 250q0 69 10 131t23 107 37 88 38 67 42 52 33 34 25 21h17q14 0 14-9 0-3-17-21t-41-53-49-86-42-138-17-193 17-192 41-139 49-86 42-53 17-21q0-9-15-9h-16l-28 24q-94 85-137 212T94 250Z"/><path id="m" d="M84 237v13l14 20h581q15-8 15-20t-15-20H98q-14 7-14 20Z"/><path id="n" d="m60 749 4 1h22l28-24q94-85 137-212t43-264q0-68-10-131T261 12t-37-88-38-67-41-51-32-33-23-19l-4-4H63q-3 0-5 3t-3 9q1 1 11 13Q221-64 221 250T66 725q-10 12-11 13 0 8 5 11Z"/><path id="o" d="M230 637q-27 0-32 1t-5 11q0 27 11 33 2 1 174 1 172-1 186-3 56-8 94-28t54-46 21-43 6-34q0-45-29-84t-67-60-67-34-38-13l7-5q67-38 67-110 0-11-5-61t-5-82v-9q0-18 1-28t11-18 26-9q28 0 46 22t26 47q5 14 8 17t15 3q20 0 20-12 0-18-24-57-38-57-90-57h-9q-61 0-101 25t-44 78q0 27 15 84t15 73q0 51-43 74-15 7-25 8t-71 2h-69l-32-130Q244 61 244 59q0-4 1-5t7-4 17-2 33-2h31q6-8 6-9t-3-18q-4-13-10-19h-15q-36 2-131 2H71Q54 2 50 1q-17 0-17 9 0 2 3 14 5 19 10 21 4 1 15 1h6q27 0 60 3 14 3 19 12 3 4 72 278t69 289q0 7-57 9Zm400-83q0 32-21 54t-86 28h-23q-21 0-38 1h-22q-47 0-54-10-1-3-34-133t-33-133q0-1 69-1 78 1 104 7 64 10 100 59 16 23 27 60t11 68Z"/><path id="p" d="M173 380q0 25-19 25-24 0-50-29t-43-89q-1-1-2-3t-1-3-2-2-3-1-4 0-8 0H27q-6 6-6 9 0 7 8 29t24 52 44 51 63 22q42 0 65-24t24-56q0-17-3-26 0-6-15-44t-31-89-18-89q0-27 5-44 13-43 63-43 37 0 69 34t50 79 29 83 11 55q0 23-8 40t-18 26-18 18-8 22q0 22 19 41t41 19q19 0 34-18t16-58q0-27-12-83t-37-125-71-119-106-51q-64 0-102 33-37 32-37 95 0 31 8 64t41 117q22 64 22 82Z"/><path id="q" d="M58-216q-14 0-24 8t-11 22q0 10 73 302t77 298q13 28 46 28 12-1 20-7t10-12 2-10q0-12-31-134t-33-137q-2-11-2-35v-8q0-73 67-73 9 0 18 1t17 4 15 7 13 7 12 10 11 10 10 12 8 11 9 12l7 10 36 143q36 142 40 151 13 27 43 27 13 0 21-7t11-12 2-10L449 84q-1-5-1-16 0-25 7-33t21-9q9 1 20 9 21 20 41 96 6 20 10 21 2 1 10 1h4q19 0 19-9 0-6-5-27t-20-54-32-50Q510 0 491-8q-8-2-24-2-21 0-38 6t-27 15-17 18-9 15-2 7l-6-6q-6-6-18-15t-26-18-36-16-42-7q-47 0-93 23l-24-97q-21-82-25-95t-12-22q-16-14-34-14Z"/><path id="r" d="M983 1739q5 11 18 11 7 0 12-5t7-12q0-7-278-1489T460-1241q-2-9-21-9h-3q-12 0-12 2l-14 82q-15 83-43 246t-55 319L201 44 137-83l-26 26 76 153 77 151q1-1 105-604 101-601 104-606L727 384q252 1345 256 1355Z"/><path id="s" d="M51 0q-5 4-5 7 0 2 169 350t173 352q3 7 28 7 23 0 28-7 3-4 172-352T786 7q0-3-5-7H51Zm456 344L384 596 137 92l246-1h247q0 2-123 253Z"/><path id="t" d="M139-249h-2q-12 0-18 14v486l1 486q10 13 19 13 13 0 20-15v-970q-8-14-18-14h-2Z"/></defs><g fill="currentColor" stroke="currentColor" stroke-width="0" data-mml-node="math"><g data-mml-node="mtable"><g data-mml-node="mtr"><g data-mml-node="mtd"><g data-mml-node="msub"><use xlink:href="#a" data-mml-node="mi" transform="matrix(1 0 0 -1 400.7 -5532.9)"/><use xlink:href="#b" data-mml-node="mi" transform="matrix(.707 0 0 -.707 984.7 -5382.9)"/></g></g><g data-mml-node="mtd"><use xlink:href="#c" data-mml-node="mo" transform="matrix(1 0 0 -1 1631.4 -5532.9)"/><g data-mml-node="msqrt"><g data-mml-node="mfrac"><g data-mml-node="msup"><use xlink:href="#b" data-mml-node="mi" transform="matrix(1 0 0 -1 3927.2 -6208.9)"/><use xlink:href="#d" data-mml-node="mn" transform="matrix(.707 0 0 -.707 4378.2 -6497.9)"/></g><use xlink:href="#e" data-mml-node="mi" transform="matrix(1 0 0 -1 4094 -4846.9)"/><path stroke="none" d="M3827.2-5752.9h1054.6v-60H3827.2z"/></g><use xlink:href="#f" data-mml-node="mo" transform="matrix(1 0 0 -1 2687.2 -5767.3)"/><path stroke="none" d="M3707.2-7157.3h1294.6v-60H3707.2z"/></g></g><g data-mml-node="mtd"><g data-mml-node="mo" font-family="serif" font-size="884"><text data-variant="normal" transform="translate(11506 -5532.9)">目</text><text data-variant="normal" transform="translate(12390 -5532.9)">标</text><text data-variant="normal" transform="translate(13274 -5532.9)">轨</text><text data-variant="normal" transform="translate(14158 -5532.9)">道</text><text data-variant="normal" transform="translate(15042 -5532.9)">周</text><text data-variant="normal" transform="translate(15926 -5532.9)">期</text></g></g></g><g data-mml-node="mtr"><g data-mml-node="mtd"><g data-mml-node="msub"><use xlink:href="#a" data-mml-node="mi" transform="matrix(1 0 0 -1 345.6 -3767.3)"/><use xlink:href="#g" data-mml-node="mi" transform="matrix(.707 0 0 -.707 929.6 -3617.3)"/></g></g><g data-mml-node="mtd"><use xlink:href="#c" data-mml-node="mo" transform="matrix(1 0 0 -1 1631.4 -3767.3)"/><g data-mml-node="msub"><use xlink:href="#a" data-mml-node="mi" transform="matrix(1 0 0 -1 2687.2 -3767.3)"/><use xlink:href="#b" data-mml-node="mi" transform="matrix(.707 0 0 -.707 3271.2 -3617.3)"/></g><use xlink:href="#h" data-mml-node="mi" transform="matrix(1 0 0 -1 3640.1 -3767.3)"/></g><g data-mml-node="mtd"><g data-mml-node="mo" font-family="serif" font-size="884"><text data-variant="normal" transform="translate(11506 -3767.3)">部</text><text data-variant="normal" transform="translate(12390 -3767.3)">署</text><text data-variant="normal" transform="translate(13274 -3767.3)">轨</text><text data-variant="normal" transform="translate(14158 -3767.3)">道</text><text data-variant="normal" transform="translate(15042 -3767.3)">周</text><text data-variant="normal" transform="translate(15926 -3767.3)">期</text></g></g></g><g data-mml-node="mtr"><g data-mml-node="mtd"><g data-mml-node="msub"><use xlink:href="#i" data-mml-node="mi" transform="matrix(1 0 0 -1 0 -2467.3)"/><g data-mjx-texclass="ORD" data-mml-node="TeXAtom"><use xlink:href="#g" data-mml-node="mi" transform="matrix(.707 0 0 -.707 576 -2317.3)"/><use xlink:href="#j" data-mml-node="mn" transform="matrix(.707 0 0 -.707 950.003 -2317.3)"/></g></g></g><g data-mml-node="mtd"><use xlink:href="#c" data-mml-node="mo" transform="matrix(1 0 0 -1 1631.4 -2467.3)"/><g data-mml-node="msub"><use xlink:href="#i" data-mml-node="mi" transform="matrix(1 0 0 -1 2687.2 -2467.3)"/><use xlink:href="#b" data-mml-node="mi" transform="matrix(.707 0 0 -.707 3263.2 -2317.3)"/></g></g><g data-mml-node="mtd"><g data-mml-node="mo" font-family="serif" font-size="884"><text data-variant="normal" transform="translate(11506 -2467.3)">相</text><text data-variant="normal" transform="translate(12390 -2467.3)">切</text><text data-variant="normal" transform="translate(13274 -2467.3)">点</text><text data-variant="normal" transform="translate(14158 -2467.3)">高</text><text data-variant="normal" transform="translate(15042 -2467.3)">度</text></g></g></g><g data-mml-node="mtr"><g data-mml-node="mtd"><g data-mml-node="msub"><use xlink:href="#i" data-mml-node="mi" transform="matrix(1 0 0 -1 0 -892.7)"/><g data-mjx-texclass="ORD" data-mml-node="TeXAtom"><use xlink:href="#g" data-mml-node="mi" transform="matrix(.707 0 0 -.707 576 -742.7)"/><use xlink:href="#k" data-mml-node="mn" transform="matrix(.707 0 0 -.707 950.003 -742.7)"/></g></g></g><g data-mml-node="mtd"><use xlink:href="#c" data-mml-node="mo" transform="matrix(1 0 0 -1 1631.4 -892.7)"/><use xlink:href="#b" data-mml-node="mi" transform="matrix(1 0 0 -1 2687.2 -892.7)"/><use xlink:href="#l" data-mml-node="mo" transform="matrix(1 0 0 -1 3138.2 -892.7)"/><use xlink:href="#k" data-mml-node="mn" transform="matrix(1 0 0 -1 3527.2 -892.7)"/><g data-mml-node="msup"><use xlink:href="#h" data-mml-node="mi" transform="matrix(1 0 0 -1 4027.2 -892.7)"/><g data-mml-node="mfrac"><use xlink:href="#k" data-mml-node="mn" transform="matrix(.49985 0 0 -.49985 4679.74 -1584.258)"/><use xlink:href="#d" data-mml-node="mn" transform="matrix(.49985 0 0 -.49985 4679.74 -1061.785)"/><path stroke="none" d="M4609.04-1461.24h391.395v-42.42H4609.04z"/></g></g><use xlink:href="#m" data-mml-node="mo" transform="matrix(1 0 0 -1 5357.5 -892.7)"/><use xlink:href="#j" data-mml-node="mn" transform="matrix(1 0 0 -1 6357.7 -892.7)"/><use xlink:href="#n" data-mml-node="mo" transform="matrix(1 0 0 -1 6857.7 -892.7)"/><use xlink:href="#m" data-mml-node="mo" transform="matrix(1 0 0 -1 7468.9 -892.7)"/><use xlink:href="#o" data-mml-node="mi" transform="matrix(1 0 0 -1 8469.2 -892.7)"/></g><g data-mml-node="mtd"><g data-mml-node="mo" font-family="serif" font-size="884"><text data-variant="normal" transform="translate(11506 -892.7)">对</text><text data-variant="normal" transform="translate(12390 -892.7)">向</text><text data-variant="normal" transform="translate(13274 -892.7)">点</text><text data-variant="normal" transform="translate(14158 -892.7)">高</text><text data-variant="normal" transform="translate(15042 -892.7)">度</text></g></g></g><g data-mml-node="mtr"><g data-mml-node="mtd"><g data-mml-node="msub"><use xlink:href="#p" data-mml-node="mi" transform="matrix(1 0 0 -1 499.7 1243.1)"/><use xlink:href="#b" data-mml-node="mi" transform="matrix(.707 0 0 -.707 984.7 1393.1)"/></g></g><g data-mml-node="mtd"><use xlink:href="#c" data-mml-node="mo" transform="matrix(1 0 0 -1 1631.4 1243.1)"/><g data-mml-node="msqrt"><g data-mml-node="mfrac"><use xlink:href="#q" data-mml-node="mi" transform="matrix(1 0 0 -1 3927.2 567.1)"/><use xlink:href="#b" data-mml-node="mi" transform="matrix(1 0 0 -1 4003.2 1929.1)"/><path stroke="none" d="M3827.2 1023.1h803v-60h-803z"/></g><use xlink:href="#f" data-mml-node="mo" transform="matrix(1 0 0 -1 2687.2 1167.3)"/><path stroke="none" d="M3707.2-222.7h1043v-60h-1043z"/></g></g><g data-mml-node="mtd"><g data-mml-node="mo" font-family="serif" font-size="884"><text data-variant="normal" transform="translate(11506 1243.1)">目</text><text data-variant="normal" transform="translate(12390 1243.1)">标</text><text data-variant="normal" transform="translate(13274 1243.1)">轨</text><text data-variant="normal" transform="translate(14158 1243.1)">道</text><text data-variant="normal" transform="translate(15042 1243.1)">速</text><text data-variant="normal" transform="translate(15926 1243.1)">度</text></g></g></g><g data-mml-node="mtr"><g data-mml-node="mtd"><g data-mml-node="msub"><use xlink:href="#p" data-mml-node="mi" transform="matrix(1 0 0 -1 444.6 4187)"/><use xlink:href="#g" data-mml-node="mi" transform="matrix(.707 0 0 -.707 929.6 4337)"/></g></g><g data-mml-node="mtd"><use xlink:href="#c" data-mml-node="mo" transform="matrix(1 0 0 -1 1631.4 4187)"/><g data-mml-node="msub"><use xlink:href="#p" data-mml-node="mi" transform="matrix(1 0 0 -1 2687.2 4187)"/><use xlink:href="#b" data-mml-node="mi" transform="matrix(.707 0 0 -.707 3172.2 4337)"/></g><g data-mml-node="msqrt"><use xlink:href="#l" data-mml-node="mo" transform="matrix(1 0 0 -1 4561.1 4187)"/><use xlink:href="#k" data-mml-node="mn" transform="matrix(1 0 0 -1 4950.1 4187)"/><use xlink:href="#m" data-mml-node="mo" transform="matrix(1 0 0 -1 5672.3 4187)"/><g data-mml-node="mfrac"><use xlink:href="#j" data-mml-node="mn" transform="matrix(1 0 0 -1 7196.6 3511)"/><g data-mml-node="msup"><use xlink:href="#h" data-mml-node="mi" transform="matrix(1 0 0 -1 6892.5 5124.1)"/><g data-mml-node="mfrac"><use xlink:href="#k" data-mml-node="mn" transform="matrix(.49985 0 0 -.49985 7545.04 4480.042)"/><use xlink:href="#d" data-mml-node="mn" transform="matrix(.49985 0 0 -.49985 7545.04 5002.515)"/><path stroke="none" d="M7474.34 4603.06h391.395v-42.42H7474.34z"/></g></g><path stroke="none" d="M6792.5 3967h1308.1v-60H6792.5z"/></g><use xlink:href="#n" data-mml-node="mo" transform="matrix(1 0 0 -1 8220.7 4187)"/><use xlink:href="#r" data-mml-node="mo" transform="matrix(1 0 0 -1 3541.1 4227.3)"/><path stroke="none" d="M4561.1 2537.3h4048.6v-60H4561.1z"/></g></g><g data-mml-node="mtd"><g data-mml-node="mo" font-family="serif" font-size="884"><text data-variant="normal" transform="translate(11506 4187)">部</text><text data-variant="normal" transform="translate(12390 4187)">署</text><text data-variant="normal" transform="translate(13274 4187)">轨</text><text data-variant="normal" transform="translate(14158 4187)">道</text><text data-variant="normal" transform="translate(15042 4187)">相</text><text data-variant="normal" transform="translate(15926 4187)">切</text><text data-variant="normal" transform="translate(16810 4187)">速</text><text data-variant="normal" transform="translate(17694 4187)">度</text></g></g></g><g data-mml-node="mtr"><g data-mml-node="mtd"><use xlink:href="#s" data-mml-node="mi" transform="matrix(1 0 0 -1 35.6 6527.3)"/><use xlink:href="#p" data-mml-node="mi" transform="matrix(1 0 0 -1 868.6 6527.3)"/></g><g data-mml-node="mtd"><use xlink:href="#c" data-mml-node="mo" transform="matrix(1 0 0 -1 1631.4 6527.3)"/><g data-mml-node="mrow"><use xlink:href="#t" data-mml-node="mo" transform="matrix(1 0 0 -1 2687.2 6527.3)"/><g data-mml-node="msub"><use xlink:href="#p" data-mml-node="mi" transform="matrix(1 0 0 -1 2965.2 6527.3)"/><use xlink:href="#b" data-mml-node="mi" transform="matrix(.707 0 0 -.707 3450.2 6677.3)"/></g><use xlink:href="#m" data-mml-node="mo" transform="matrix(1 0 0 -1 4041.3 6527.3)"/><g data-mml-node="msub"><use xlink:href="#p" data-mml-node="mi" transform="matrix(1 0 0 -1 5041.5 6527.3)"/><use xlink:href="#g" data-mml-node="mi" transform="matrix(.707 0 0 -.707 5526.5 6677.3)"/></g><use xlink:href="#t" data-mml-node="mo" transform="matrix(1 0 0 -1 5950.6 6527.3)"/></g></g><g data-mml-node="mtd"><g data-mml-node="mo" font-family="serif" font-size="884"><text data-variant="normal" transform="translate(11506 6527.3)">速</text><text data-variant="normal" transform="translate(12390 6527.3)">度</text><text data-variant="normal" transform="translate(13274 6527.3)">变</text><text data-variant="normal" transform="translate(14158 6527.3)">化</text><text data-variant="normal" transform="translate(15042 6527.3)">量</text></g></g></g></g></g></svg>