<svg xmlns="http://www.w3.org/2000/svg" xmlns:xlink="http://www.w3.org/1999/xlink" width="47.91ex" height="23.47ex" aria-hidden="true" viewBox="0 -5436.8 21176.2 10373.6"><defs><path id="a" d="M131 289q0 32 16 65t56 61 97 27q62 0 90-27t29-60q0-32-17-47t-38-16q-13 0-24 8t-12 26q0 16 9 28t17 18 13 6q1 0 1 1 0 3-7 9t-25 11-39 6q-48 0-70-26t-23-53q0-25 19-35t55-17 52-15q66-29 66-96 0-28-11-56t-33-56-63-44-94-17q-77 0-109 29T53 87q0 39 21 56t44 17q15 0 28-9t14-31q0-26-18-44t-31-18q-2-1-3-1t-1-2q1-3 8-8t31-13 55-7q36 0 62 11t38 28 17 31 5 25q0 28-21 42t-48 17-59 15-47 35q-17 25-17 58Z"/><path id="b" d="M228 637q-34 0-36 4-1 2-1 8 0 24 11 33 2 1 15 1 54-3 127-3 141 0 162 3h12q6-6 6-9t-2-18q-5-15-9-19h-38q-69-1-81-9-7-4-14-28t-67-264q-16-65-34-138T252 88l-9-36q0-4 9-4t59-2h17q32 0 51 1t49 7 50 18 44 34 42 55q16 30 30 67t17 42q5 3 17 3h13q6-9 6-11t-20-59-44-120-26-74q-2-5-4-6t-16-3-43-1h-76q-65 0-124 1H116Q32 0 32 10q0 7 2 14 5 19 10 21 4 1 15 1h6q27 0 60 3 14 3 19 12 3 4 72 278t69 289q0 7-57 9Z"/><path id="c" d="M740 435q0-115-64-222T511 42 304-22q-97 0-166 57T51 201q-1 8-1 43 0 102 48 194t129 163q124 103 249 103 38 0 48-1 97-14 156-86t60-182Zm-103 41q0 89-46 139t-115 50q-80 0-154-60-80-63-122-177t-43-212q0-90 43-143t114-54q90 0 171 79t123 215q29 95 29 163Z"/><path id="d" d="M308 24q59 0 108 52t50 121q0 63-52 87-106 27-136 37t-42 20q-60 42-60 121 0 61 32 111t65 75q29 25 70 40t64 16h18q96 0 139-64 1 0 13 13t26 29 20 22h4q3 0 5 1 13 0 13-7t-28-121-32-118-16-3q-20 0-20 9 0 6 1 10 0 3 1 19t2 26q0 34-9 59t-18 37-25 25q-36 21-82 21-57 0-106-46t-50-106q0-30 15-52t41-31q4-2 70-19t67-18q34-11 66-48t32-100q0-26-8-56-5-22-18-49t-36-59-66-60-94-38q-12-2-34-2-99 0-154 55l-10 11-28-31Q83-14 78-18t-13-4q-13 0-13 8 0 3 58 235 2 6 20 6h13q6-6 6-11 0-2-1-9t-4-21-2-33q2-39 18-66t43-40 52-18 53-5Z"/><path id="e" d="M56 347q0 13 14 20h637q15-8 15-20 0-11-14-19l-318-1H72q-16 5-16 20Zm0-194q0 15 16 20h636q14-10 14-20 0-13-15-20H70q-14 7-14 20Z"/><path id="f" d="M109 429q-27 0-43 18t-16 44q0 71 53 123t132 52q91 0 152-56t62-145q0-43-20-82t-48-68-80-74q-36-31-100-92l-59-56 76-1q157 0 167 5 7 2 24 89v3h40v-3q-1-3-13-91T421 3V0H50v31q0 7 6 15t30 35q29 32 50 56 9 10 34 37t34 37 29 33 28 34 23 30 21 32 15 29 13 32 7 30 3 33q0 63-34 109t-97 46q-33 0-58-17t-35-33-10-19q0-1 5-1 18 0 37-14t19-46q0-25-16-42t-45-18Z"/><path id="g" d="M94 250q0 69 10 131t23 107 37 88 38 67 42 52 33 34 25 21h17q14 0 14-9 0-3-17-21t-41-53-49-86-42-138-17-193 17-192 41-139 49-86 42-53 17-21q0-9-15-9h-16l-28 24q-94 85-137 212T94 250Z"/><path id="h" d="M137 683q1 0 72 5t73 6q12 0 12-9 0-11-36-151-38-148-38-151 0-2 7 5 61 54 130 54 54 0 87-27t34-79q0-51-38-158T402 50q1-14 5-19t15-5q28 0 52 30t39 82q3 11 6 13t16 2q20 0 20-8 0-1-4-15-16-59-51-97-34-43-81-43h-5q-47 0-68 27t-21 57q0 16 36 118t37 153q0 59-44 59h-5q-83 0-144-98l-7-13-34-135Q132 28 127 16q-13-27-44-27-14 0-24 9T48 16q0 14 73 304l74 296q0 13-7 16t-39 5h-21q-6 6-6 8t2 19q5 19 13 19Z"/><path id="i" d="M21 287q1 3 2 8t5 22 10 31 15 33 20 30 26 22 33 9q29 0 51-12t31-22 11-20q2-6 3-6t8 7q48 52 111 52h3q48 0 72-41 8-19 8-37 0-30-13-48t-26-23-25-4q-20 0-32 11t-12 29q0 48 56 64-22 13-36 13-56 0-103-74-10-16-15-33t-34-133Q156 25 151 16q-13-27-43-27-13 0-21 6T76 7t-2 10q0 13 40 172t40 177q0 39-26 39-21 0-36-28t-24-61-11-36q-2-2-16-2H27q-6 6-6 9Z"/><path id="j" d="M56 237v13l14 20h299v150l1 150q10 13 19 13 13 0 20-15V270h298q15-8 15-20t-15-20H409V-68q-8-14-18-14h-4q-12 0-18 14v298H70q-14 7-14 20Z"/><path id="k" d="M230 637q-27 0-32 1t-5 11q0 27 11 33 2 1 174 1 172-1 186-3 56-8 94-28t54-46 21-43 6-34q0-45-29-84t-67-60-67-34-38-13l7-5q67-38 67-110 0-11-5-61t-5-82v-9q0-18 1-28t11-18 26-9q28 0 46 22t26 47q5 14 8 17t15 3q20 0 20-12 0-18-24-57-38-57-90-57h-9q-61 0-101 25t-44 78q0 27 15 84t15 73q0 51-43 74-15 7-25 8t-71 2h-69l-32-130Q244 61 244 59q0-4 1-5t7-4 17-2 33-2h31q6-8 6-9t-3-18q-4-13-10-19h-15q-36 2-131 2H71Q54 2 50 1q-17 0-17 9 0 2 3 14 5 19 10 21 4 1 15 1h6q27 0 60 3 14 3 19 12 3 4 72 278t69 289q0 7-57 9Zm400-83q0 32-21 54t-86 28h-23q-21 0-38 1h-22q-47 0-54-10-1-3-34-133t-33-133q0-1 69-1 78 1 104 7 64 10 100 59 16 23 27 60t11 68Z"/><path id="l" d="m60 749 4 1h22l28-24q94-85 137-212t43-264q0-68-10-131T261 12t-37-88-38-67-41-51-32-33-23-19l-4-4H63q-3 0-5 3t-3 9q1 1 11 13Q221-64 221 250T66 725q-10 12-11 13 0 8 5 11Z"/><path id="m" d="M295 316q0 40-27 69t-78 29q-36 0-62-13-30-19-30-52-1-5 0-13t16-24 43-25q18-5 44-9t44-9 32-13q17-8 33-20t32-41 17-62q0-62-38-102T198-10h-8q-52 0-96 36l-8-7-9-9Q71 4 65-1L54-11H42q-3 0-9 6v137q0 21 2 25t10 5h9q12 0 16-4t5-12 7-27 19-42q35-51 97-51 97 0 97 78 0 29-18 47-20 24-83 36t-83 23q-36 17-57 46t-21 62q0 39 17 66t43 40 50 18 44 5h11q40 0 70-15l15-8 9 7q10 9 22 17h12q3 0 9-6V310l-6-6h-28q-6 6-6 12Z"/><path id="n" d="M69 609q0 28 18 44t44 16q23-2 40-17t17-43q0-30-17-45t-42-15q-25 0-42 15t-18 45ZM247 0q-15 3-104 3h-37Q80 3 56 1L34 0h-8v46h16q28 0 49 3 9 4 11 11t2 42v191q0 52-2 66t-14 19q-14 7-47 7H30v23q0 23 2 23l10 1q10 1 28 2t36 2 36 2 29 3 11 1h3V62q5-10 12-12t35-4h23V0h-8Z"/><path id="o" d="M41 46h14q39 0 47 14v62q0 17 1 39t0 42v66q0 35-1 59v23q-3 19-14 25t-45 9H25v23q0 23 2 23l10 1q10 1 28 2t37 2q17 1 36 2t29 3 11 1h3v-40q0-38 1-38t5 5 12 15 19 18 29 19 38 16q20 5 51 5 114-4 127-113 1-7 1-139v-86q0-38 2-45t11-10q21-3 49-3h16V0h-8l-24 1q-23 1-50 1t-38 1Q319 3 310 0h-8v46h16q61 0 61 16 1 2 1 138-1 135-2 143-6 28-20 42t-24 17-26 2q-45 0-79-34-27-27-34-55t-8-83V108q0-30 1-40t3-13 9-6q21-3 49-3h16V0h-8l-23 1q-24 1-51 1t-38 1Q42 3 33 0h-8v46h16Z"/><path id="q" d="M132-11q-34 0-34 33v11l13 28q75 158 109 273l8 24h-32q-38 0-54-3t-39-19q-11-7-22-18t-19-21-9-12q-2-1-15-1-19 0-19 10 0 6 19 35t55 62 71 38q7 2 225 2 160 0 164-1 20-7 20-28 0-31-32-42-6-2-69-2h-64l-3-17q-12-72-12-119 0-52 9-93t19-64 10-28q0-17-14-32t-36-15q-11 0-18 3t-16 24-16 60q-1 9-1 44 0 49 9 105t18 92 10 40h-98l-1-4q0-3-19-79t-43-161-31-97q-11-28-43-28Z"/><path id="r" d="M21 287q1 6 3 16t12 38 20 47 33 37 46 17q36 0 60-18t30-34 6-21q0-2 1-2l11 11q61 64 139 64 54 0 87-27t34-79-38-157-38-127q0-26 17-26 6 0 9 1 29 5 52 38t35 80q2 8 20 8 20 0 20-8 0-1-4-15-8-29-22-57t-46-56-69-27q-47 0-68 27t-21 56q0 19 36 120t37 152q0 59-44 59h-5q-86 0-145-101l-7-12-33-134Q156 26 151 16q-13-27-43-27-13 0-21 6T76 7t-2 10q0 13 38 163t40 163q1 5 1 23 0 39-24 39-38 0-63-100-6-20-6-21-2-6-19-6H27q-6 6-6 9Z"/><path id="s" d="M370 305h-21l-36 15-16 38q0 23 15 38 5 5 5 6t-10 2q-26 4-49 4-49 0-80-32-47-47-47-157 0-82 31-129 41-61 110-61 41 0 66 26t36 62q2 8 5 10t16 2h14q6-6 6-9 0-4-4-16t-16-33-29-38-48-31-69-13q-86 0-150 64T34 214q0 104 65 169t151 65 120-27 34-64q0-23-17-37Z"/><path id="t" d="M28 214q0 95 65 164t157 70q90 0 155-68t66-165q0-95-64-160T250-10q-97 0-159 67T28 214ZM250 30q122 0 122 163v57q0 22-1 38t-7 38-16 36-31 28-49 20q-5 1-16 1-30 0-57-12-43-22-56-61t-13-92v-20q0-96 19-135 32-61 105-61Z"/><path id="u" d="M84 237v13l14 20h581q15-8 15-20t-15-20H98q-14 7-14 20Z"/><path id="v" d="M401 694q11 0 21-13V375l1-305 12 11q52 49 116 81 13 8 19 8 2 0 9-7v-13q0-12-2-15t-13-9q-23-12-46-27t-65-51-79-94-56-131q-5-17-13-17t-12 16-21 59-47 88Q158 70 46 126q-11 6-13 9t-2 15v13q7 7 9 7 6 0 19-8 63-31 117-81l12-11v305l1 306q10 13 19 13 11 0 20-14V352l1-327 9-13q41-54 67-114 39 79 68 115l9 12v653q5 14 19 16Z"/></defs><g fill="currentColor" stroke="currentColor" stroke-width="0" data-mml-node="math"><g data-mml-node="mtable"><g data-mml-node="mtr"><g data-mml-node="mtd"><g data-mml-node="msub"><use xlink:href="#a" data-mml-node="mi" transform="matrix(1 0 0 -1 107 -4329.8)"/><g data-mjx-texclass="ORD" data-mml-node="TeXAtom"><use xlink:href="#b" data-mml-node="mi" transform="matrix(.707 0 0 -.707 576 -4179.8)"/><use xlink:href="#c" data-mml-node="mi" transform="matrix(.707 0 0 -.707 1057.467 -4179.8)"/><use xlink:href="#d" data-mml-node="mi" transform="matrix(.707 0 0 -.707 1596.908 -4179.8)"/></g></g></g><g data-mml-node="mtd"><use xlink:href="#e" data-mml-node="mo" transform="matrix(1 0 0 -1 2380.9 -4329.8)"/><use xlink:href="#f" data-mml-node="mn" transform="matrix(1 0 0 -1 3436.7 -4329.8)"/><use xlink:href="#g" data-mml-node="mo" transform="matrix(1 0 0 -1 3936.7 -4329.8)"/><g data-mml-node="msub"><use xlink:href="#h" data-mml-node="mi" transform="matrix(1 0 0 -1 4325.7 -4329.8)"/><use xlink:href="#i" data-mml-node="mi" transform="matrix(.707 0 0 -.707 4901.7 -4179.8)"/></g><use xlink:href="#j" data-mml-node="mo" transform="matrix(1 0 0 -1 5492.8 -4329.8)"/><use xlink:href="#k" data-mml-node="mi" transform="matrix(1 0 0 -1 6493 -4329.8)"/><use xlink:href="#l" data-mml-node="mo" transform="matrix(1 0 0 -1 7252 -4329.8)"/><g data-mml-node="mi" transform="matrix(1 0 0 -1 7807.7 -4329.8)"><use xlink:href="#m"/><use xlink:href="#n" transform="translate(394)"/><use xlink:href="#o" transform="translate(672)"/></g><use xlink:href="#p" data-mml-node="mo" transform="matrix(1 0 0 -1 9035.7 -4329.8)"/><g data-mml-node="mfrac"><use xlink:href="#q" data-mml-node="mi" transform="matrix(1 0 0 -1 9437.3 -5005.8)"/><use xlink:href="#r" data-mml-node="mi" transform="matrix(1 0 0 -1 9422.3 -3643.8)"/><path stroke="none" d="M9322.3-4549.8h800v-60h-800z"/></g></g><g data-mml-node="mtd"><g data-mml-node="mo" font-family="serif" font-size="884"><text data-variant="normal" transform="translate(14111.6 -4329.8)">相</text><text data-variant="normal" transform="translate(14995.6 -4329.8)">邻</text><text data-variant="normal" transform="translate(15879.6 -4329.8)">位</text><text data-variant="normal" transform="translate(16763.6 -4329.8)">直</text><text data-variant="normal" transform="translate(17647.6 -4329.8)">线</text><text data-variant="normal" transform="translate(18531.6 -4329.8)">距</text><text data-variant="normal" transform="translate(19415.6 -4329.8)">离</text></g></g></g><g data-mml-node="mtr"><g data-mml-node="mtd"><g data-mml-node="msub"><use xlink:href="#h" data-mml-node="mi" transform="matrix(1 0 0 -1 0 -2225.8)"/><g data-mjx-texclass="ORD" data-mml-node="TeXAtom"><use xlink:href="#b" data-mml-node="mi" transform="matrix(.707 0 0 -.707 576 -2075.8)"/><use xlink:href="#c" data-mml-node="mi" transform="matrix(.707 0 0 -.707 1057.467 -2075.8)"/><use xlink:href="#d" data-mml-node="mi" transform="matrix(.707 0 0 -.707 1596.908 -2075.8)"/></g></g></g><g data-mml-node="mtd"><use xlink:href="#e" data-mml-node="mo" transform="matrix(1 0 0 -1 2380.9 -2225.8)"/><use xlink:href="#g" data-mml-node="mo" transform="matrix(1 0 0 -1 3436.7 -2225.8)"/><g data-mml-node="msub"><use xlink:href="#h" data-mml-node="mi" transform="matrix(1 0 0 -1 3825.7 -2225.8)"/><use xlink:href="#i" data-mml-node="mi" transform="matrix(.707 0 0 -.707 4401.7 -2075.8)"/></g><use xlink:href="#j" data-mml-node="mo" transform="matrix(1 0 0 -1 4992.8 -2225.8)"/><use xlink:href="#k" data-mml-node="mi" transform="matrix(1 0 0 -1 5993 -2225.8)"/><use xlink:href="#l" data-mml-node="mo" transform="matrix(1 0 0 -1 6752 -2225.8)"/><g data-mml-node="mi" transform="matrix(1 0 0 -1 7307.7 -2225.8)"><use xlink:href="#s"/><use xlink:href="#t" transform="translate(444)"/><use xlink:href="#m" transform="translate(944)"/></g><use xlink:href="#p" data-mml-node="mo" transform="matrix(1 0 0 -1 8645.7 -2225.8)"/><g data-mml-node="mfrac"><use xlink:href="#q" data-mml-node="mi" transform="matrix(1 0 0 -1 9047.3 -2901.8)"/><use xlink:href="#r" data-mml-node="mi" transform="matrix(1 0 0 -1 9032.3 -1539.8)"/><path stroke="none" d="M8932.3-2445.8h800v-60h-800z"/></g><use xlink:href="#u" data-mml-node="mo" transform="matrix(1 0 0 -1 10074.6 -2225.8)"/><use xlink:href="#k" data-mml-node="mi" transform="matrix(1 0 0 -1 11074.8 -2225.8)"/></g><g data-mml-node="mtd"><g data-mml-node="mo" font-family="serif" font-size="884"><text data-variant="normal" transform="translate(14111.6 -2225.8)">可</text><text data-variant="normal" transform="translate(14995.6 -2225.8)">目</text><text data-variant="normal" transform="translate(15879.6 -2225.8)">视</text></g><use xlink:href="#b" data-mml-node="mi" transform="matrix(1 0 0 -1 17041.4 -2225.8)"/><use xlink:href="#c" data-mml-node="mi" transform="matrix(1 0 0 -1 17722.4 -2225.8)"/><use xlink:href="#d" data-mml-node="mi" transform="matrix(1 0 0 -1 18485.4 -2225.8)"/><g data-mml-node="mo" font-family="serif" font-size="884"><text data-variant="normal" transform="translate(19408.1 -2225.8)">高</text><text data-variant="normal" transform="translate(20292.1 -2225.8)">度</text></g></g></g><g data-mml-node="mtr"><g data-mml-node="mtd"><use xlink:href="#v" data-mml-node="mo" transform="matrix(1 0 0 -1 2380.9 -478.8)"/></g></g><g data-mml-node="mtr"><g data-mml-node="mtd"><g data-mml-node="msub"><use xlink:href="#h" data-mml-node="mi" transform="matrix(1 0 0 -1 1158.2 1189.2)"/><use xlink:href="#i" data-mml-node="mi" transform="matrix(.707 0 0 -.707 1734.2 1339.2)"/></g></g><g data-mml-node="mtd"><use xlink:href="#e" data-mml-node="mo" transform="matrix(1 0 0 -1 2380.9 1189.2)"/><g data-mml-node="mfrac"><g data-mml-node="msub"><use xlink:href="#a" data-mml-node="mi" transform="matrix(1 0 0 -1 4121.4 513.2)"/><g data-mjx-texclass="ORD" data-mml-node="TeXAtom"><use xlink:href="#b" data-mml-node="mi" transform="matrix(.707 0 0 -.707 4590.4 663.2)"/><use xlink:href="#c" data-mml-node="mi" transform="matrix(.707 0 0 -.707 5071.867 663.2)"/><use xlink:href="#d" data-mml-node="mi" transform="matrix(.707 0 0 -.707 5611.308 663.2)"/></g></g><g data-mml-node="mrow"><use xlink:href="#f" data-mml-node="mn" transform="matrix(1 0 0 -1 3656.7 1875.2)"/><g data-mml-node="mi" transform="matrix(1 0 0 -1 4323.4 1875.2)"><use xlink:href="#m"/><use xlink:href="#n" transform="translate(394)"/><use xlink:href="#o" transform="translate(672)"/></g><use xlink:href="#p" data-mml-node="mo" transform="matrix(1 0 0 -1 5551.4 1875.2)"/><g data-mml-node="mfrac"><use xlink:href="#q" data-mml-node="mi" transform="matrix(.707 0 0 -.707 5948.6 1481.2)"/><use xlink:href="#r" data-mml-node="mi" transform="matrix(.707 0 0 -.707 5938 2220.2)"/><path stroke="none" d="M5838 1655.2h624.3v-60H5838z"/></g></g><path stroke="none" d="M3556.7 969.2h3125.6v-60H3556.7z"/></g><use xlink:href="#u" data-mml-node="mo" transform="matrix(1 0 0 -1 7024.5 1189.2)"/><use xlink:href="#k" data-mml-node="mi" transform="matrix(1 0 0 -1 8024.7 1189.2)"/></g></g><g data-mml-node="mtr"><g data-mml-node="mtd"><g data-mml-node="msub"><use xlink:href="#h" data-mml-node="mi" transform="matrix(1 0 0 -1 1158.2 3898)"/><use xlink:href="#i" data-mml-node="mi" transform="matrix(.707 0 0 -.707 1734.2 4048)"/></g></g><g data-mml-node="mtd"><use xlink:href="#e" data-mml-node="mo" transform="matrix(1 0 0 -1 2380.9 3898)"/><g data-mml-node="mfrac"><g data-mml-node="mrow"><g data-mml-node="msub"><use xlink:href="#h" data-mml-node="mi" transform="matrix(1 0 0 -1 3656.7 3222)"/><g data-mjx-texclass="ORD" data-mml-node="TeXAtom"><use xlink:href="#b" data-mml-node="mi" transform="matrix(.707 0 0 -.707 4232.7 3372)"/><use xlink:href="#c" data-mml-node="mi" transform="matrix(.707 0 0 -.707 4714.167 3372)"/><use xlink:href="#d" data-mml-node="mi" transform="matrix(.707 0 0 -.707 5253.608 3372)"/></g></g><use xlink:href="#j" data-mml-node="mo" transform="matrix(1 0 0 -1 5982.1 3222)"/><use xlink:href="#k" data-mml-node="mi" transform="matrix(1 0 0 -1 6982.3 3222)"/></g><g data-mml-node="mrow"><g data-mml-node="mi" transform="matrix(1 0 0 -1 4514.5 4584)"><use xlink:href="#s"/><use xlink:href="#t" transform="translate(444)"/><use xlink:href="#m" transform="translate(944)"/></g><use xlink:href="#p" data-mml-node="mo" transform="matrix(1 0 0 -1 5852.5 4584)"/><g data-mml-node="mfrac"><use xlink:href="#q" data-mml-node="mi" transform="matrix(.707 0 0 -.707 6249.8 4190)"/><use xlink:href="#r" data-mml-node="mi" transform="matrix(.707 0 0 -.707 6239.2 4929)"/><path stroke="none" d="M6139.2 4364h624.3v-60h-624.3z"/></g></g><path stroke="none" d="M3556.7 3678h4284.6v-60H3556.7z"/></g><use xlink:href="#u" data-mml-node="mo" transform="matrix(1 0 0 -1 8183.5 3898)"/><use xlink:href="#k" data-mml-node="mi" transform="matrix(1 0 0 -1 9183.7 3898)"/></g></g></g></g></svg>