<svg xmlns="http://www.w3.org/2000/svg" xmlns:xlink="http://www.w3.org/1999/xlink" width="44.099ex" height="14.165ex" aria-hidden="true" viewBox="0 -3380.5 19491.8 6261"><defs><path id="a" d="M35 200q0 102 39 215t106 195 139 94h8q7 0 12 1 54-4 84-49 39-60 39-161 0-115-45-234T302 66 168-10h-7q-36 0-62 20T60 63t-19 67-6 70Zm348 366q0 102-53 102-36 0-70-45t-56-102-34-100-13-50q49-1 97-1l97 1q1 1 8 33t16 80 8 82ZM113 132q0-106 53-106 15 0 32 10t41 38 48 87 48 146l5 17H145q0-3-9-38t-16-78-7-76Z"/><path id="b" d="M79 43q-6 0-27 6T30 61q0 7 55 232t61 235q15 32 52 32 20 0 42-15t22-44q0-5-2-15-1-7-87-223T84 45t-5-2Z"/><path id="c" d="M56 347q0 13 14 20h637q15-8 15-20 0-11-14-19l-318-1H72q-16 5-16 20Zm0-194q0 15 16 20h636q14-10 14-20 0-13-15-20H70q-14 7-14 20Z"/><path id="d" d="M109 429q-27 0-43 18t-16 44q0 71 53 123t132 52q91 0 152-56t62-145q0-43-20-82t-48-68-80-74q-36-31-100-92l-59-56 76-1q157 0 167 5 7 2 24 89v3h40v-3q-1-3-13-91T421 3V0H50v31q0 7 6 15t30 35q29 32 50 56 9 10 34 37t34 37 29 33 28 34 23 30 21 32 15 29 13 32 7 30 3 33q0 63-34 109t-97 46q-33 0-58-17t-35-33-10-19q0-1 5-1 18 0 37-14t19-46q0-25-16-42t-45-18Z"/><path id="e" d="M132-11q-34 0-34 33v11l13 28q75 158 109 273l8 24h-32q-38 0-54-3t-39-19q-11-7-22-18t-19-21-9-12q-2-1-15-1-19 0-19 10 0 6 19 35t55 62 71 38q7 2 225 2 160 0 164-1 20-7 20-28 0-31-32-42-6-2-69-2h-64l-3-17q-12-72-12-119 0-52 9-93t19-64 10-28q0-17-14-32t-36-15q-11 0-18 3t-16 24-16 60q-1 9-1 44 0 49 9 105t18 92 10 40h-98l-1-4q0-3-19-79t-43-161-31-97q-11-28-43-28Z"/><path id="f" d="M21 287q1 6 3 16t12 38 20 47 33 37 46 17q36 0 60-18t30-34 6-21q0-2 1-2l11 11q61 64 139 64 54 0 87-27t34-79-38-157-38-127q0-26 17-26 6 0 9 1 29 5 52 38t35 80q2 8 20 8 20 0 20-8 0-1-4-15-8-29-22-57t-46-56-69-27q-47 0-68 27t-21 56q0 19 36 120t37 152q0 59-44 59h-5q-86 0-145-101l-7-12-33-134Q156 26 151 16q-13-27-43-27-13 0-21 6T76 7t-2 10q0 13 38 163t40 163q1 5 1 23 0 39-24 39-38 0-63-100-6-20-6-21-2-6-19-6H27q-6 6-6 9Z"/><path id="g" d="M131 289q0 32 16 65t56 61 97 27q62 0 90-27t29-60q0-32-17-47t-38-16q-13 0-24 8t-12 26q0 16 9 28t17 18 13 6q1 0 1 1 0 3-7 9t-25 11-39 6q-48 0-70-26t-23-53q0-25 19-35t55-17 52-15q66-29 66-96 0-28-11-56t-33-56-63-44-94-17q-77 0-109 29T53 87q0 39 21 56t44 17q15 0 28-9t14-31q0-26-18-44t-31-18q-2-1-3-1t-1-2q1-3 8-8t31-13 55-7q36 0 62 11t38 28 17 31 5 25q0 28-21 42t-48 17-59 15-47 35q-17 25-17 58Z"/><path id="h" d="M228 637q-34 0-36 4-1 2-1 8 0 24 11 33 2 1 15 1 54-3 127-3 141 0 162 3h12q6-6 6-9t-2-18q-5-15-9-19h-38q-69-1-81-9-7-4-14-28t-67-264q-16-65-34-138T252 88l-9-36q0-4 9-4t59-2h17q32 0 51 1t49 7 50 18 44 34 42 55q16 30 30 67t17 42q5 3 17 3h13q6-9 6-11t-20-59-44-120-26-74q-2-5-4-6t-16-3-43-1h-76q-65 0-124 1H116Q32 0 32 10q0 7 2 14 5 19 10 21 4 1 15 1h6q27 0 60 3 14 3 19 12 3 4 72 278t69 289q0 7-57 9Z"/><path id="i" d="M740 435q0-115-64-222T511 42 304-22q-97 0-166 57T51 201q-1 8-1 43 0 102 48 194t129 163q124 103 249 103 38 0 48-1 97-14 156-86t60-182Zm-103 41q0 89-46 139t-115 50q-80 0-154-60-80-63-122-177t-43-212q0-90 43-143t114-54q90 0 171 79t123 215q29 95 29 163Z"/><path id="j" d="M308 24q59 0 108 52t50 121q0 63-52 87-106 27-136 37t-42 20q-60 42-60 121 0 61 32 111t65 75q29 25 70 40t64 16h18q96 0 139-64 1 0 13 13t26 29 20 22h4q3 0 5 1 13 0 13-7t-28-121-32-118-16-3q-20 0-20 9 0 6 1 10 0 3 1 19t2 26q0 34-9 59t-18 37-25 25q-36 21-82 21-57 0-106-46t-50-106q0-30 15-52t41-31q4-2 70-19t67-18q34-11 66-48t32-100q0-26-8-56-5-22-18-49t-36-59-66-60-94-38q-12-2-34-2-99 0-154 55l-10 11-28-31Q83-14 78-18t-13-4q-13 0-13 8 0 3 58 235 2 6 20 6h13q6-6 6-11 0-2-1-9t-4-21-2-33q2-39 18-66t43-40 52-18 53-5Z"/><path id="k" d="M21 287q1 3 2 8t5 22 10 31 15 33 20 30 26 22 33 9q29 0 51-12t31-22 11-20q2-6 3-6t8 7q48 52 111 52h3q48 0 72-41 8-19 8-37 0-30-13-48t-26-23-25-4q-20 0-32 11t-12 29q0 48 56 64-22 13-36 13-56 0-103-74-10-16-15-33t-34-133Q156 25 151 16q-13-27-43-27-13 0-21 6T76 7t-2 10q0 13 40 172t40 177q0 39-26 39-21 0-36-28t-24-61-11-36q-2-2-16-2H27q-6 6-6 9Z"/><path id="l" d="M295 316q0 40-27 69t-78 29q-36 0-62-13-30-19-30-52-1-5 0-13t16-24 43-25q18-5 44-9t44-9 32-13q17-8 33-20t32-41 17-62q0-62-38-102T198-10h-8q-52 0-96 36l-8-7-9-9Q71 4 65-1L54-11H42q-3 0-9 6v137q0 21 2 25t10 5h9q12 0 16-4t5-12 7-27 19-42q35-51 97-51 97 0 97 78 0 29-18 47-20 24-83 36t-83 23q-36 17-57 46t-21 62q0 39 17 66t43 40 50 18 44 5h11q40 0 70-15l15-8 9 7q10 9 22 17h12q3 0 9-6V310l-6-6h-28q-6 6-6 12Z"/><path id="m" d="M69 609q0 28 18 44t44 16q23-2 40-17t17-43q0-30-17-45t-42-15q-25 0-42 15t-18 45ZM247 0q-15 3-104 3h-37Q80 3 56 1L34 0h-8v46h16q28 0 49 3 9 4 11 11t2 42v191q0 52-2 66t-14 19q-14 7-47 7H30v23q0 23 2 23l10 1q10 1 28 2t36 2 36 2 29 3 11 1h3V62q5-10 12-12t35-4h23V0h-8Z"/><path id="n" d="M41 46h14q39 0 47 14v62q0 17 1 39t0 42v66q0 35-1 59v23q-3 19-14 25t-45 9H25v23q0 23 2 23l10 1q10 1 28 2t37 2q17 1 36 2t29 3 11 1h3v-40q0-38 1-38t5 5 12 15 19 18 29 19 38 16q20 5 51 5 114-4 127-113 1-7 1-139v-86q0-38 2-45t11-10q21-3 49-3h16V0h-8l-24 1q-23 1-50 1t-38 1Q319 3 310 0h-8v46h16q61 0 61 16 1 2 1 138-1 135-2 143-6 28-20 42t-24 17-26 2q-45 0-79-34-27-27-34-55t-8-83V108q0-30 1-40t3-13 9-6q21-3 49-3h16V0h-8l-23 1q-24 1-51 1t-38 1Q42 3 33 0h-8v46h16Z"/><path id="p" d="M370 305h-21l-36 15-16 38q0 23 15 38 5 5 5 6t-10 2q-26 4-49 4-49 0-80-32-47-47-47-157 0-82 31-129 41-61 110-61 41 0 66 26t36 62q2 8 5 10t16 2h14q6-6 6-9 0-4-4-16t-16-33-29-38-48-31-69-13q-86 0-150 64T34 214q0 104 65 169t151 65 120-27 34-64q0-23-17-37Z"/><path id="q" d="M28 214q0 95 65 164t157 70q90 0 155-68t66-165q0-95-64-160T250-10q-97 0-159 67T28 214ZM250 30q122 0 122 163v57q0 22-1 38t-7 38-16 36-31 28-49 20q-5 1-16 1-30 0-57-12-43-22-56-61t-13-92v-20q0-96 19-135 32-61 105-61Z"/><path id="r" d="M434-231q0-13-6-19h-18q-129 0-180 66-5 7-8 12t-5 11-4 13-2 15-1 22-1 27 0 37 0 47v53q-1 89-5 100-1 1-1 2-14 36-50 56t-71 20q-11 0-14 3t-3 16 3 16 14 3q34 0 70 20t51 56q5 11 5 32t1 152v50q0 55 6 77t29 42q26 26 80 42 37 8 53 9h13q11 0 18 1h20q6-6 6-18 0-13-3-16-2-3-16-3-53-3-83-24t-36-42q-5-13-5-148v-82q0-47-3-64t-17-39q-31-43-87-59l-14-5 14-5q18-6 36-15t42-34 28-59q1-6 1-136 0-135 5-148 10-27 43-45t76-21q14 0 16-3 3-3 3-15Z"/><path id="s" d="M83 616q0 8 6 14t10 6q8 0 154-68t290-137 144-70q7-5 7-15t-7-15q-2-2-292-139L107 56h-6q-18 2-18 20v3q-1 7 15 16 19 10 150 72 78 37 130 61l248 118-266 126q-69 33-160 76-88 41-102 49t-15 19Zm1-734q0 10 15 20h579q16-6 16-20 0-12-15-20H98q-14 7-14 20Z"/><path id="t" d="M230 637q-27 0-32 1t-5 11q0 27 11 33 2 1 174 1 172-1 186-3 56-8 94-28t54-46 21-43 6-34q0-45-29-84t-67-60-67-34-38-13l7-5q67-38 67-110 0-11-5-61t-5-82v-9q0-18 1-28t11-18 26-9q28 0 46 22t26 47q5 14 8 17t15 3q20 0 20-12 0-18-24-57-38-57-90-57h-9q-61 0-101 25t-44 78q0 27 15 84t15 73q0 51-43 74-15 7-25 8t-71 2h-69l-32-130Q244 61 244 59q0-4 1-5t7-4 17-2 33-2h31q6-8 6-9t-3-18q-4-13-10-19h-15q-36 2-131 2H71Q54 2 50 1q-17 0-17 9 0 2 3 14 5 19 10 21 4 1 15 1h6q27 0 60 3 14 3 19 12 3 4 72 278t69 289q0 7-57 9Zm400-83q0 32-21 54t-86 28h-23q-21 0-38 1h-22q-47 0-54-10-1-3-34-133t-33-133q0-1 69-1 78 1 104 7 64 10 100 59 16 23 27 60t11 68Z"/><path id="u" d="M65 731q0 14 3 16t20 3q83 0 128-25t63-55q9-21 10-35t2-134q1-139 2-144 13-45 52-66t72-22q11 0 14-3t3-16-3-16-14-3q-37 0-72-21t-47-53q-5-14-6-36t-1-149v-51q0-55-6-77t-29-42q-54-52-167-52-18 0-21 3t-3 17v7q0 1 1 5t3 4 8 1q14 0 31 3t38 10 37 23 24 38q1 5 2 142l1 136q13 57 70 91 35 17 50 20-25 7-50 20-55 34-68 82l-2 10-1 136q-1 137-2 142-12 40-53 56t-77 17q-9 0-10 3t-2 15Z"/><path id="v" d="M56 237v13l14 20h299v150l1 150q10 13 19 13 13 0 20-15V270h298q15-8 15-20t-15-20H409V-68q-8-14-18-14h-4q-12 0-18 14v298H70q-14 7-14 20Z"/></defs><g fill="currentColor" stroke="currentColor" stroke-width="0" data-mml-node="math"><g data-mml-node="mtable"><g data-mml-node="mtr"><g data-mml-node="mtd"><g data-mml-node="msup"><use xlink:href="#a" data-mml-node="mi" transform="matrix(1 0 0 -1 1282.7 -1999.5)"/><use xlink:href="#b" data-mml-node="mo" transform="matrix(.707 0 0 -.707 1751.7 -2412.5)"/></g></g><g data-mml-node="mtd"><use xlink:href="#c" data-mml-node="mo" transform="matrix(1 0 0 -1 2273.9 -1999.5)"/><g data-mml-node="mfrac"><use xlink:href="#a" data-mml-node="mi" transform="matrix(1 0 0 -1 3565.2 -2675.5)"/><use xlink:href="#d" data-mml-node="mn" transform="matrix(1 0 0 -1 3549.7 -1313.5)"/><path stroke="none" d="M3449.7-2219.5h700v-60h-700z"/></g><use xlink:href="#c" data-mml-node="mo" transform="matrix(1 0 0 -1 4547.4 -1999.5)"/><g data-mml-node="mfrac"><use xlink:href="#e" data-mml-node="mi" transform="matrix(1 0 0 -1 5838.2 -2675.5)"/><use xlink:href="#f" data-mml-node="mi" transform="matrix(1 0 0 -1 5823.2 -1313.5)"/><path stroke="none" d="M5723.2-2219.5h800v-60h-800z"/></g></g><g data-mml-node="mtd"><g data-mml-node="mo" font-family="serif" font-size="884"><text data-variant="normal" transform="translate(15071.8 -1999.5)">半</text><text data-variant="normal" transform="translate(15955.8 -1999.5)">相</text><text data-variant="normal" transform="translate(16839.8 -1999.5)">位</text><text data-variant="normal" transform="translate(17723.8 -1999.5)">差</text></g></g></g><g data-mml-node="mtr"><g data-mml-node="mtd"><g data-mml-node="msub"><use xlink:href="#g" data-mml-node="mi" transform="matrix(1 0 0 -1 0 -193.5)"/><g data-mjx-texclass="ORD" data-mml-node="TeXAtom"><use xlink:href="#h" data-mml-node="mi" transform="matrix(.707 0 0 -.707 469 -43.5)"/><use xlink:href="#i" data-mml-node="mi" transform="matrix(.707 0 0 -.707 950.467 -43.5)"/><use xlink:href="#j" data-mml-node="mi" transform="matrix(.707 0 0 -.707 1489.908 -43.5)"/></g></g></g><g data-mml-node="mtd"><use xlink:href="#c" data-mml-node="mo" transform="matrix(1 0 0 -1 2273.9 -193.5)"/><use xlink:href="#k" data-mml-node="mi" transform="matrix(1 0 0 -1 3329.7 -193.5)"/><g data-mml-node="mi" transform="matrix(1 0 0 -1 3947.3 -193.5)"><use xlink:href="#l"/><use xlink:href="#m" transform="translate(394)"/><use xlink:href="#n" transform="translate(672)"/></g><use xlink:href="#o" data-mml-node="mo" transform="matrix(1 0 0 -1 5175.3 -193.5)"/><g data-mml-node="msup"><use xlink:href="#a" data-mml-node="mi" transform="matrix(1 0 0 -1 5342 -193.5)"/><use xlink:href="#b" data-mml-node="mo" transform="matrix(.707 0 0 -.707 5811 -606.5)"/></g></g><g data-mml-node="mtd"><g data-mml-node="mo" font-family="serif" font-size="884"><text data-variant="normal" transform="translate(15071.8 -193.5)">半</text><text data-variant="normal" transform="translate(15955.8 -193.5)">目</text><text data-variant="normal" transform="translate(16839.8 -193.5)">视</text><text data-variant="normal" transform="translate(17723.8 -193.5)">距</text><text data-variant="normal" transform="translate(18607.8 -193.5)">离</text></g></g></g><g data-mml-node="mtr"><g data-mml-node="mtd"><g data-mml-node="msub"><use xlink:href="#k" data-mml-node="mi" transform="matrix(1 0 0 -1 18 1165.5)"/><g data-mjx-texclass="ORD" data-mml-node="TeXAtom"><use xlink:href="#h" data-mml-node="mi" transform="matrix(.707 0 0 -.707 469 1315.5)"/><use xlink:href="#i" data-mml-node="mi" transform="matrix(.707 0 0 -.707 950.467 1315.5)"/><use xlink:href="#j" data-mml-node="mi" transform="matrix(.707 0 0 -.707 1489.908 1315.5)"/></g></g></g><g data-mml-node="mtd"><use xlink:href="#c" data-mml-node="mo" transform="matrix(1 0 0 -1 2273.9 1165.5)"/><use xlink:href="#k" data-mml-node="mi" transform="matrix(1 0 0 -1 3329.7 1165.5)"/><g data-mml-node="mi" transform="matrix(1 0 0 -1 3947.3 1165.5)"><use xlink:href="#p"/><use xlink:href="#q" transform="translate(444)"/><use xlink:href="#l" transform="translate(944)"/></g><use xlink:href="#o" data-mml-node="mo" transform="matrix(1 0 0 -1 5285.3 1165.5)"/><g data-mml-node="msup"><use xlink:href="#a" data-mml-node="mi" transform="matrix(1 0 0 -1 5452 1165.5)"/><use xlink:href="#b" data-mml-node="mo" transform="matrix(.707 0 0 -.707 5921 752.5)"/></g><use xlink:href="#r" data-mml-node="mo" transform="matrix(1 0 0 -1 6165.4 1165.5)"/><use xlink:href="#s" data-mml-node="mo" transform="matrix(1 0 0 -1 6665.4 1165.5)"/><use xlink:href="#t" data-mml-node="mi" transform="matrix(1 0 0 -1 7721.2 1165.5)"/><g data-mml-node="mo" font-family="serif" font-size="884"><text data-variant="normal" transform="translate(8758 1165.5)">赤</text><text data-variant="normal" transform="translate(9642 1165.5)">道</text><text data-variant="normal" transform="translate(10526 1165.5)">半</text><text data-variant="normal" transform="translate(11410 1165.5)">径</text></g><use xlink:href="#u" data-mml-node="mo" transform="matrix(1 0 0 -1 12294 1165.5)"/></g><g data-mml-node="mtd"><g data-mml-node="mo" font-family="serif" font-size="884"><text data-variant="normal" transform="translate(15071.8 1165.5)">容</text><text data-variant="normal" transform="translate(15955.8 1165.5)">忍</text><text data-variant="normal" transform="translate(16839.8 1165.5)">半</text><text data-variant="normal" transform="translate(17723.8 1165.5)">径</text></g></g></g><g data-mml-node="mtr"><g data-mml-node="mtd"><g data-mml-node="msup"><use xlink:href="#k" data-mml-node="mi" transform="matrix(1 0 0 -1 1141.6 2599.4)"/><use xlink:href="#d" data-mml-node="mn" transform="matrix(.707 0 0 -.707 1592.6 2186.4)"/></g></g><g data-mml-node="mtd"><use xlink:href="#c" data-mml-node="mo" transform="matrix(1 0 0 -1 2273.9 2599.4)"/><g data-mml-node="msubsup"><use xlink:href="#k" data-mml-node="mi" transform="matrix(1 0 0 -1 3329.7 2599.4)"/><use xlink:href="#d" data-mml-node="mn" transform="matrix(.707 0 0 -.707 3780.7 2186.4)"/><g data-mjx-texclass="ORD" data-mml-node="TeXAtom"><use xlink:href="#h" data-mml-node="mi" transform="matrix(.707 0 0 -.707 3780.7 2864.9)"/><use xlink:href="#i" data-mml-node="mi" transform="matrix(.707 0 0 -.707 4262.167 2864.9)"/><use xlink:href="#j" data-mml-node="mi" transform="matrix(.707 0 0 -.707 4801.608 2864.9)"/></g></g><use xlink:href="#v" data-mml-node="mo" transform="matrix(1 0 0 -1 5530 2599.4)"/><g data-mml-node="msubsup"><use xlink:href="#g" data-mml-node="mi" transform="matrix(1 0 0 -1 6530.2 2599.4)"/><use xlink:href="#d" data-mml-node="mn" transform="matrix(.707 0 0 -.707 6999.2 2186.4)"/><g data-mjx-texclass="ORD" data-mml-node="TeXAtom"><use xlink:href="#h" data-mml-node="mi" transform="matrix(.707 0 0 -.707 6999.2 2864.9)"/><use xlink:href="#i" data-mml-node="mi" transform="matrix(.707 0 0 -.707 7480.667 2864.9)"/><use xlink:href="#j" data-mml-node="mi" transform="matrix(.707 0 0 -.707 8020.108 2864.9)"/></g></g></g><g data-mml-node="mtd"><g data-mml-node="mo" font-family="serif" font-size="884"><text data-variant="normal" transform="translate(15071.8 2599.4)">长</text><text data-variant="normal" transform="translate(15955.8 2599.4)">度</text><text data-variant="normal" transform="translate(16839.8 2599.4)">关</text><text data-variant="normal" transform="translate(17723.8 2599.4)">系</text></g></g></g></g></g></svg>