<svg xmlns="http://www.w3.org/2000/svg" xmlns:xlink="http://www.w3.org/1999/xlink" width="16.066ex" height="18.1ex" aria-hidden="true" viewBox="0 -4250 7101 8000"><defs><path id="a" d="m712 899 6-6v-28q0-11-14-19-77-53-127-136t-67-185q0-1-1-4-4-28-5-172V240q0-242-1-244-1-4-9-5t-50-1q-52 0-54 1-3 1-4 4-2 10-2 235v82q0 50-1 70 0 99 9 153t42 121q76 150 230 236l13 7h35Z"/><path id="b" d="m718-893-6-6h-35l-11 6q-124 68-198 179t-83 238q-1 10-1 194 0 285 1 287l4 4q3 1 55 1 42 0 50-1t9-5q1-2 1-243v-127q0-104 4-147t22-96q16-48 39-89t48-69 44-45 38-31 18-13 1-20v-17Z"/><path id="c" d="M389 1159q2 1 66 1 41 0 43-1 3-1 4-4 2-10 2-231 0-233-1-242-9-133-78-243T243 259l-14-9 14-9q106-66 178-175t82-248q1-9 1-242v-205q0-29-5-30h-1q-2-1-54-1t-54 1q-3 1-4 4-2 10-2 230v143q0 106-7 166T342 10q-17 44-41 82t-46 63-41 41-31 26-12 10q-1 1-1 18t1 18q0 1 20 16t49 47 60 76 54 117 29 155q1 12 1 246 0 227 1 230l4 4Z"/><path id="d" d="M384 150v116q0 38 5 43 2 1 66 1 41 0 43-1 4-1 5-11 1-15 1-148V12q0-20-5-21h-1q-2-1-54-1t-54 1q-4 1-5 11-1 15-1 148Z"/><path id="e" d="M21 287q1 6 3 16t12 38 20 47 33 37 46 17q36 0 60-18t30-34 6-21q0-2 1-2l11 11q61 64 139 64 54 0 87-27t34-79-38-157-38-127q0-26 17-26 6 0 9 1 29 5 52 38t35 80q2 8 20 8 20 0 20-8 0-1-4-15-8-29-22-57t-46-56-69-27q-47 0-68 27t-21 56q0 19 36 120t37 152q0 59-44 59h-5q-86 0-145-101l-7-12-33-134Q156 26 151 16q-13-27-43-27-13 0-21 6T76 7t-2 10q0 13 38 163t40 163q1 5 1 23 0 39-24 39-38 0-63-100-6-20-6-21-2-6-19-6H27q-6 6-6 9Z"/><path id="f" d="M56 347q0 13 14 20h637q15-8 15-20 0-11-14-19l-318-1H72q-16 5-16 20Zm0-194q0 15 16 20h636q14-10 14-20 0-13-15-20H70q-14 7-14 20Z"/><path id="g" d="M42 313q0 163 81 258t180 95q69 0 99-36t30-80q0-25-14-40t-39-15q-23 0-38 14t-15 39q0 44 47 53-22 22-62 25-71 0-117-60-47-66-47-202l1-4q5 6 8 13 41 60 107 60h4q46 0 81-19 24-14 48-40t39-57q21-49 21-107v-18q0-23-5-43-11-59-64-115T253-22q-28 0-54 8t-56 30-51 59-36 97-14 141Zm215 84q-30 0-52-17t-34-45-17-57-6-62q0-83 12-119t38-58q24-18 53-18 51 0 78 38 13 18 18 45t5 105q0 80-5 107t-18 45q-27 36-72 36Z"/><path id="h" d="M52 289q7 42 54 97t116 56q35 0 64-18t43-45q42 63 101 63 37 0 64-22t28-59q0-29-14-47t-27-22-23-4q-19 0-31 11t-12 29q0 46 50 63-11 13-40 13-13 0-19-2-38-16-56-66-60-221-60-258 0-28 16-40t35-12q37 0 73 33t49 81q3 10 6 11t16 2h4q15 0 15-8 0-1-2-11-16-57-62-101T333-11q-70 0-106 63-41-62-94-62h-6q-49 0-70 26T35 71q0 32 19 52t45 20q43 0 43-42 0-20-12-35t-23-20-13-5l-3-1q0-1 6-4t16-7 19-3q36 0 62 45 9 16 23 68t28 108 16 66q5 27 5 39 0 28-15 40t-34 12q-40 0-75-32t-49-82q-2-9-5-10t-16-2H58q-6 6-6 11Z"/><path id="i" d="M109 429q-27 0-43 18t-16 44q0 71 53 123t132 52q91 0 152-56t62-145q0-43-20-82t-48-68-80-74q-36-31-100-92l-59-56 76-1q157 0 167 5 7 2 24 89v3h40v-3q-1-3-13-91T421 3V0H50v31q0 7 6 15t30 35q29 32 50 56 9 10 34 37t34 37 29 33 28 34 23 30 21 32 15 29 13 32 7 30 3 33q0 63-34 109t-97 46q-33 0-58-17t-35-33-10-19q0-1 5-1 18 0 37-14t19-46q0-25-16-42t-45-18Z"/><path id="j" d="M21 287q0 14 15 48t48 71 74 36q41 0 66-23t26-64q-2-19-3-21 0-3-16-46t-33-97-16-86q0-43 14-60t42-18q23 0 43 11t31 23 27 33q0 1 5 20t14 59 19 74q38 150 42 157 13 27 43 27 13 0 21-7t11-12 2-9q0-13-49-210T391-23q-28-83-97-132t-138-50q-45 0-79 22t-34 66q0 22 7 37t19 22 20 10 17 3q44 0 44-42 0-20-12-35t-23-20-13-5l-3-1q2-5 19-12t34-7h8q17 0 26 2 33 9 61 38t43 62 23 56 8 30l-6-4q-6-4-19-11T270-6q-20-5-39-5-46 0-81 22t-46 71q-1 7-1 31 0 57 35 149t35 117v14q0 3-4 7t-11 4h-4q-23 0-42-19t-30-41-17-42-8-22q-2-2-16-2H27q-6 6-6 9Z"/><path id="k" d="M580 514q0 11 16 11h13q2 0 4-1t2-1 2-3 2-3 3-5q37-74 98-131t111-81 96-37q17-5 17-13t-9-11-37-11-58-24Q696 134 622-12q-4-9-7-10t-15-2q-20 0-20 7 0 4 5 17 35 69 86 123l10 10H70q-14 7-14 20 0 15 16 20h653l10 8q39 30 117 69-1 1-18 9t-45 24-54 36l-10 8H72q-16 5-16 20 0 13 14 20h611l-10 10q-33 35-62 81t-29 56Z"/><path id="l" d="m213 578-13-5q-14-5-40-10t-58-7H83v46h19q47 2 87 15t56 24 28 22q2 3 12 3 9 0 17-6V361l1-300q7-7 12-9t24-4 62-2h26V0h-11q-21 3-159 3-136 0-157-3H88v46h64q16 0 25 1t16 3 8 2 6 5 6 4v517Z"/><path id="m" d="M229 286q-13 134-13 150 0 18 24 28h5q4 0 6 1 12-1 22-9t10-20q0-17-6-80t-7-70l58 42q56 41 61 44t10 3q13 0 24-10t12-27q0-13-10-23-5-3-68-33t-68-32l66-31 70-35q9-9 9-23 0-15-9-25t-24-11q-8 0-18 6t-55 40l-58 42q13-134 13-150 0-10-7-19t-26-9q-19 0-26 9t-8 19q0 17 6 80t7 70l-58-42q-56-41-61-44-4-3-10-3-13 0-24 10t-12 27v8q0 3 3 6t5 6 9 7 13 7 19 9 25 11 32 15 40 20L74 315q-9 9-9 23 0 15 9 25t24 11q8 0 18-6t55-40l58-42Z"/><path id="n" d="M127 463q-27 0-42 17t-16 44q0 55 48 98t116 43q35 0 44-1 74-12 113-53t40-89q0-52-34-101t-94-71l-3-2q0-1 9-3t29-9 38-21q82-53 82-140 0-79-62-138T238-22q-80 0-138 43T42 130q0 28 18 45t45 18q28 0 46-18t18-45q0-11-3-20t-7-16-11-12-12-8-10-4-8-3l-4-1q51-45 124-45 55 0 83 53 17 33 17 101v20q0 95-64 127-15 6-61 7l-42 1-3 2q-2 3-2 16 0 18 8 18 28 0 58 5 34 5 62 42t28 112v8q0 57-35 79-22 14-47 14-32 0-59-11t-38-23-11-12h3q3-1 8-2t10-5 12-7 10-11 8-15 3-20q0-22-14-39t-45-18Z"/></defs><g fill="currentColor" stroke="currentColor" stroke-width="0" data-mml-node="math"><g data-mml-node="mtable"><g data-mml-node="mtr"><g data-mml-node="mtd"><g data-mml-node="mrow"><g data-mml-node="mo" transform="matrix(1 0 0 -1 0 -2100)"><use xlink:href="#a" transform="translate(0 1251)"/><use xlink:href="#b" transform="translate(0 -751)"/><use xlink:href="#c"/><svg width="889" height="281" y="1060" viewBox="0 49.5 889 281"><use xlink:href="#d" transform="scale(1 1.382)"/></svg><svg width="889" height="281" y="-841" viewBox="0 49.5 889 281"><use xlink:href="#d" transform="scale(1 1.382)"/></svg></g><g data-mml-node="mtable"><g data-mml-node="mtr"><g data-mml-node="mtd"><use xlink:href="#e" data-mml-node="mi" transform="matrix(1 0 0 -1 889 -3500)"/></g><g data-mml-node="mtd"><use xlink:href="#f" data-mml-node="mo" transform="matrix(1 0 0 -1 2489 -3500)"/><use xlink:href="#g" data-mml-node="mn" transform="matrix(1 0 0 -1 3544.8 -3500)"/></g></g><g data-mml-node="mtr"><g data-mml-node="mtd"><use xlink:href="#h" data-mml-node="mi" transform="matrix(1 0 0 -1 903 -2100)"/></g><g data-mml-node="mtd"><use xlink:href="#f" data-mml-node="mo" transform="matrix(1 0 0 -1 2489 -2100)"/><use xlink:href="#i" data-mml-node="mn" transform="matrix(1 0 0 -1 3544.8 -2100)"/></g></g><g data-mml-node="mtr"><g data-mml-node="mtd"><use xlink:href="#j" data-mml-node="mi" transform="matrix(1 0 0 -1 944 -700)"/></g><g data-mml-node="mtd"><use xlink:href="#f" data-mml-node="mo" transform="matrix(1 0 0 -1 2489 -700)"/><use xlink:href="#i" data-mml-node="mn" transform="matrix(1 0 0 -1 3544.8 -700)"/></g></g></g></g><use xlink:href="#k" data-mml-node="mo" transform="matrix(1 0 0 -1 4322.6 -2100)"/><g data-mml-node="mfrac"><use xlink:href="#l" data-mml-node="mn" transform="matrix(.707 0 0 -.707 6173.9 -2494)"/><g data-mml-node="mrow"><use xlink:href="#i" data-mml-node="mn" transform="matrix(.707 0 0 -.707 5820.3 -1755)"/><use xlink:href="#m" data-mml-node="mo" transform="matrix(.707 0 0 -.707 6173.8 -1755)"/><use xlink:href="#n" data-mml-node="mn" transform="matrix(.707 0 0 -.707 6527.3 -1755)"/></g><path stroke="none" d="M5720.3-2320H6981v-60H5720.3z"/></g></g></g><g data-mml-node="mtr"><g data-mml-node="mtd"><g data-mml-node="mrow"><g data-mml-node="mo" transform="matrix(1 0 0 -1 0 2100)"><use xlink:href="#a" transform="translate(0 1251)"/><use xlink:href="#b" transform="translate(0 -751)"/><use xlink:href="#c"/><svg width="889" height="281" y="1060" viewBox="0 49.5 889 281"><use xlink:href="#d" transform="scale(1 1.382)"/></svg><svg width="889" height="281" y="-841" viewBox="0 49.5 889 281"><use xlink:href="#d" transform="scale(1 1.382)"/></svg></g><g data-mml-node="mtable"><g data-mml-node="mtr"><g data-mml-node="mtd"><use xlink:href="#e" data-mml-node="mi" transform="matrix(1 0 0 -1 889 700)"/></g><g data-mml-node="mtd"><use xlink:href="#f" data-mml-node="mo" transform="matrix(1 0 0 -1 2489 700)"/><use xlink:href="#g" data-mml-node="mn" transform="matrix(1 0 0 -1 3544.8 700)"/></g></g><g data-mml-node="mtr"><g data-mml-node="mtd"><use xlink:href="#h" data-mml-node="mi" transform="matrix(1 0 0 -1 903 2100)"/></g><g data-mml-node="mtd"><use xlink:href="#f" data-mml-node="mo" transform="matrix(1 0 0 -1 2489 2100)"/><use xlink:href="#l" data-mml-node="mn" transform="matrix(1 0 0 -1 3544.8 2100)"/></g></g><g data-mml-node="mtr"><g data-mml-node="mtd"><use xlink:href="#j" data-mml-node="mi" transform="matrix(1 0 0 -1 944 3500)"/></g><g data-mml-node="mtd"><use xlink:href="#f" data-mml-node="mo" transform="matrix(1 0 0 -1 2489 3500)"/><use xlink:href="#l" data-mml-node="mn" transform="matrix(1 0 0 -1 3544.8 3500)"/></g></g></g></g><use xlink:href="#k" data-mml-node="mo" transform="matrix(1 0 0 -1 4322.6 2100)"/><g data-mml-node="mfrac"><use xlink:href="#l" data-mml-node="mn" transform="matrix(.707 0 0 -.707 6173.9 1706)"/><g data-mml-node="mrow"><use xlink:href="#l" data-mml-node="mn" transform="matrix(.707 0 0 -.707 5820.3 2445)"/><use xlink:href="#m" data-mml-node="mo" transform="matrix(.707 0 0 -.707 6173.8 2445)"/><use xlink:href="#g" data-mml-node="mn" transform="matrix(.707 0 0 -.707 6527.3 2445)"/></g><path stroke="none" d="M5720.3 1880H6981v-60H5720.3z"/></g></g></g></g></g></svg>