<svg xmlns="http://www.w3.org/2000/svg" xmlns:xlink="http://www.w3.org/1999/xlink" width="41.234ex" height="8.145ex" aria-hidden="true" viewBox="0 -2050 18225.2 3600"><defs><path id="a" d="m712 899 6-6v-28q0-11-14-19-77-53-127-136t-67-185q0-1-1-4-4-28-5-172V240q0-242-1-244-1-4-9-5t-50-1q-52 0-54 1-3 1-4 4-2 10-2 235v82q0 50-1 70 0 99 9 153t42 121q76 150 230 236l13 7h35Z"/><path id="b" d="m718-893-6-6h-35l-11 6q-124 68-198 179t-83 238q-1 10-1 194 0 285 1 287l4 4q3 1 55 1 42 0 50-1t9-5q1-2 1-243v-127q0-104 4-147t22-96q16-48 39-89t48-69 44-45 38-31 18-13 1-20v-17Z"/><path id="c" d="M389 1159q2 1 66 1 41 0 43-1 3-1 4-4 2-10 2-231 0-233-1-242-9-133-78-243T243 259l-14-9 14-9q106-66 178-175t82-248q1-9 1-242v-205q0-29-5-30h-1q-2-1-54-1t-54 1q-3 1-4 4-2 10-2 230v143q0 106-7 166T342 10q-17 44-41 82t-46 63-41 41-31 26-12 10q-1 1-1 18t1 18q0 1 20 16t49 47 60 76 54 117 29 155q1 12 1 246 0 227 1 230l4 4Z"/><path id="d" d="M384 150v116q0 38 5 43 2 1 66 1 41 0 43-1 4-1 5-11 1-15 1-148V12q0-20-5-21h-1q-2-1-54-1t-54 1q-4 1-5 11-1 15-1 148Z"/><path id="e" d="M21 287q1 6 3 16t12 38 20 47 33 37 46 17q36 0 60-18t30-34 6-21q0-2 1-2l11 11q61 64 139 64 54 0 87-27t34-79-38-157-38-127q0-26 17-26 6 0 9 1 29 5 52 38t35 80q2 8 20 8 20 0 20-8 0-1-4-15-8-29-22-57t-46-56-69-27q-47 0-68 27t-21 56q0 19 36 120t37 152q0 59-44 59h-5q-86 0-145-101l-7-12-33-134Q156 26 151 16q-13-27-43-27-13 0-21 6T76 7t-2 10q0 13 38 163t40 163q1 5 1 23 0 39-24 39-38 0-63-100-6-20-6-21-2-6-19-6H27q-6 6-6 9Z"/><path id="f" d="M84 520q0 8 4 13t8 6l3 1q7 0 154-69t291-137l143-69q7-5 7-15t-7-15q-2-2-292-139L107-40h-6q-18 2-18 20v3q-1 7 15 16 19 10 150 72 78 37 130 61l248 118-248 118Q90 504 86 509q-2 4-2 11Z"/><path id="g" d="m213 578-13-5q-14-5-40-10t-58-7H83v46h19q47 2 87 15t56 24 28 22q2 3 12 3 9 0 17-6V361l1-300q7-7 12-9t24-4 62-2h26V0h-11q-21 3-159 3-136 0-157-3H88v46h64q16 0 25 1t16 3 8 2 6 5 6 4v517Z"/><path id="h" d="M52 289q7 42 54 97t116 56q35 0 64-18t43-45q42 63 101 63 37 0 64-22t28-59q0-29-14-47t-27-22-23-4q-19 0-31 11t-12 29q0 46 50 63-11 13-40 13-13 0-19-2-38-16-56-66-60-221-60-258 0-28 16-40t35-12q37 0 73 33t49 81q3 10 6 11t16 2h4q15 0 15-8 0-1-2-11-16-57-62-101T333-11q-70 0-106 63-41-62-94-62h-6q-49 0-70 26T35 71q0 32 19 52t45 20q43 0 43-42 0-20-12-35t-23-20-13-5l-3-1q0-1 6-4t16-7 19-3q36 0 62 45 9 16 23 68t28 108 16 66q5 27 5 39 0 28-15 40t-34 12q-40 0-75-32t-49-82q-2-9-5-10t-16-2H58q-6 6-6 11Z"/><path id="i" d="M78 35v25l16 43 43 18q28 0 50-25t23-88q0-35-9-68t-21-57-26-41-24-27-13-9q-4 0-13 9t-9 13q0 4 11 16t25 30 26 50 16 73V9l-1-1q-2-1-5-2t-6-3-9-2-12-1q-27 0-44 17Z"/><path id="j" d="M21 287q0 14 15 48t48 71 74 36q41 0 66-23t26-64q-2-19-3-21 0-3-16-46t-33-97-16-86q0-43 14-60t42-18q23 0 43 11t31 23 27 33q0 1 5 20t14 59 19 74q38 150 42 157 13 27 43 27 13 0 21-7t11-12 2-9q0-13-49-210T391-23q-28-83-97-132t-138-50q-45 0-79 22t-34 66q0 22 7 37t19 22 20 10 17 3q44 0 44-42 0-20-12-35t-23-20-13-5l-3-1q2-5 19-12t34-7h8q17 0 26 2 33 9 61 38t43 62 23 56 8 30l-6-4q-6-4-19-11T270-6q-20-5-39-5-46 0-81 22t-46 71q-1 7-1 31 0 57 35 149t35 117v14q0 3-4 7t-11 4h-4q-23 0-42-19t-30-41-17-42-8-22q-2-2-16-2H27q-6 6-6 9Z"/><path id="k" d="M84 250q0 122 82 200t194 89h17q16 0 42 1t50 0h99q15-8 15-20 0-9-13-19l-104-1q-111-1-137-6-49-12-87-36t-59-49-36-55-18-48-5-34v-2h444q15-8 15-20t-15-20H124v-2q0-21 10-51t33-65 64-64 97-41q27-6 138-7h104q13-10 13-20 0-12-15-20H446q-18 0-29-1-155 0-245 86-88 82-88 205Z"/><path id="l" d="M20 664q0 2 11 19h111q114 0 116-2 1-1 21-28t63-81 80-104l160-209v231q0 39 1 51 0 70-10 87t-51 20q-22 0-29 6-9 11 0 25l7 4h191q11-7 11-17 0-9-4-14-10-4-18-4-47 0-53-36-3-11-3-318V-8q-8-12-17-12-6 0-11 5-3 2-225 285L156 548l-3-229v-85q0-50-1-67 0-64 4-89t16-34 41-10q23 0 29-6 11-11 0-25l-6-4H36Q24 6 24 16q0 18 32 18 2 1 13 2t17 4 14 10 9 22q2 11 2 273v258l-15 16q-24 24-52 29-24 0-24 16Zm393-245L240 648H120l16-20q1-2 225-287T587 54l2 14v124L413 419Z"/><path id="m" d="M229 286q-13 134-13 150 0 18 24 28h5q4 0 6 1 12-1 22-9t10-20q0-17-6-80t-7-70l58 42q56 41 61 44t10 3q13 0 24-10t12-27q0-13-10-23-5-3-68-33t-68-32l66-31 70-35q9-9 9-23 0-15-9-25t-24-11q-8 0-18 6t-55 40l-58 42q13-134 13-150 0-10-7-19t-26-9q-19 0-26 9t-8 19q0 17 6 80t7 70l-58-42q-56-41-61-44-4-3-10-3-13 0-24 10t-12 27v8q0 3 3 6t5 6 9 7 13 7 19 9 25 11 32 15 40 20L74 315q-9 9-9 23 0 15 9 25t24 11q8 0 18-6t55-40l58-42Z"/><path id="n" d="M94 250q0 69 10 131t23 107 37 88 38 67 42 52 33 34 25 21h17q14 0 14-9 0-3-17-21t-41-53-49-86-42-138-17-193 17-192 41-139 49-86 42-53 17-21q0-9-15-9h-16l-28 24q-94 85-137 212T94 250Z"/><path id="o" d="m60 749 4 1h22l28-24q94-85 137-212t43-264q0-68-10-131T261 12t-37-88-38-67-41-51-32-33-23-19l-4-4H63q-3 0-5 3t-3 9q1 1 11 13Q221-64 221 250T66 725q-10 12-11 13 0 8 5 11Z"/><path id="p" d="M56 347q0 13 14 20h637q15-8 15-20 0-11-14-19l-318-1H72q-16 5-16 20Zm0-194q0 15 16 20h636q14-10 14-20 0-13-15-20H70q-14 7-14 20Z"/></defs><g fill="currentColor" stroke="currentColor" stroke-width="0" data-mml-node="math"><g data-mml-node="mrow"><g data-mml-node="mo" transform="scale(1 -1)"><use xlink:href="#a" transform="translate(0 1151)"/><use xlink:href="#b" transform="translate(0 -651)"/><use xlink:href="#c"/><svg width="889" height="181" y="1060" viewBox="0 31.9 889 181"><use xlink:href="#d" transform="scale(1 .89)"/></svg><svg width="889" height="181" y="-741" viewBox="0 31.9 889 181"><use xlink:href="#d" transform="scale(1 .89)"/></svg></g><g data-mml-node="mtable"><g data-mml-node="mtr"><g data-mml-node="mtd"><use xlink:href="#e" data-mml-node="mi" transform="matrix(1 0 0 -1 889 -1300)"/><use xlink:href="#f" data-mml-node="mo" transform="matrix(1 0 0 -1 1766.8 -1300)"/><use xlink:href="#g" data-mml-node="mn" transform="matrix(1 0 0 -1 2822.6 -1300)"/></g><g data-mml-node="mtd"><g data-mml-node="mo" font-family="serif" font-size="884"><text data-variant="normal" transform="translate(8329.7 -1300)">部</text><text data-variant="normal" transform="translate(9213.7 -1300)">署</text><text data-variant="normal" transform="translate(10097.7 -1300)">数</text><text data-variant="normal" transform="translate(10981.7 -1300)">量</text><text data-variant="normal" transform="translate(11865.7 -1300)">大</text><text data-variant="normal" transform="translate(12749.7 -1300)">于</text></g><use xlink:href="#g" data-mml-node="mn" transform="matrix(1 0 0 -1 13911.5 -1300)"/><g data-mml-node="mo" font-family="serif" font-size="884"><text data-variant="normal" transform="translate(14689.2 -1300)">才</text><text data-variant="normal" transform="translate(15573.2 -1300)">有</text><text data-variant="normal" transform="translate(16457.2 -1300)">意</text><text data-variant="normal" transform="translate(17341.2 -1300)">义</text></g></g></g><g data-mml-node="mtr"><g data-mml-node="mtd"><use xlink:href="#h" data-mml-node="mi" transform="matrix(1 0 0 -1 889 0)"/><use xlink:href="#i" data-mml-node="mo" transform="matrix(1 0 0 -1 1461 0)"/><use xlink:href="#j" data-mml-node="mi" transform="matrix(1 0 0 -1 1905.7 0)"/><use xlink:href="#i" data-mml-node="mo" transform="matrix(1 0 0 -1 2395.7 0)"/><use xlink:href="#e" data-mml-node="mi" transform="matrix(1 0 0 -1 2840.3 0)"/><use xlink:href="#k" data-mml-node="mo" transform="matrix(1 0 0 -1 3718.1 0)"/><g data-mml-node="msup"><g data-mjx-texclass="ORD" data-mml-node="TeXAtom"><use xlink:href="#l" data-mml-node="mi" transform="matrix(1 0 0 -1 4662.9 0)"/></g><use xlink:href="#m" data-mml-node="mo" transform="matrix(.707 0 0 -.707 5384.9 -413)"/></g></g><g data-mml-node="mtd"><g data-mml-node="mo" font-family="serif" font-size="884"><text data-variant="normal" transform="translate(8329.7)">系</text><text data-variant="normal" transform="translate(9213.7)">数</text><text data-variant="normal" transform="translate(10097.7)">都</text><text data-variant="normal" transform="translate(10981.7)">是</text><text data-variant="normal" transform="translate(11865.7)">正</text><text data-variant="normal" transform="translate(12749.7)">整</text><text data-variant="normal" transform="translate(13633.7)">数</text></g></g></g><g data-mml-node="mtr"><g data-mml-node="mtd"><use xlink:href="#n" data-mml-node="mo" transform="matrix(1 0 0 -1 889 1300)"/><use xlink:href="#h" data-mml-node="mi" transform="matrix(1 0 0 -1 1278 1300)"/><use xlink:href="#i" data-mml-node="mo" transform="matrix(1 0 0 -1 1850 1300)"/><use xlink:href="#j" data-mml-node="mi" transform="matrix(1 0 0 -1 2294.7 1300)"/><use xlink:href="#i" data-mml-node="mo" transform="matrix(1 0 0 -1 2784.7 1300)"/><use xlink:href="#e" data-mml-node="mi" transform="matrix(1 0 0 -1 3229.3 1300)"/><use xlink:href="#o" data-mml-node="mo" transform="matrix(1 0 0 -1 3829.3 1300)"/><use xlink:href="#p" data-mml-node="mo" transform="matrix(1 0 0 -1 4496.1 1300)"/><use xlink:href="#g" data-mml-node="mn" transform="matrix(1 0 0 -1 5551.9 1300)"/></g><g data-mml-node="mtd"><g data-mml-node="mo" font-family="serif" font-size="884"><text data-variant="normal" transform="translate(8329.7 1300)">系</text><text data-variant="normal" transform="translate(9213.7 1300)">数</text><text data-variant="normal" transform="translate(10097.7 1300)">互</text><text data-variant="normal" transform="translate(10981.7 1300)">质</text></g></g></g></g></g></g></svg>