<svg xmlns="http://www.w3.org/2000/svg" xmlns:xlink="http://www.w3.org/1999/xlink" width="10.391ex" height="4.613ex" aria-hidden="true" viewBox="0 -1342 4593 2039"><defs><path id="a" d="M21 287q1 3 2 8t5 22 10 31 15 33 20 30 26 22 33 9q24 0 43-7t30-18 16-22 8-19l2-7q0-2 1-2l11 11q61 64 139 64 54 0 87-27t34-79v-10q0-24-64-273-58-235-62-242-13-27-45-27-13 0-22 8t-11 22q0 9 59 243l62 250q3 15 3 38 0 59-44 59h-5q-86 0-145-101l-7-12-33-134Q156 26 151 16q-13-27-43-27-13 0-21 6T76 7t-2 10q0 13 40 172t40 177q0 39-26 39-21 0-36-28t-24-61-11-36q-2-2-16-2H27q-6 6-6 9Z"/><path id="b" d="M56 347q0 13 14 20h637q15-8 15-20 0-11-14-19l-318-1H72q-16 5-16 20Zm0-194q0 15 16 20h636q14-10 14-20 0-13-15-20H70q-14 7-14 20Z"/><path id="c" d="M21 287q1 6 3 16t12 38 20 47 33 37 46 17q36 0 60-18t30-34 6-21q0-2 1-2l11 11q61 64 139 64 54 0 87-27t34-79-38-157-38-127q0-26 17-26 6 0 9 1 29 5 52 38t35 80q2 8 20 8 20 0 20-8 0-1-4-15-8-29-22-57t-46-56-69-27q-47 0-68 27t-21 56q0 19 36 120t37 152q0 59-44 59h-5q-86 0-145-101l-7-12-33-134Q156 26 151 16q-13-27-43-27-13 0-21 6T76 7t-2 10q0 13 38 163t40 163q1 5 1 23 0 39-24 39-38 0-63-100-6-20-6-21-2-6-19-6H27q-6 6-6 9Z"/><path id="d" d="M56 237v13l14 20h299v150l1 150q10 13 19 13 13 0 20-15V270h298q15-8 15-20t-15-20H409V-68q-8-14-18-14h-4q-12 0-18 14v298H70q-14 7-14 20Z"/><path id="e" d="m213 578-13-5q-14-5-40-10t-58-7H83v46h19q47 2 87 15t56 24 28 22q2 3 12 3 9 0 17-6V361l1-300q7-7 12-9t24-4 62-2h26V0h-11q-21 3-159 3-136 0-157-3H88v46h64q16 0 25 1t16 3 8 2 6 5 6 4v517Z"/></defs><g fill="currentColor" stroke="currentColor" stroke-width="0" data-mml-node="math"><use xlink:href="#a" data-mml-node="mi" transform="scale(1 -1)"/><use xlink:href="#b" data-mml-node="mo" transform="matrix(1 0 0 -1 774.8 0)"/><g data-mml-node="mfrac"><g data-mml-node="mrow"><use xlink:href="#c" data-mml-node="mi" transform="matrix(1 0 0 -1 2050.6 -676)"/><use xlink:href="#d" data-mml-node="mo" transform="matrix(1 0 0 -1 2872.8 -676)"/><use xlink:href="#e" data-mml-node="mn" transform="matrix(1 0 0 -1 3873 -676)"/></g><use xlink:href="#c" data-mml-node="mi" transform="matrix(1 0 0 -1 2911.8 686)"/><path stroke="none" d="M1950.6-220H4473v-60H1950.6z"/></g></g></svg>