<svg xmlns="http://www.w3.org/2000/svg" xmlns:xlink="http://www.w3.org/1999/xlink" width="36.325ex" height="5.428ex" aria-hidden="true" viewBox="0 -1449.5 16055.7 2399"><defs><path id="a" d="m618-943-6-6h-30l-14 6q-96 40-157 102t-79 138q-5 21-5 50t-2 303q-1 322-2 332-6 42-22 79t-37 63-43 47-42 34-32 20-15 9q-2 4-2 16v8q0 3 1 6t1 3 2 2 5 3 5 3q63 33 112 92 54 69 67 152 1 10 2 332 1 273 1 303t6 51q37 153 234 238l16 7h30l6-6v-15q0-16-2-18l-8-5q-9-4-23-13t-33-21-37-29-36-38-30-48-20-57q-4-20-4-48t-2-301q-1-272-1-302t-6-51q-9-39-28-74t-42-60-49-46-47-34-36-20-17-10l-9-3 17-9q85-42 140-104T416 3q5-21 5-51t2-301v-123q1-205 5-222 1-3 1-5 5-23 14-44t22-39 26-34 28-29 29-23 26-18 21-13 15-9l6-2q2-2 2-18v-15Z"/><path id="b" d="M40 437q-19 0-19 8 0 5 16 56t34 101l17 49q5 18 13 26h558q32 0 38-1t7-9q0-6-17-114t-19-109q0-7-19-7h-12q-3 0-6 5l-2 3q0 6 6 45t6 61q0 35-13 53t-55 25q-5 1-58 2-46 0-58-1t-18-8q-1-1-71-279T298 60q0-12 88-14 32 0 41-1t9-9q0-5-3-14-4-18-9-21l-2-1h-7q-5 0-52 1T228 2Q99 2 64 0H49q-6 6-6 9t2 18q4 13 10 19h39q80 0 95 9 1 1 2 1 5 3 10 20t40 157q17 68 28 111 70 275 70 281 0 5-29 5h-31q-67 0-88-6-45-10-70-41T67 467q-7-22-10-26t-14-4h-3Z"/><path id="c" d="M33 157q0 101 76 192t171 92q51 0 90-49 16 30 46 30 13 0 23-8t10-20q0-13-37-160T374 68q0-25 7-33t21-9q9 1 20 9 21 20 41 96 6 20 10 21 2 1 10 1h4q19 0 19-9 0-6-5-27t-20-54-32-50Q436 0 417-8q-8-2-24-2-34 0-57 15t-30 31l-6 15q-1 1-4-1l-4-4q-59-56-120-56-55 0-97 40T33 157Zm318 171q0 6-5 22t-23 35-46 20q-35 0-67-31t-50-81q-29-79-41-164v-11q0-8-1-12 0-45 18-62t43-18q38 0 75 33t44 51q2 4 27 107t26 111Z"/><path id="d" d="M56 347q0 13 14 20h637q15-8 15-20 0-11-14-19l-318-1H72q-16 5-16 20Zm0-194q0 15 16 20h636q14-10 14-20 0-13-15-20H70q-14 7-14 20Z"/><path id="e" d="M208 74q0-24 46-28 18 0 18-11 0-1-2-13-3-14-6-18t-13-4h-12q-10 0-34 1t-64 1Q70 2 50 0h-8q-7 7-7 11 2 27 13 35h14q70 3 102 50 6 6 181 305t178 303q7 12 24 12h25q6-9 6-10l28-323q28-323 30-326 5-11 65-11 25 0 25-10 0-2-3-14-3-15-5-18t-14-4h-14q-11 0-39 1t-73 1q-94 0-123-2h-12q-6 6-6 9t2 18q4 13 6 16l4 3h20q54 3 64 17l-12 150H283l-34-58q-41-69-41-81Zm308 186q0 11-12 156t-14 146l-27-43q-16-27-63-107l-90-152 103-1q103 0 103 1Z"/><path id="f" d="M84 237v13l14 20h581q15-8 15-20t-15-20H98q-14 7-14 20Z"/><path id="g" d="M21 287q1 3 2 8t5 22 10 31 15 33 20 30 26 22 33 9q29 0 51-12t31-22 11-20q2-6 3-6t8 7q48 52 111 52h3q48 0 72-41 8-19 8-37 0-30-13-48t-26-23-25-4q-20 0-32 11t-12 29q0 48 56 64-22 13-36 13-56 0-103-74-10-16-15-33t-34-133Q156 25 151 16q-13-27-43-27-13 0-21 6T76 7t-2 10q0 13 40 172t40 177q0 39-26 39-21 0-36-28t-24-61-11-36q-2-2-16-2H27q-6 6-6 9Z"/><path id="h" d="M56 237v13l14 20h299v150l1 150q10 13 19 13 13 0 20-15V270h298q15-8 15-20t-15-20H409V-68q-8-14-18-14h-4q-12 0-18 14v298H70q-14 7-14 20Z"/><path id="i" d="M35 200q0 102 39 215t106 195 139 94h8q7 0 12 1 54-4 84-49 39-60 39-161 0-115-45-234T302 66 168-10h-7q-36 0-62 20T60 63t-19 67-6 70Zm348 366q0 102-53 102-36 0-70-45t-56-102-34-100-13-50q49-1 97-1l97 1q1 1 8 33t16 80 8 82ZM113 132q0-106 53-106 15 0 32 10t41 38 48 87 48 146l5 17H145q0-3-9-38t-16-78-7-76Z"/><path id="j" d="M580 514q0 11 16 11h13q2 0 4-1t2-1 2-3 2-3 3-5q37-74 98-131t111-81 96-37q17-5 17-13t-9-11-37-11-58-24Q696 134 622-12q-4-9-7-10t-15-2q-20 0-20 7 0 4 5 17 35 69 86 123l10 10H70q-14 7-14 20 0 15 16 20h653l10 8q39 30 117 69-1 1-18 9t-45 24-54 36l-10 8H72q-16 5-16 20 0 13 14 20h611l-10 10q-33 35-62 81t-29 56Z"/><path id="k" d="M21 287q1 6 3 16t12 38 20 47 33 37 46 17q36 0 60-18t30-34 6-21q0-2 1-2l11 11q61 64 139 64 54 0 87-27t34-79-38-157-38-127q0-26 17-26 6 0 9 1 29 5 52 38t35 80q2 8 20 8 20 0 20-8 0-1-4-15-8-29-22-57t-46-56-69-27q-47 0-68 27t-21 56q0 19 36 120t37 152q0 59-44 59h-5q-86 0-145-101l-7-12-33-134Q156 26 151 16q-13-27-43-27-13 0-21 6T76 7t-2 10q0 13 38 163t40 163q1 5 1 23 0 39-24 39-38 0-63-100-6-20-6-21-2-6-19-6H27q-6 6-6 9Z"/><path id="l" d="m213 578-13-5q-14-5-40-10t-58-7H83v46h19q47 2 87 15t56 24 28 22q2 3 12 3 9 0 17-6V361l1-300q7-7 12-9t24-4 62-2h26V0h-11q-21 3-159 3-136 0-157-3H88v46h64q16 0 25 1t16 3 8 2 6 5 6 4v517Z"/><path id="m" d="M21 287q1 3 2 8t5 22 10 31 15 33 20 30 26 22 33 9q24 0 43-7t30-18 16-22 8-19l2-7q0-2 1-2l11 11q61 64 139 64 54 0 87-27t34-79v-10q0-24-64-273-58-235-62-242-13-27-45-27-13 0-22 8t-11 22q0 9 59 243l62 250q3 15 3 38 0 59-44 59h-5q-86 0-145-101l-7-12-33-134Q156 26 151 16q-13-27-43-27-13 0-21 6T76 7t-2 10q0 13 40 172t40 177q0 39-26 39-21 0-36-28t-24-61-11-36q-2-2-16-2H27q-6 6-6 9Z"/></defs><g fill="currentColor" stroke="currentColor" stroke-width="0" data-mml-node="math"><g data-mml-node="mrow"><use xlink:href="#a" data-mml-node="mo" transform="scale(1 -1)"/><g data-mml-node="mtable"><g data-mml-node="mtr"><g data-mml-node="mtd"><g data-mml-node="msub"><use xlink:href="#b" data-mml-node="mi" transform="matrix(1 0 0 -1 750 -655.5)"/><use xlink:href="#c" data-mml-node="mi" transform="matrix(.707 0 0 -.707 1334 -505.5)"/></g></g><g data-mml-node="mtd"><use xlink:href="#d" data-mml-node="mo" transform="matrix(1 0 0 -1 2035.9 -655.5)"/><g data-mml-node="msub"><use xlink:href="#b" data-mml-node="mi" transform="matrix(1 0 0 -1 3091.7 -655.5)"/><g data-mjx-texclass="ORD" data-mml-node="TeXAtom"><g data-mml-node="msup"><use xlink:href="#e" data-mml-node="mi" transform="matrix(.707 0 0 -.707 3675.7 -502.8)"/><use xlink:href="#f" data-mml-node="mo" transform="matrix(.49985 0 0 -.49985 4205.95 -707.123)"/></g></g></g></g></g><g data-mml-node="mtr"><g data-mml-node="mtd"><g data-mml-node="msub"><use xlink:href="#b" data-mml-node="mi" transform="matrix(1 0 0 -1 805.2 644.5)"/><use xlink:href="#g" data-mml-node="mi" transform="matrix(.707 0 0 -.707 1389.2 794.5)"/></g></g><g data-mml-node="mtd"><use xlink:href="#d" data-mml-node="mo" transform="matrix(1 0 0 -1 2035.9 644.5)"/><g data-mml-node="msub"><use xlink:href="#b" data-mml-node="mi" transform="matrix(1 0 0 -1 3091.7 644.5)"/><g data-mjx-texclass="ORD" data-mml-node="TeXAtom"><g data-mml-node="msup"><use xlink:href="#e" data-mml-node="mi" transform="matrix(.707 0 0 -.707 3675.7 797.2)"/><use xlink:href="#f" data-mml-node="mo" transform="matrix(.49985 0 0 -.49985 4205.95 592.877)"/></g></g></g><use xlink:href="#h" data-mml-node="mo" transform="matrix(1 0 0 -1 4902.6 644.5)"/><g data-mml-node="msub"><use xlink:href="#b" data-mml-node="mi" transform="matrix(1 0 0 -1 5902.8 644.5)"/><g data-mjx-texclass="ORD" data-mml-node="TeXAtom"><g data-mml-node="msub"><use xlink:href="#g" data-mml-node="mi" transform="matrix(.707 0 0 -.707 6486.8 794.5)"/><use xlink:href="#i" data-mml-node="mi" transform="matrix(.49985 0 0 -.49985 6805.657 900.55)"/></g></g></g></g></g></g></g><use xlink:href="#j" data-mml-node="mo" transform="matrix(1 0 0 -1 7403.3 0)"/><g data-mml-node="mfrac"><g data-mml-node="msub"><use xlink:href="#b" data-mml-node="mi" transform="matrix(1 0 0 -1 8901.1 -676)"/><use xlink:href="#c" data-mml-node="mi" transform="matrix(.707 0 0 -.707 9485.1 -526)"/></g><g data-mml-node="msub"><use xlink:href="#b" data-mml-node="mi" transform="matrix(1 0 0 -1 8928.7 686)"/><use xlink:href="#g" data-mml-node="mi" transform="matrix(.707 0 0 -.707 9512.7 836)"/></g><path stroke="none" d="M8801.1-220h1208.1v-60H8801.1z"/></g><use xlink:href="#d" data-mml-node="mo" transform="matrix(1 0 0 -1 10406.9 0)"/><g data-mml-node="mfrac"><g data-mml-node="mrow"><use xlink:href="#k" data-mml-node="mi" transform="matrix(1 0 0 -1 11682.7 -676)"/><use xlink:href="#f" data-mml-node="mo" transform="matrix(1 0 0 -1 12504.9 -676)"/><use xlink:href="#l" data-mml-node="mn" transform="matrix(1 0 0 -1 13505.1 -676)"/></g><use xlink:href="#k" data-mml-node="mi" transform="matrix(1 0 0 -1 12543.9 686)"/><path stroke="none" d="M11582.7-220h2522.4v-60h-2522.4z"/></g><use xlink:href="#d" data-mml-node="mo" transform="matrix(1 0 0 -1 14502.9 0)"/><use xlink:href="#m" data-mml-node="mi" transform="matrix(1 0 0 -1 15558.7 0)"/></g></svg>