<svg xmlns="http://www.w3.org/2000/svg" xmlns:xlink="http://www.w3.org/1999/xlink" width="23.773ex" height="10.584ex" aria-hidden="true" viewBox="0 -2589 10507.6 4678"><defs><path id="a" d="M40 437q-19 0-19 8 0 5 16 56t34 101l17 49q5 18 13 26h558q32 0 38-1t7-9q0-6-17-114t-19-109q0-7-19-7h-12q-3 0-6 5l-2 3q0 6 6 45t6 61q0 35-13 53t-55 25q-5 1-58 2-46 0-58-1t-18-8q-1-1-71-279T298 60q0-12 88-14 32 0 41-1t9-9q0-5-3-14-4-18-9-21l-2-1h-7q-5 0-52 1T228 2Q99 2 64 0H49q-6 6-6 9t2 18q4 13 10 19h39q80 0 95 9 1 1 2 1 5 3 10 20t40 157q17 68 28 111 70 275 70 281 0 5-29 5h-31q-67 0-88-6-45-10-70-41T67 467q-7-22-10-26t-14-4h-3Z"/><path id="b" d="m213 578-13-5q-14-5-40-10t-58-7H83v46h19q47 2 87 15t56 24 28 22q2 3 12 3 9 0 17-6V361l1-300q7-7 12-9t24-4 62-2h26V0h-11q-21 3-159 3-136 0-157-3H88v46h64q16 0 25 1t16 3 8 2 6 5 6 4v517Z"/><path id="c" d="M109 429q-27 0-43 18t-16 44q0 71 53 123t132 52q91 0 152-56t62-145q0-43-20-82t-48-68-80-74q-36-31-100-92l-59-56 76-1q157 0 167 5 7 2 24 89v3h40v-3q-1-3-13-91T421 3V0H50v31q0 7 6 15t30 35q29 32 50 56 9 10 34 37t34 37 29 33 28 34 23 30 21 32 15 29 13 32 7 30 3 33q0 63-34 109t-97 46q-33 0-58-17t-35-33-10-19q0-1 5-1 18 0 37-14t19-46q0-25-16-42t-45-18Z"/><path id="d" d="M56 347q0 13 14 20h637q15-8 15-20 0-11-14-19l-318-1H72q-16 5-16 20Zm0-194q0 15 16 20h636q14-10 14-20 0-13-15-20H70q-14 7-14 20Z"/><path id="e" d="M94 250q0 69 10 131t23 107 37 88 38 67 42 52 33 34 25 21h17q14 0 14-9 0-3-17-21t-41-53-49-86-42-138-17-193 17-192 41-139 49-86 42-53 17-21q0-9-15-9h-16l-28 24q-94 85-137 212T94 250Z"/><path id="f" d="M33 157q0 101 76 192t171 92q51 0 90-49 16 30 46 30 13 0 23-8t10-20q0-13-37-160T374 68q0-25 7-33t21-9q9 1 20 9 21 20 41 96 6 20 10 21 2 1 10 1h4q19 0 19-9 0-6-5-27t-20-54-32-50Q436 0 417-8q-8-2-24-2-34 0-57 15t-30 31l-6 15q-1 1-4-1l-4-4q-59-56-120-56-55 0-97 40T33 157Zm318 171q0 6-5 22t-23 35-46 20q-35 0-67-31t-50-81q-29-79-41-164v-11q0-8-1-12 0-45 18-62t43-18q38 0 75 33t44 51q2 4 27 107t26 111Z"/><path id="g" d="m60 749 4 1h22l28-24q94-85 137-212t43-264q0-68-10-131T261 12t-37-88-38-67-41-51-32-33-23-19l-4-4H63q-3 0-5 3t-3 9q1 1 11 13Q221-64 221 250T66 725q-10 12-11 13 0 8 5 11Z"/><path id="h" d="M127 463q-27 0-42 17t-16 44q0 55 48 98t116 43q35 0 44-1 74-12 113-53t40-89q0-52-34-101t-94-71l-3-2q0-1 9-3t29-9 38-21q82-53 82-140 0-79-62-138T238-22q-80 0-138 43T42 130q0 28 18 45t45 18q28 0 46-18t18-45q0-11-3-20t-7-16-11-12-12-8-10-4-8-3l-4-1q51-45 124-45 55 0 83 53 17 33 17 101v20q0 95-64 127-15 6-61 7l-42 1-3 2q-2 3-2 16 0 18 8 18 28 0 58 5 34 5 62 42t28 112v8q0 57-35 79-22 14-47 14-32 0-59-11t-38-23-11-12h3q3-1 8-2t10-5 12-7 10-11 8-15 3-20q0-22-14-39t-45-18Z"/></defs><g fill="currentColor" stroke="currentColor" stroke-width="0" data-mml-node="math"><g data-mml-node="mtable"><g data-mml-node="mtr"><g data-mml-node="mtd"><g data-mml-node="mfrac"><g data-mml-node="msub"><use xlink:href="#a" data-mml-node="mi" transform="matrix(1 0 0 -1 220 -1912)"/><use xlink:href="#b" data-mml-node="mn" transform="matrix(.707 0 0 -.707 804 -1762)"/></g><g data-mml-node="msub"><use xlink:href="#a" data-mml-node="mi" transform="matrix(1 0 0 -1 220 -550)"/><use xlink:href="#c" data-mml-node="mn" transform="matrix(.707 0 0 -.707 804 -400)"/></g><path stroke="none" d="M120-1456h1187.6v-60H120z"/></g></g><g data-mml-node="mtd"><use xlink:href="#d" data-mml-node="mo" transform="matrix(1 0 0 -1 1705.4 -1236)"/><use xlink:href="#e" data-mml-node="mo" transform="matrix(1 0 0 -1 2761.2 -1236)"/><g data-mml-node="mfrac"><g data-mml-node="msub"><use xlink:href="#f" data-mml-node="mi" transform="matrix(1 0 0 -1 3370.2 -1912)"/><use xlink:href="#b" data-mml-node="mn" transform="matrix(.707 0 0 -.707 3899.2 -1762)"/></g><g data-mml-node="msub"><use xlink:href="#f" data-mml-node="mi" transform="matrix(1 0 0 -1 3370.2 -550)"/><use xlink:href="#c" data-mml-node="mn" transform="matrix(.707 0 0 -.707 3899.2 -400)"/></g><path stroke="none" d="M3270.2-1456h1132.6v-60H3270.2z"/></g><g data-mml-node="msup"><use xlink:href="#g" data-mml-node="mo" transform="matrix(1 0 0 -1 4522.7 -1236)"/><g data-mjx-texclass="ORD" data-mml-node="TeXAtom"><g data-mml-node="mfrac"><use xlink:href="#h" data-mml-node="mn" transform="matrix(.49985 0 0 -.49985 5067.24 -1927.558)"/><use xlink:href="#c" data-mml-node="mn" transform="matrix(.49985 0 0 -.49985 5067.24 -1405.085)"/><path stroke="none" d="M4996.54-1804.54h391.395v-42.42H4996.54z"/></g></g></g></g><g data-mml-node="mtd"><g data-mml-node="mo" font-family="serif" font-size="884"><text data-variant="normal" transform="translate(7855.6 -1236)">周</text><text data-variant="normal" transform="translate(8739.6 -1236)">期</text><text data-variant="normal" transform="translate(9623.6 -1236)">比</text></g></g></g><g data-mml-node="mtr"><g data-mml-node="mtd"><g data-mml-node="mfrac"><g data-mml-node="msub"><use xlink:href="#f" data-mml-node="mi" transform="matrix(1 0 0 -1 275 577)"/><use xlink:href="#b" data-mml-node="mn" transform="matrix(.707 0 0 -.707 804 727)"/></g><g data-mml-node="msub"><use xlink:href="#f" data-mml-node="mi" transform="matrix(1 0 0 -1 275 1939)"/><use xlink:href="#c" data-mml-node="mn" transform="matrix(.707 0 0 -.707 804 2089)"/></g><path stroke="none" d="M175 1033h1132.6v-60H175z"/></g></g><g data-mml-node="mtd"><use xlink:href="#d" data-mml-node="mo" transform="matrix(1 0 0 -1 1705.4 1253)"/><use xlink:href="#e" data-mml-node="mo" transform="matrix(1 0 0 -1 2761.2 1253)"/><g data-mml-node="mfrac"><g data-mml-node="msub"><use xlink:href="#a" data-mml-node="mi" transform="matrix(1 0 0 -1 3370.2 577)"/><use xlink:href="#b" data-mml-node="mn" transform="matrix(.707 0 0 -.707 3954.2 727)"/></g><g data-mml-node="msub"><use xlink:href="#a" data-mml-node="mi" transform="matrix(1 0 0 -1 3370.2 1939)"/><use xlink:href="#c" data-mml-node="mn" transform="matrix(.707 0 0 -.707 3954.2 2089)"/></g><path stroke="none" d="M3270.2 1033h1187.6v-60H3270.2z"/></g><g data-mml-node="msup"><use xlink:href="#g" data-mml-node="mo" transform="matrix(1 0 0 -1 4577.7 1253)"/><g data-mjx-texclass="ORD" data-mml-node="TeXAtom"><g data-mml-node="mfrac"><use xlink:href="#c" data-mml-node="mn" transform="matrix(.49985 0 0 -.49985 5122.24 561.442)"/><use xlink:href="#h" data-mml-node="mn" transform="matrix(.49985 0 0 -.49985 5122.24 1083.915)"/><path stroke="none" d="M5051.54 684.46h391.395v-42.42H5051.54z"/></g></g></g></g><g data-mml-node="mtd"><g data-mml-node="mo" font-family="serif" font-size="884"><text data-variant="normal" transform="translate(7855.6 1253)">周</text><text data-variant="normal" transform="translate(8739.6 1253)">期</text><text data-variant="normal" transform="translate(9623.6 1253)">比</text></g></g></g></g></g></svg>