<svg xmlns="http://www.w3.org/2000/svg" xmlns:xlink="http://www.w3.org/1999/xlink" width="29.882ex" height="15.133ex" aria-hidden="true" viewBox="0 -3594.4 13207.9 6688.9"><defs><path id="a" d="M121 647q0 10 4 23t12 13q1 0 72 5t73 6q12 0 12-8 0-7-50-209-50-198-50-205 19 10 29 19 24 18 69 63t70 61q40 27 76 27 30 0 47-19t18-54q0-25-7-42t-19-25-21-11-18-3q-20 0-32 11t-12 29q0 25 16 41t32 21l16 3q-12 12-24 12h-4q-32-3-63-25t-73-64-66-61q2-1 15-3t24-6 26-8 27-14 22-18 17-26 6-33q0-17-5-41t-6-40q0-40 27-40 48 0 78 119 2 8 20 8h4q16 0 16-9 0-5-3-14Q455-11 378-11q-45 0-73 26t-28 75q0 18 3 31t3 24q0 22-14 38t-35 23-34 11-18 3h-2q-12-42-21-81t-14-58-9-37-7-24-7-13-11-9q-13-9-28-9-17 0-26 10t-9 17q0 10 37 160t73 295l37 145q1 13-7 16t-39 5h-18q-3 0-7 3t-3 7Z"/><path id="b" d="M56 347q0 13 14 20h637q15-8 15-20 0-11-14-19l-318-1H72q-16 5-16 20Zm0-194q0 15 16 20h636q14-10 14-20 0-13-15-20H70q-14 7-14 20Z"/><path id="c" d="M33 157q0 101 76 192t171 92q51 0 90-49 16 30 46 30 13 0 23-8t10-20q0-13-37-160T374 68q0-25 7-33t21-9q9 1 20 9 21 20 41 96 6 20 10 21 2 1 10 1h4q19 0 19-9 0-6-5-27t-20-54-32-50Q436 0 417-8q-8-2-24-2-34 0-57 15t-30 31l-6 15q-1 1-4-1l-4-4q-59-56-120-56-55 0-97 40T33 157Zm318 171q0 6-5 22t-23 35-46 20q-35 0-67-31t-50-81q-29-79-41-164v-11q0-8-1-12 0-45 18-62t43-18q38 0 75 33t44 51q2 4 27 107t26 111Z"/><path id="d" d="M127 463q-27 0-42 17t-16 44q0 55 48 98t116 43q35 0 44-1 74-12 113-53t40-89q0-52-34-101t-94-71l-3-2q0-1 9-3t29-9 38-21q82-53 82-140 0-79-62-138T238-22q-80 0-138 43T42 130q0 28 18 45t45 18q28 0 46-18t18-45q0-11-3-20t-7-16-11-12-12-8-10-4-8-3l-4-1q51-45 124-45 55 0 83 53 17 33 17 101v20q0 95-64 127-15 6-61 7l-42 1-3 2q-2 3-2 16 0 18 8 18 28 0 58 5 34 5 62 42t28 112v8q0 57-35 79-22 14-47 14-32 0-59-11t-38-23-11-12h3q3-1 8-2t10-5 12-7 10-11 8-15 3-20q0-22-14-39t-45-18Z"/><path id="e" d="M40 437q-19 0-19 8 0 5 16 56t34 101l17 49q5 18 13 26h558q32 0 38-1t7-9q0-6-17-114t-19-109q0-7-19-7h-12q-3 0-6 5l-2 3q0 6 6 45t6 61q0 35-13 53t-55 25q-5 1-58 2-46 0-58-1t-18-8q-1-1-71-279T298 60q0-12 88-14 32 0 41-1t9-9q0-5-3-14-4-18-9-21l-2-1h-7q-5 0-52 1T228 2Q99 2 64 0H49q-6 6-6 9t2 18q4 13 10 19h39q80 0 95 9 1 1 2 1 5 3 10 20t40 157q17 68 28 111 70 275 70 281 0 5-29 5h-31q-67 0-88-6-45-10-70-41T67 467q-7-22-10-26t-14-4h-3Z"/><path id="f" d="M109 429q-27 0-43 18t-16 44q0 71 53 123t132 52q91 0 152-56t62-145q0-43-20-82t-48-68-80-74q-36-31-100-92l-59-56 76-1q157 0 167 5 7 2 24 89v3h40v-3q-1-3-13-91T421 3V0H50v31q0 7 6 15t30 35q29 32 50 56 9 10 34 37t34 37 29 33 28 34 23 30 21 32 15 29 13 32 7 30 3 33q0 63-34 109t-97 46q-33 0-58-17t-35-33-10-19q0-1 5-1 18 0 37-14t19-46q0-25-16-42t-45-18Z"/><path id="g" d="M424-948q-2 1-111 514T202 80l-32-49q-5-7-13-21l-20-31q-6 5-13 13L111 5l153 243 209-968q0 3 254 1079t256 1081q6 10 18 10 6 0 12-5t7-12q0-8-278-1189T460-941q-2-9-21-9h-3q-12 0-12 2Z"/><path id="h" d="M263 249q1 0 52-119t102-238 53-120l255 530q256 535 257 537 7 11 19 11 7 0 12-6t7-12v-6L741 243Q645 43 540-176q-61-127-71-148t-16-24q-4-2-17-2l-12 1L315-96Q206 156 205 156l-34-26q-33-26-34-26l-26 26 152 119Z"/></defs><g fill="currentColor" stroke="currentColor" stroke-width="0" data-mml-node="math"><g data-mml-node="mtable"><g data-mml-node="mtr"><g data-mml-node="mtd"><use xlink:href="#a" data-mml-node="mi" transform="matrix(1 0 0 -1 183 -2085.2)"/></g><g data-mml-node="mtd"><use xlink:href="#b" data-mml-node="mo" transform="matrix(1 0 0 -1 981.8 -2085.2)"/><g data-mml-node="mfrac"><g data-mml-node="msup"><use xlink:href="#c" data-mml-node="mi" transform="matrix(1 0 0 -1 2373.1 -2761.2)"/><use xlink:href="#d" data-mml-node="mn" transform="matrix(.707 0 0 -.707 2902.1 -3124.2)"/></g><g data-mml-node="msup"><use xlink:href="#e" data-mml-node="mi" transform="matrix(1 0 0 -1 2257.6 -1365.3)"/><use xlink:href="#f" data-mml-node="mn" transform="matrix(.707 0 0 -.707 3017.6 -1654.3)"/></g><path stroke="none" d="M2157.6-2305.2h1363.6v-60H2157.6z"/></g></g><g data-mml-node="mtd"><g data-mml-node="mo" font-family="serif" font-size="884"><text data-variant="normal" transform="translate(7019.9 -2085.2)">开</text><text data-variant="normal" transform="translate(7903.9 -2085.2)">普</text><text data-variant="normal" transform="translate(8787.9 -2085.2)">勒</text><text data-variant="normal" transform="translate(9671.9 -2085.2)">第</text><text data-variant="normal" transform="translate(10555.9 -2085.2)">三</text><text data-variant="normal" transform="translate(11439.9 -2085.2)">定</text><text data-variant="normal" transform="translate(12323.9 -2085.2)">律</text></g></g></g><g data-mml-node="mtr"><g data-mml-node="mtd"><use xlink:href="#e" data-mml-node="mi" transform="matrix(1 0 0 -1 0 679.1)"/></g><g data-mml-node="mtd"><use xlink:href="#b" data-mml-node="mo" transform="matrix(1 0 0 -1 981.8 679.1)"/><g data-mml-node="msqrt"><g data-mml-node="mfrac"><g data-mml-node="msup"><use xlink:href="#c" data-mml-node="mi" transform="matrix(1 0 0 -1 3277.6 3.1)"/><use xlink:href="#d" data-mml-node="mn" transform="matrix(.707 0 0 -.707 3806.6 -285.9)"/></g><use xlink:href="#a" data-mml-node="mi" transform="matrix(1 0 0 -1 3483.4 1365.1)"/><path stroke="none" d="M3177.6 459.1h1132.6v-60H3177.6z"/></g><use xlink:href="#g" data-mml-node="mo" transform="matrix(1 0 0 -1 2037.6 444.7)"/><path stroke="none" d="M3057.6-945.3h1372.6v-60H3057.6z"/></g></g><g data-mml-node="mtd"><g data-mml-node="mo" font-family="serif" font-size="884"><text data-variant="normal" transform="translate(7019.9 679.1)">周</text><text data-variant="normal" transform="translate(7903.9 679.1)">期</text></g></g></g><g data-mml-node="mtr"><g data-mml-node="mtd"><use xlink:href="#c" data-mml-node="mi" transform="matrix(1 0 0 -1 175 2844.4)"/></g><g data-mml-node="mtd"><use xlink:href="#b" data-mml-node="mo" transform="matrix(1 0 0 -1 981.8 2844.4)"/><g data-mml-node="mroot"><g data-mml-node="mrow"><use xlink:href="#a" data-mml-node="mi" transform="matrix(1 0 0 -1 3057.6 2844.4)"/><g data-mml-node="msup"><use xlink:href="#e" data-mml-node="mi" transform="matrix(1 0 0 -1 3578.6 2844.4)"/><use xlink:href="#f" data-mml-node="mn" transform="matrix(.707 0 0 -.707 4338.6 2555.4)"/></g></g><use xlink:href="#d" data-mml-node="mn" transform="matrix(.5 0 0 -.5 2399.6 2283.7)"/><use xlink:href="#h" data-mml-node="mo" transform="matrix(1 0 0 -1 2037.6 2604.7)"/><path stroke="none" d="M3057.6 1814.7h1684.6v-60H3057.6z"/></g></g><g data-mml-node="mtd"><g data-mml-node="mo" font-family="serif" font-size="884"><text data-variant="normal" transform="translate(7019.9 2844.4)">半</text><text data-variant="normal" transform="translate(7903.9 2844.4)">长</text><text data-variant="normal" transform="translate(8787.9 2844.4)">轴</text></g></g></g></g></g></svg>