<svg xmlns="http://www.w3.org/2000/svg" xmlns:xlink="http://www.w3.org/1999/xlink" width="37.569ex" height="13.078ex" aria-hidden="true" viewBox="0 -3140.2 16605.4 5780.5"><defs><path id="a" d="m618-943-6-6h-30l-14 6q-96 40-157 102t-79 138q-5 21-5 50t-2 303q-1 322-2 332-6 42-22 79t-37 63-43 47-42 34-32 20-15 9q-2 4-2 16v8q0 3 1 6t1 3 2 2 5 3 5 3q63 33 112 92 54 69 67 152 1 10 2 332 1 273 1 303t6 51q37 153 234 238l16 7h30l6-6v-15q0-16-2-18l-8-5q-9-4-23-13t-33-21-37-29-36-38-30-48-20-57q-4-20-4-48t-2-301q-1-272-1-302t-6-51q-9-39-28-74t-42-60-49-46-47-34-36-20-17-10l-9-3 17-9q85-42 140-104T416 3q5-21 5-51t2-301v-123q1-205 5-222 1-3 1-5 5-23 14-44t22-39 26-34 28-29 29-23 26-18 21-13 15-9l6-2q2-2 2-18v-15Z"/><path id="b" d="M26 385q-7 7-7 10 0 4 3 16t5 14q2 5 9 5t51 1h53l19 80q3 11 7 29t7 26 6 20 8 17 10 12 14 9 18 2q18-1 25-11t7-19q0-7-9-47t-20-79l-10-37q0-2 50-2h51q7-7 7-11 0-22-13-35H210l-36-145Q135 80 135 68q0-42 27-42 35 0 68 34t53 84q2 6 5 7t15 2h4q15 0 15-8 0-3-3-12-5-16-18-38t-34-47-51-42-61-17q-30 0-57 15T59 56q-2 8-2 27v18l35 140q35 141 36 142 0 2-51 2H26Z"/><path id="c" d="M208 74q0-24 46-28 18 0 18-11 0-1-2-13-3-14-6-18t-13-4h-12q-10 0-34 1t-64 1Q70 2 50 0h-8q-7 7-7 11 2 27 13 35h14q70 3 102 50 6 6 181 305t178 303q7 12 24 12h25q6-9 6-10l28-323q28-323 30-326 5-11 65-11 25 0 25-10 0-2-3-14-3-15-5-18t-14-4h-14q-11 0-39 1t-73 1q-94 0-123-2h-12q-6 6-6 9t2 18q4 13 6 16l4 3h20q54 3 64 17l-12 150H283l-34-58q-41-69-41-81Zm308 186q0 11-12 156t-14 146l-27-43q-16-27-63-107l-90-152 103-1q103 0 103 1Z"/><path id="d" d="M56 347q0 13 14 20h637q15-8 15-20 0-11-14-19l-318-1H72q-16 5-16 20Zm0-194q0 15 16 20h636q14-10 14-20 0-13-15-20H70q-14 7-14 20Z"/><path id="e" d="M52 289q7 42 54 97t116 56q35 0 64-18t43-45q42 63 101 63 37 0 64-22t28-59q0-29-14-47t-27-22-23-4q-19 0-31 11t-12 29q0 46 50 63-11 13-40 13-13 0-19-2-38-16-56-66-60-221-60-258 0-28 16-40t35-12q37 0 73 33t49 81q3 10 6 11t16 2h4q15 0 15-8 0-1-2-11-16-57-62-101T333-11q-70 0-106 63-41-62-94-62h-6q-49 0-70 26T35 71q0 32 19 52t45 20q43 0 43-42 0-20-12-35t-23-20-13-5l-3-1q0-1 6-4t16-7 19-3q36 0 62 45 9 16 23 68t28 108 16 66q5 27 5 39 0 28-15 40t-34 12q-40 0-75-32t-49-82q-2-9-5-10t-16-2H58q-6 6-6 11Z"/><path id="f" d="M40 437q-19 0-19 8 0 5 16 56t34 101l17 49q5 18 13 26h558q32 0 38-1t7-9q0-6-17-114t-19-109q0-7-19-7h-12q-3 0-6 5l-2 3q0 6 6 45t6 61q0 35-13 53t-55 25q-5 1-58 2-46 0-58-1t-18-8q-1-1-71-279T298 60q0-12 88-14 32 0 41-1t9-9q0-5-3-14-4-18-9-21l-2-1h-7q-5 0-52 1T228 2Q99 2 64 0H49q-6 6-6 9t2 18q4 13 10 19h39q80 0 95 9 1 1 2 1 5 3 10 20t40 157q17 68 28 111 70 275 70 281 0 5-29 5h-31q-67 0-88-6-45-10-70-41T67 467q-7-22-10-26t-14-4h-3Z"/><path id="g" d="M33 157q0 101 76 192t171 92q51 0 90-49 16 30 46 30 13 0 23-8t10-20q0-13-37-160T374 68q0-25 7-33t21-9q9 1 20 9 21 20 41 96 6 20 10 21 2 1 10 1h4q19 0 19-9 0-6-5-27t-20-54-32-50Q436 0 417-8q-8-2-24-2-34 0-57 15t-30 31l-6 15q-1 1-4-1l-4-4q-59-56-120-56-55 0-97 40T33 157Zm318 171q0 6-5 22t-23 35-46 20q-35 0-67-31t-50-81q-29-79-41-164v-11q0-8-1-12 0-45 18-62t43-18q38 0 75 33t44 51q2 4 27 107t26 111Z"/><path id="h" d="M21 287q0 14 15 48t48 71 74 36q41 0 66-23t26-64q-2-19-3-21 0-3-16-46t-33-97-16-86q0-43 14-60t42-18q23 0 43 11t31 23 27 33q0 1 5 20t14 59 19 74q38 150 42 157 13 27 43 27 13 0 21-7t11-12 2-9q0-13-49-210T391-23q-28-83-97-132t-138-50q-45 0-79 22t-34 66q0 22 7 37t19 22 20 10 17 3q44 0 44-42 0-20-12-35t-23-20-13-5l-3-1q2-5 19-12t34-7h8q17 0 26 2 33 9 61 38t43 62 23 56 8 30l-6-4q-6-4-19-11T270-6q-20-5-39-5-46 0-81 22t-46 71q-1 7-1 31 0 57 35 149t35 117v14q0 3-4 7t-11 4h-4q-23 0-42-19t-30-41-17-42-8-22q-2-2-16-2H27q-6 6-6 9Z"/><path id="i" d="M21 287q1 3 2 8t5 22 10 31 15 33 20 30 26 22 33 9q29 0 51-12t31-22 11-20q2-6 3-6t8 7q48 52 111 52h3q48 0 72-41 8-19 8-37 0-30-13-48t-26-23-25-4q-20 0-32 11t-12 29q0 48 56 64-22 13-36 13-56 0-103-74-10-16-15-33t-34-133Q156 25 151 16q-13-27-43-27-13 0-21 6T76 7t-2 10q0 13 40 172t40 177q0 39-26 39-21 0-36-28t-24-61-11-36q-2-2-16-2H27q-6 6-6 9Z"/><path id="j" d="M35 200q0 102 39 215t106 195 139 94h8q7 0 12 1 54-4 84-49 39-60 39-161 0-115-45-234T302 66 168-10h-7q-36 0-62 20T60 63t-19 67-6 70Zm348 366q0 102-53 102-36 0-70-45t-56-102-34-100-13-50q49-1 97-1l97 1q1 1 8 33t16 80 8 82ZM113 132q0-106 53-106 15 0 32 10t41 38 48 87 48 146l5 17H145q0-3-9-38t-16-78-7-76Z"/><path id="k" d="M21 287q1 6 3 16t12 38 20 47 33 37 46 17q36 0 60-18t30-34 6-21q0-2 1-2l11 11q61 64 139 64 54 0 87-27t34-79-38-157-38-127q0-26 17-26 6 0 9 1 29 5 52 38t35 80q2 8 20 8 20 0 20-8 0-1-4-15-8-29-22-57t-46-56-69-27q-47 0-68 27t-21 56q0 19 36 120t37 152q0 59-44 59h-5q-86 0-145-101l-7-12-33-134Q156 26 151 16q-13-27-43-27-13 0-21 6T76 7t-2 10q0 13 38 163t40 163q1 5 1 23 0 39-24 39-38 0-63-100-6-20-6-21-2-6-19-6H27q-6 6-6 9Z"/><path id="l" d="M21 287q1 3 2 8t5 22 10 31 15 33 20 30 26 22 33 9q24 0 43-7t30-18 16-22 8-19l2-7q0-2 1-2l11 11q61 64 139 64 54 0 87-27t34-79v-10q0-24-64-273-58-235-62-242-13-27-45-27-13 0-22 8t-11 22q0 9 59 243l62 250q3 15 3 38 0 59-44 59h-5q-86 0-145-101l-7-12-33-134Q156 26 151 16q-13-27-43-27-13 0-21 6T76 7t-2 10q0 13 40 172t40 177q0 39-26 39-21 0-36-28t-24-61-11-36q-2-2-16-2H27q-6 6-6 9Z"/></defs><g fill="currentColor" stroke="currentColor" stroke-width="0" data-mml-node="math"><g data-mml-node="mtable"><g data-mml-node="mtr"><g data-mml-node="mtd"><g data-mml-node="mrow"><use xlink:href="#a" data-mml-node="mo" transform="matrix(1 0 0 -1 0 -1684.7)"/><g data-mml-node="mtable"><g data-mml-node="mtr"><g data-mml-node="mtd"><g data-mml-node="msub"><use xlink:href="#b" data-mml-node="mi" transform="matrix(1 0 0 -1 750 -2390.2)"/><use xlink:href="#c" data-mml-node="mi" transform="matrix(.707 0 0 -.707 1111 -2237.5)"/></g></g><g data-mml-node="mtd"><use xlink:href="#d" data-mml-node="mo" transform="matrix(1 0 0 -1 2691.3 -2390.2)"/></g><g data-mml-node="mtd"><use xlink:href="#e" data-mml-node="mi" transform="matrix(1 0 0 -1 4469.3 -2390.2)"/><g data-mml-node="msub"><use xlink:href="#f" data-mml-node="mi" transform="matrix(1 0 0 -1 5041.3 -2390.2)"/><use xlink:href="#g" data-mml-node="mi" transform="matrix(.707 0 0 -.707 5625.3 -2240.2)"/></g></g></g><g data-mml-node="mtr"><g data-mml-node="mtd"><g data-mml-node="msub"><use xlink:href="#b" data-mml-node="mi" transform="matrix(1 0 0 -1 750 -990.2)"/><use xlink:href="#c" data-mml-node="mi" transform="matrix(.707 0 0 -.707 1111 -837.5)"/></g></g><g data-mml-node="mtd"><use xlink:href="#d" data-mml-node="mo" transform="matrix(1 0 0 -1 2691.3 -990.2)"/></g><g data-mml-node="mtd"><use xlink:href="#h" data-mml-node="mi" transform="matrix(1 0 0 -1 4469.3 -990.2)"/><g data-mml-node="msub"><use xlink:href="#f" data-mml-node="mi" transform="matrix(1 0 0 -1 4959.3 -990.2)"/><g data-mjx-texclass="ORD" data-mml-node="TeXAtom"><g data-mml-node="msub"><use xlink:href="#i" data-mml-node="mi" transform="matrix(.707 0 0 -.707 5543.3 -840.2)"/><use xlink:href="#j" data-mml-node="mi" transform="matrix(.49985 0 0 -.49985 5862.157 -734.15)"/></g></g></g></g></g></g></g><g data-mml-node="mo" font-family="serif" font-size="884"><text data-variant="normal" transform="translate(6459.9 -1684.7)">从</text><text data-variant="normal" transform="translate(7343.9 -1684.7)">切</text><text data-variant="normal" transform="translate(8227.9 -1684.7)">点</text><text data-variant="normal" transform="translate(9111.9 -1684.7)">运</text><text data-variant="normal" transform="translate(9995.9 -1684.7)">行</text><text data-variant="normal" transform="translate(10879.9 -1684.7)">到</text></g><use xlink:href="#c" data-mml-node="mi" transform="matrix(1 0 0 -1 12041.6 -1684.7)"/><g data-mml-node="mo" font-family="serif" font-size="884"><text data-variant="normal" transform="translate(13069.4 -1684.7)">点</text><text data-variant="normal" transform="translate(13953.4 -1684.7)">的</text><text data-variant="normal" transform="translate(14837.4 -1684.7)">时</text><text data-variant="normal" transform="translate(15721.4 -1684.7)">间</text></g></g></g><g data-mml-node="mtr"><g data-mml-node="mtd"><g data-mml-node="mtable"><g data-mml-node="mtr"><g data-mml-node="mtd"><use xlink:href="#e" data-mml-node="mi" transform="matrix(1 0 0 -1 0 501.1)"/><g data-mml-node="msub"><use xlink:href="#f" data-mml-node="mi" transform="matrix(1 0 0 -1 572 501.1)"/><use xlink:href="#g" data-mml-node="mi" transform="matrix(.707 0 0 -.707 1156 651.1)"/></g></g><g data-mml-node="mtd"><use xlink:href="#d" data-mml-node="mo" transform="matrix(1 0 0 -1 2580.1 501.1)"/></g><g data-mml-node="mtd"><use xlink:href="#h" data-mml-node="mi" transform="matrix(1 0 0 -1 4358.1 501.1)"/><g data-mml-node="mfrac"><g data-mml-node="msub"><use xlink:href="#f" data-mml-node="mi" transform="matrix(.707 0 0 -.707 5068.1 49.5)"/><use xlink:href="#i" data-mml-node="mi" transform="matrix(.49985 0 0 -.49985 5480.988 155.55)"/></g><use xlink:href="#k" data-mml-node="mi" transform="matrix(.707 0 0 -.707 5192.9 846.1)"/><path stroke="none" d="M4968.1 281.1h873.8v-60h-873.8z"/></g></g></g><g data-mml-node="mtr"><g data-mml-node="mtd"><g data-mml-node="mfrac"><g data-mml-node="msub"><use xlink:href="#f" data-mml-node="mi" transform="matrix(.707 0 0 -.707 647.3 1732.5)"/><use xlink:href="#g" data-mml-node="mi" transform="matrix(.49985 0 0 -.49985 1060.188 1838.55)"/></g><g data-mml-node="msub"><use xlink:href="#f" data-mml-node="mi" transform="matrix(.707 0 0 -.707 666.8 2528.6)"/><use xlink:href="#i" data-mml-node="mi" transform="matrix(.49985 0 0 -.49985 1079.688 2634.65)"/></g><path stroke="none" d="M547.3 1963.6h912.8v-60H547.3z"/></g></g><g data-mml-node="mtd"><use xlink:href="#d" data-mml-node="mo" transform="matrix(1 0 0 -1 2580.1 2183.6)"/></g><g data-mml-node="mtd"><g data-mml-node="mfrac"><use xlink:href="#h" data-mml-node="mi" transform="matrix(.707 0 0 -.707 4819.2 1698.6)"/><g data-mml-node="mrow"><use xlink:href="#e" data-mml-node="mi" transform="matrix(.707 0 0 -.707 4578.1 2528.6)"/><use xlink:href="#k" data-mml-node="mi" transform="matrix(.707 0 0 -.707 4982.504 2528.6)"/></g><path stroke="none" d="M4478.1 1963.6h1028.7v-60H4478.1z"/></g><use xlink:href="#d" data-mml-node="mo" transform="matrix(1 0 0 -1 5904.6 2183.6)"/><use xlink:href="#l" data-mml-node="mi" transform="matrix(1 0 0 -1 6960.4 2183.6)"/></g></g></g></g></g></g></g></svg>