<svg xmlns="http://www.w3.org/2000/svg" xmlns:xlink="http://www.w3.org/1999/xlink" width="27.055ex" height="13.167ex" aria-hidden="true" viewBox="0 -3160 11958.3 5820"><defs><path id="a" d="M173 380q0 25-19 25-24 0-50-29t-43-89q-1-1-2-3t-1-3-2-2-3-1-4 0-8 0H27q-6 6-6 9 0 7 8 29t24 52 44 51 63 22q42 0 65-24t24-56q0-17-3-26 0-6-15-44t-31-89-18-89q0-27 5-44 13-43 63-43 37 0 69 34t50 79 29 83 11 55q0 23-8 40t-18 26-18 18-8 22q0 22 19 41t41 19q19 0 34-18t16-58q0-27-12-83t-37-125-71-119-106-51q-64 0-102 33-37 32-37 95 0 31 8 64t41 117q22 64 22 82Z"/><path id="b" d="M26 385q-7 7-7 10 0 4 3 16t5 14q2 5 9 5t51 1h53l19 80q3 11 7 29t7 26 6 20 8 17 10 12 14 9 18 2q18-1 25-11t7-19q0-7-9-47t-20-79l-10-37q0-2 50-2h51q7-7 7-11 0-22-13-35H210l-36-145Q135 80 135 68q0-42 27-42 35 0 68 34t53 84q2 6 5 7t15 2h4q15 0 15-8 0-3-3-12-5-16-18-38t-34-47-51-42-61-17q-30 0-57 15T59 56q-2 8-2 27v18l35 140q35 141 36 142 0 2-51 2H26Z"/><path id="c" d="M56 347q0 13 14 20h637q15-8 15-20 0-11-14-19l-318-1H72q-16 5-16 20Zm0-194q0 15 16 20h636q14-10 14-20 0-13-15-20H70q-14 7-14 20Z"/><path id="l" d="M983 1739q5 11 18 11 7 0 12-5t7-12q0-7-278-1489T460-1241q-2-9-21-9h-3q-12 0-12 2l-14 82q-15 83-43 246t-55 319L201 44 137-83l-26 26 76 153 77 151q1-1 105-604 101-601 104-606L727 384q252 1345 256 1355Z"/><path id="d" d="M58-216q-14 0-24 8t-11 22q0 10 73 302t77 298q13 28 46 28 12-1 20-7t10-12 2-10q0-12-31-134t-33-137q-2-11-2-35v-8q0-73 67-73 9 0 18 1t17 4 15 7 13 7 12 10 11 10 10 12 8 11 9 12l7 10 36 143q36 142 40 151 13 27 43 27 13 0 21-7t11-12 2-10L449 84q-1-5-1-16 0-25 7-33t21-9q9 1 20 9 21 20 41 96 6 20 10 21 2 1 10 1h4q19 0 19-9 0-6-5-27t-20-54-32-50Q510 0 491-8q-8-2-24-2-21 0-38 6t-27 15-17 18-9 15-2 7l-6-6q-6-6-18-15t-26-18-36-16-42-7q-47 0-93 23l-24-97q-21-82-25-95t-12-22q-16-14-34-14Z"/><path id="e" d="M94 250q0 69 10 131t23 107 37 88 38 67 42 52 33 34 25 21h17q14 0 14-9 0-3-17-21t-41-53-49-86-42-138-17-193 17-192 41-139 49-86 42-53 17-21q0-9-15-9h-16l-28 24q-94 85-137 212T94 250Z"/><path id="f" d="M109 429q-27 0-43 18t-16 44q0 71 53 123t132 52q91 0 152-56t62-145q0-43-20-82t-48-68-80-74q-36-31-100-92l-59-56 76-1q157 0 167 5 7 2 24 89v3h40v-3q-1-3-13-91T421 3V0H50v31q0 7 6 15t30 35q29 32 50 56 9 10 34 37t34 37 29 33 28 34 23 30 21 32 15 29 13 32 7 30 3 33q0 63-34 109t-97 46q-33 0-58-17t-35-33-10-19q0-1 5-1 18 0 37-14t19-46q0-25-16-42t-45-18Z"/><path id="g" d="M21 287q1 3 2 8t5 22 10 31 15 33 20 30 26 22 33 9q29 0 51-12t31-22 11-20q2-6 3-6t8 7q48 52 111 52h3q48 0 72-41 8-19 8-37 0-30-13-48t-26-23-25-4q-20 0-32 11t-12 29q0 48 56 64-22 13-36 13-56 0-103-74-10-16-15-33t-34-133Q156 25 151 16q-13-27-43-27-13 0-21 6T76 7t-2 10q0 13 40 172t40 177q0 39-26 39-21 0-36-28t-24-61-11-36q-2-2-16-2H27q-6 6-6 9Z"/><path id="h" d="M84 237v13l14 20h581q15-8 15-20t-15-20H98q-14 7-14 20Z"/><path id="i" d="m213 578-13-5q-14-5-40-10t-58-7H83v46h19q47 2 87 15t56 24 28 22q2 3 12 3 9 0 17-6V361l1-300q7-7 12-9t24-4 62-2h26V0h-11q-21 3-159 3-136 0-157-3H88v46h64q16 0 25 1t16 3 8 2 6 5 6 4v517Z"/><path id="j" d="M33 157q0 101 76 192t171 92q51 0 90-49 16 30 46 30 13 0 23-8t10-20q0-13-37-160T374 68q0-25 7-33t21-9q9 1 20 9 21 20 41 96 6 20 10 21 2 1 10 1h4q19 0 19-9 0-6-5-27t-20-54-32-50Q436 0 417-8q-8-2-24-2-34 0-57 15t-30 31l-6 15q-1 1-4-1l-4-4q-59-56-120-56-55 0-97 40T33 157Zm318 171q0 6-5 22t-23 35-46 20q-35 0-67-31t-50-81q-29-79-41-164v-11q0-8-1-12 0-45 18-62t43-18q38 0 75 33t44 51q2 4 27 107t26 111Z"/><path id="k" d="m60 749 4 1h22l28-24q94-85 137-212t43-264q0-68-10-131T261 12t-37-88-38-67-41-51-32-33-23-19l-4-4H63q-3 0-5 3t-3 9q1 1 11 13Q221-64 221 250T66 725q-10 12-11 13 0 8 5 11Z"/><path id="m" d="M40 437q-19 0-19 8 0 5 16 56t34 101l17 49q5 18 13 26h558q32 0 38-1t7-9q0-6-17-114t-19-109q0-7-19-7h-12q-3 0-6 5l-2 3q0 6 6 45t6 61q0 35-13 53t-55 25q-5 1-58 2-46 0-58-1t-18-8q-1-1-71-279T298 60q0-12 88-14 32 0 41-1t9-9q0-5-3-14-4-18-9-21l-2-1h-7q-5 0-52 1T228 2Q99 2 64 0H49q-6 6-6 9t2 18q4 13 10 19h39q80 0 95 9 1 1 2 1 5 3 10 20t40 157q17 68 28 111 70 275 70 281 0 5-29 5h-31q-67 0-88-6-45-10-70-41T67 467q-7-22-10-26t-14-4h-3Z"/><path id="p" d="M424-948q-2 1-111 514T202 80l-32-49q-5-7-13-21l-20-31q-6 5-13 13L111 5l153 243 209-968q0 3 254 1079t256 1081q6 10 18 10 6 0 12-5t7-12q0-8-278-1189T460-941q-2-9-21-9h-3q-12 0-12 2Z"/><path id="n" d="M127 463q-27 0-42 17t-16 44q0 55 48 98t116 43q35 0 44-1 74-12 113-53t40-89q0-52-34-101t-94-71l-3-2q0-1 9-3t29-9 38-21q82-53 82-140 0-79-62-138T238-22q-80 0-138 43T42 130q0 28 18 45t45 18q28 0 46-18t18-45q0-11-3-20t-7-16-11-12-12-8-10-4-8-3l-4-1q51-45 124-45 55 0 83 53 17 33 17 101v20q0 95-64 127-15 6-61 7l-42 1-3 2q-2 3-2 16 0 18 8 18 28 0 58 5 34 5 62 42t28 112v8q0 57-35 79-22 14-47 14-32 0-59-11t-38-23-11-12h3q3-1 8-2t10-5 12-7 10-11 8-15 3-20q0-22-14-39t-45-18Z"/><path id="o" d="M121 647q0 10 4 23t12 13q1 0 72 5t73 6q12 0 12-8 0-7-50-209-50-198-50-205 19 10 29 19 24 18 69 63t70 61q40 27 76 27 30 0 47-19t18-54q0-25-7-42t-19-25-21-11-18-3q-20 0-32 11t-12 29q0 25 16 41t32 21l16 3q-12 12-24 12h-4q-32-3-63-25t-73-64-66-61q2-1 15-3t24-6 26-8 27-14 22-18 17-26 6-33q0-17-5-41t-6-40q0-40 27-40 48 0 78 119 2 8 20 8h4q16 0 16-9 0-5-3-14Q455-11 378-11q-45 0-73 26t-28 75q0 18 3 31t3 24q0 22-14 38t-35 23-34 11-18 3h-2q-12-42-21-81t-14-58-9-37-7-24-7-13-11-9q-13-9-28-9-17 0-26 10t-9 17q0 10 37 160t73 295l37 145q1 13-7 16t-39 5h-18q-3 0-7 3t-3 7Z"/></defs><g fill="currentColor" stroke="currentColor" stroke-width="0" data-mml-node="math"><g data-mml-node="mtable"><g data-mml-node="mtr"><g data-mml-node="mtd"><g data-mml-node="msub"><use xlink:href="#a" data-mml-node="mi" transform="matrix(1 0 0 -1 0 -1235.6)"/><use xlink:href="#b" data-mml-node="mi" transform="matrix(.707 0 0 -.707 485 -1085.6)"/></g></g><g data-mml-node="mtd"><use xlink:href="#c" data-mml-node="mo" transform="matrix(1 0 0 -1 1068.1 -1235.6)"/><g data-mml-node="msqrt"><use xlink:href="#d" data-mml-node="mi" transform="matrix(1 0 0 -1 3143.9 -1235.6)"/><use xlink:href="#e" data-mml-node="mo" transform="matrix(1 0 0 -1 3746.9 -1235.6)"/><g data-mml-node="mfrac"><use xlink:href="#f" data-mml-node="mn" transform="matrix(1 0 0 -1 4484 -1911.6)"/><g data-mml-node="msub"><use xlink:href="#g" data-mml-node="mi" transform="matrix(1 0 0 -1 4355.9 -549.6)"/><use xlink:href="#b" data-mml-node="mi" transform="matrix(.707 0 0 -.707 4806.9 -399.6)"/></g><path stroke="none" d="M4255.9-1455.6h956.3v-60h-956.3z"/></g><use xlink:href="#h" data-mml-node="mo" transform="matrix(1 0 0 -1 5554.4 -1235.6)"/><g data-mml-node="mfrac"><use xlink:href="#i" data-mml-node="mn" transform="matrix(1 0 0 -1 6789.1 -1911.6)"/><use xlink:href="#j" data-mml-node="mi" transform="matrix(1 0 0 -1 6774.6 -549.6)"/><path stroke="none" d="M6674.6-1455.6h729v-60h-729z"/></g><use xlink:href="#k" data-mml-node="mo" transform="matrix(1 0 0 -1 7523.6 -1235.6)"/><use xlink:href="#l" data-mml-node="mo" transform="matrix(1 0 0 -1 2123.9 -1350)"/><path stroke="none" d="M3143.9-3040h4768.7v-60H3143.9z"/></g></g><g data-mml-node="mtd"><g data-mml-node="mo" font-family="serif" font-size="884"><text data-variant="normal" transform="translate(10190.3 -1235.6)">速</text><text data-variant="normal" transform="translate(11074.3 -1235.6)">度</text></g></g></g><g data-mml-node="mtr"><g data-mml-node="mtd"><use xlink:href="#m" data-mml-node="mi" transform="matrix(1 0 0 -1 86.3 1944.4)"/></g><g data-mml-node="mtd"><use xlink:href="#c" data-mml-node="mo" transform="matrix(1 0 0 -1 1068.1 1944.4)"/><g data-mml-node="msqrt"><g data-mml-node="mfrac"><g data-mml-node="msup"><use xlink:href="#j" data-mml-node="mi" transform="matrix(1 0 0 -1 3363.9 1268.4)"/><use xlink:href="#n" data-mml-node="mn" transform="matrix(.707 0 0 -.707 3892.9 979.4)"/></g><use xlink:href="#o" data-mml-node="mi" transform="matrix(1 0 0 -1 3569.7 2630.4)"/><path stroke="none" d="M3263.9 1724.4h1132.6v-60H3263.9z"/></g><use xlink:href="#p" data-mml-node="mo" transform="matrix(1 0 0 -1 2123.9 1710)"/><path stroke="none" d="M3143.9 320h1372.6v-60H3143.9z"/></g></g><g data-mml-node="mtd"><g data-mml-node="mo" font-family="serif" font-size="884"><text data-variant="normal" transform="translate(10190.3 1944.4)">周</text><text data-variant="normal" transform="translate(11074.3 1944.4)">期</text></g></g></g></g></g></svg>