<svg xmlns="http://www.w3.org/2000/svg" xmlns:xlink="http://www.w3.org/1999/xlink" width="19.171ex" height="10.543ex" aria-hidden="true" viewBox="0 -2580 8473.7 4660"><defs><path id="a" d="M21 287q1 3 2 8t5 22 10 31 15 33 20 30 26 22 33 9q29 0 51-12t31-22 11-20q2-6 3-6t8 7q48 52 111 52h3q48 0 72-41 8-19 8-37 0-30-13-48t-26-23-25-4q-20 0-32 11t-12 29q0 48 56 64-22 13-36 13-56 0-103-74-10-16-15-33t-34-133Q156 25 151 16q-13-27-43-27-13 0-21 6T76 7t-2 10q0 13 40 172t40 177q0 39-26 39-21 0-36-28t-24-61-11-36q-2-2-16-2H27q-6 6-6 9Z"/><path id="b" d="M33 157q0 101 76 192t171 92q51 0 90-49 16 30 46 30 13 0 23-8t10-20q0-13-37-160T374 68q0-25 7-33t21-9q9 1 20 9 21 20 41 96 6 20 10 21 2 1 10 1h4q19 0 19-9 0-6-5-27t-20-54-32-50Q436 0 417-8q-8-2-24-2-34 0-57 15t-30 31l-6 15q-1 1-4-1l-4-4q-59-56-120-56-55 0-97 40T33 157Zm318 171q0 6-5 22t-23 35-46 20q-35 0-67-31t-50-81q-29-79-41-164v-11q0-8-1-12 0-45 18-62t43-18q38 0 75 33t44 51q2 4 27 107t26 111Z"/><path id="c" d="M56 347q0 13 14 20h637q15-8 15-20 0-11-14-19l-318-1H72q-16 5-16 20Zm0-194q0 15 16 20h636q14-10 14-20 0-13-15-20H70q-14 7-14 20Z"/><path id="d" d="m618-943-6-6h-30l-14 6q-96 40-157 102t-79 138q-5 21-5 50t-2 303q-1 322-2 332-6 42-22 79t-37 63-43 47-42 34-32 20-15 9q-2 4-2 16v8q0 3 1 6t1 3 2 2 5 3 5 3q63 33 112 92 54 69 67 152 1 10 2 332 1 273 1 303t6 51q37 153 234 238l16 7h30l6-6v-15q0-16-2-18l-8-5q-9-4-23-13t-33-21-37-29-36-38-30-48-20-57q-4-20-4-48t-2-301q-1-272-1-302t-6-51q-9-39-28-74t-42-60-49-46-47-34-36-20-17-10l-9-3 17-9q85-42 140-104T416 3q5-21 5-51t2-301v-123q1-205 5-222 1-3 1-5 5-23 14-44t22-39 26-34 28-29 29-23 26-18 21-13 15-9l6-2q2-2 2-18v-15Z"/><path id="e" d="M109 429q-27 0-43 18t-16 44q0 71 53 123t132 52q91 0 152-56t62-145q0-43-20-82t-48-68-80-74q-36-31-100-92l-59-56 76-1q157 0 167 5 7 2 24 89v3h40v-3q-1-3-13-91T421 3V0H50v31q0 7 6 15t30 35q29 32 50 56 9 10 34 37t34 37 29 33 28 34 23 30 21 32 15 29 13 32 7 30 3 33q0 63-34 109t-97 46q-33 0-58-17t-35-33-10-19q0-1 5-1 18 0 37-14t19-46q0-25-16-42t-45-18Z"/><path id="f" d="M84 237v13l14 20h581q15-8 15-20t-15-20H98q-14 7-14 20Z"/><path id="g" d="M173 380q0 25-19 25-24 0-50-29t-43-89q-1-1-2-3t-1-3-2-2-3-1-4 0-8 0H27q-6 6-6 9 0 7 8 29t24 52 44 51 63 22q42 0 65-24t24-56q0-17-3-26 0-6-15-44t-31-89-18-89q0-27 5-44 13-43 63-43 37 0 69 34t50 79 29 83 11 55q0 23-8 40t-18 26-18 18-8 22q0 22 19 41t41 19q19 0 34-18t16-58q0-27-12-83t-37-125-71-119-106-51q-64 0-102 33-37 32-37 95 0 31 8 64t41 117q22 64 22 82Z"/><path id="l" d="M1001 1150q16 0 19-18 0-5-279-888L460-643q-7-7-24-7h-12q-1 3-1 5t-2 5-2 9-4 14-7 23-9 34-14 48-18 64-24 84-31 105L203 119l-65-78-27 26 101 121 52 60 208-722 511 1614q5 10 18 10Z"/><path id="h" d="M58-216q-14 0-24 8t-11 22q0 10 73 302t77 298q13 28 46 28 12-1 20-7t10-12 2-10q0-12-31-134t-33-137q-2-11-2-35v-8q0-73 67-73 9 0 18 1t17 4 15 7 13 7 12 10 11 10 10 12 8 11 9 12l7 10 36 143q36 142 40 151 13 27 43 27 13 0 21-7t11-12 2-10L449 84q-1-5-1-16 0-25 7-33t21-9q9 1 20 9 21 20 41 96 6 20 10 21 2 1 10 1h4q19 0 19-9 0-6-5-27t-20-54-32-50Q510 0 491-8q-8-2-24-2-21 0-38 6t-27 15-17 18-9 15-2 7l-6-6q-6-6-18-15t-26-18-36-16-42-7q-47 0-93 23l-24-97q-21-82-25-95t-12-22q-16-14-34-14Z"/><path id="i" d="M94 250q0 69 10 131t23 107 37 88 38 67 42 52 33 34 25 21h17q14 0 14-9 0-3-17-21t-41-53-49-86-42-138-17-193 17-192 41-139 49-86 42-53 17-21q0-9-15-9h-16l-28 24q-94 85-137 212T94 250Z"/><path id="j" d="m213 578-13-5q-14-5-40-10t-58-7H83v46h19q47 2 87 15t56 24 28 22q2 3 12 3 9 0 17-6V361l1-300q7-7 12-9t24-4 62-2h26V0h-11q-21 3-159 3-136 0-157-3H88v46h64q16 0 25 1t16 3 8 2 6 5 6 4v517Z"/><path id="k" d="m60 749 4 1h22l28-24q94-85 137-212t43-264q0-68-10-131T261 12t-37-88-38-67-41-51-32-33-23-19l-4-4H63q-3 0-5 3t-3 9q1 1 11 13Q221-64 221 250T66 725q-10 12-11 13 0 8 5 11Z"/></defs><g fill="currentColor" stroke="currentColor" stroke-width="0" data-mml-node="math"><g data-mml-node="mtable"><g data-mml-node="mtr"><g data-mml-node="mtd"><g data-mml-node="msub"><use xlink:href="#a" data-mml-node="mi" transform="matrix(1 0 0 -1 1000 -1130)"/><use xlink:href="#b" data-mml-node="mi" transform="matrix(.707 0 0 -.707 1451 -980)"/></g><use xlink:href="#c" data-mml-node="mo" transform="matrix(1 0 0 -1 2152.8 -1130)"/><g data-mml-node="mrow"><use xlink:href="#d" data-mml-node="mo" transform="matrix(1 0 0 -1 3208.6 -1130)"/><g data-mml-node="mtable"><g data-mml-node="mtr"><g data-mml-node="mtd"><use xlink:href="#a" data-mml-node="mi" transform="matrix(1 0 0 -1 3958.6 -1830)"/></g></g><g data-mml-node="mtr"><g data-mml-node="mtd"><use xlink:href="#e" data-mml-node="mn" transform="matrix(1 0 0 -1 3958.6 -430)"/><use xlink:href="#b" data-mml-node="mi" transform="matrix(1 0 0 -1 4458.6 -430)"/><use xlink:href="#f" data-mml-node="mo" transform="matrix(1 0 0 -1 5209.8 -430)"/><use xlink:href="#a" data-mml-node="mi" transform="matrix(1 0 0 -1 6210 -430)"/></g></g></g></g></g></g><g data-mml-node="mtr"><g data-mml-node="mtd"><g data-mml-node="msub"><use xlink:href="#g" data-mml-node="mi" transform="matrix(1 0 0 -1 1000 1503.6)"/><use xlink:href="#b" data-mml-node="mi" transform="matrix(.707 0 0 -.707 1485 1653.6)"/></g><use xlink:href="#c" data-mml-node="mo" transform="matrix(1 0 0 -1 2186.8 1503.6)"/><g data-mml-node="msqrt"><use xlink:href="#h" data-mml-node="mi" transform="matrix(1 0 0 -1 4262.6 1503.6)"/><use xlink:href="#i" data-mml-node="mo" transform="matrix(1 0 0 -1 4865.6 1503.6)"/><g data-mml-node="mfrac"><use xlink:href="#e" data-mml-node="mn" transform="matrix(.707 0 0 -.707 5474.6 1109.6)"/><use xlink:href="#a" data-mml-node="mi" transform="matrix(.707 0 0 -.707 5491.9 1848.6)"/><path stroke="none" d="M5374.6 1283.6h553.6v-60h-553.6z"/></g><use xlink:href="#f" data-mml-node="mo" transform="matrix(1 0 0 -1 6270.4 1503.6)"/><g data-mml-node="mfrac"><use xlink:href="#j" data-mml-node="mn" transform="matrix(.707 0 0 -.707 7500.9 1109.6)"/><use xlink:href="#b" data-mml-node="mi" transform="matrix(.707 0 0 -.707 7490.6 1848.6)"/><path stroke="none" d="M7390.6 1283.6h574.1v-60h-574.1z"/></g><use xlink:href="#k" data-mml-node="mo" transform="matrix(1 0 0 -1 8084.7 1503.6)"/><use xlink:href="#l" data-mml-node="mo" transform="matrix(1 0 0 -1 3242.6 1430)"/><path stroke="none" d="M4262.6 340h4211.1v-60H4262.6z"/></g></g></g></g></g></svg>