<svg xmlns="http://www.w3.org/2000/svg" width="950" height="1009"><defs><clipPath id="a"><path fill="none" d="M0 0h950v1009H0V0Z"/></clipPath></defs><g clip-path="url(#a)"><path fill="#FFF" d="M0 0h950v1009H0z"/><path fill="none" stroke="#DB6114" stroke-linecap="round" stroke-linejoin="round" stroke-miterlimit="10" stroke-opacity=".8" stroke-width="2.5" d="M912.328 504.467c0 244.463-198.176 442.639-442.639 442.639-244.462 0-442.638-198.176-442.638-442.639 0-244.462 198.176-442.638 442.638-442.638 244.463 0 442.639 198.176 442.639 442.638Z" paint-order="fill stroke markers"/><text x="304" y="91" fill="#DB6114" dominant-baseline="alphabetic" font-family="geogebra-sans-serif, sans-serif" font-size="16" text-decoration="normal">目标轨道</text><text x="304" y="91" fill="none" stroke="#FFF" stroke-linejoin="bevel" stroke-miterlimit="10" stroke-width="3" dominant-baseline="alphabetic" font-family="geogebra-sans-serif, sans-serif" font-size="16" text-decoration="normal">目标轨道</text><text x="304" y="91" fill="#DB6114" dominant-baseline="alphabetic" font-family="geogebra-sans-serif, sans-serif" font-size="16" text-decoration="normal">目标轨道</text><text x="674" y="495" fill="#DB6114" dominant-baseline="alphabetic" font-family="geogebra-sans-serif, sans-serif" font-size="16" text-decoration="normal">r</text><text x="674" y="495" fill="none" stroke="#FFF" stroke-linejoin="bevel" stroke-miterlimit="10" stroke-width="3" dominant-baseline="alphabetic" font-family="geogebra-sans-serif, sans-serif" font-size="16" text-decoration="normal">r</text><text x="674" y="495" fill="#DB6114" dominant-baseline="alphabetic" font-family="geogebra-sans-serif, sans-serif" font-size="16" text-decoration="normal">r</text><path fill="none" stroke="#DB6114" stroke-linecap="round" stroke-linejoin="round" stroke-miterlimit="10" stroke-opacity=".8" stroke-width="2.5" d="M469.69 504.467h442.638M912.328 504.467V388.676" paint-order="fill stroke markers"/><path fill="#DB6114" fill-opacity=".8" fill-rule="evenodd" d="m912.328 371.676 4.25 17h-8.5Z" paint-order="stroke fill markers"/><text x="924" y="394" fill="#DB6114" dominant-baseline="alphabetic" font-family="geogebra-sans-serif, sans-serif" font-size="16" text-decoration="normal">v</text><text x="924" y="394" fill="none" stroke="#FFF" stroke-linejoin="bevel" stroke-miterlimit="10" stroke-width="3" dominant-baseline="alphabetic" font-family="geogebra-sans-serif, sans-serif" font-size="16" text-decoration="normal">v</text><text x="924" y="394" fill="#DB6114" dominant-baseline="alphabetic" font-family="geogebra-sans-serif, sans-serif" font-size="16" text-decoration="normal">v</text><text x="932" y="401" fill="#DB6114" dominant-baseline="alphabetic" font-family="geogebra-sans-serif, sans-serif" font-size="14" text-decoration="normal">r</text><text x="932" y="401" fill="none" stroke="#FFF" stroke-linejoin="bevel" stroke-miterlimit="10" stroke-width="3" dominant-baseline="alphabetic" font-family="geogebra-sans-serif, sans-serif" font-size="14" text-decoration="normal">r</text><text x="932" y="401" fill="#DB6114" dominant-baseline="alphabetic" font-family="geogebra-sans-serif, sans-serif" font-size="14" text-decoration="normal">r</text><path fill="#616161" d="M473.69 504.467a4 4 0 1 1-8 0 4 4 0 0 1 8 0Z" paint-order="stroke fill markers"/><path fill="none" stroke="#000" stroke-linecap="round" stroke-linejoin="round" stroke-miterlimit="10" d="M473.69 504.467a4 4 0 1 1-8 0 4 4 0 0 1 8 0Z" paint-order="fill stroke markers"/><text x="448" y="510" fill="#616161" dominant-baseline="alphabetic" font-family="geogebra-sans-serif, sans-serif" font-size="16" text-decoration="normal">O</text><text x="448" y="510" fill="none" stroke="#FFF" stroke-linejoin="bevel" stroke-miterlimit="10" stroke-width="3" dominant-baseline="alphabetic" font-family="geogebra-sans-serif, sans-serif" font-size="16" text-decoration="normal">O</text><text x="448" y="510" fill="#616161" dominant-baseline="alphabetic" font-family="geogebra-sans-serif, sans-serif" font-size="16" text-decoration="normal">O</text><path fill="#DB6114" d="M917.328 504.467a5 5 0 1 1-10 0 5 5 0 0 1 10 0Z" paint-order="stroke fill markers"/><path fill="none" stroke="#000" stroke-linecap="round" stroke-linejoin="round" stroke-miterlimit="10" d="M917.328 504.467a5 5 0 1 1-10 0 5 5 0 0 1 10 0Z" paint-order="fill stroke markers"/><text x="916" y="494" fill="#DB6114" dominant-baseline="alphabetic" font-family="geogebra-sans-serif, sans-serif" font-size="16" text-decoration="normal">A</text><text x="916" y="494" fill="none" stroke="#FFF" stroke-linejoin="bevel" stroke-miterlimit="10" stroke-width="3" dominant-baseline="alphabetic" font-family="geogebra-sans-serif, sans-serif" font-size="16" text-decoration="normal">A</text><text x="916" y="494" fill="#DB6114" dominant-baseline="alphabetic" font-family="geogebra-sans-serif, sans-serif" font-size="16" text-decoration="normal">A</text><path fill="none" stroke="#666" stroke-linecap="square" stroke-miterlimit="10" stroke-width="2.5" d="m912.328 499.467-5 5M907.328 504.467l5 5M912.328 509.467l5-5M917.328 504.467l-5-5M606.472 78.493l-5 5M601.472 83.493l5 5M606.472 88.493l5-5M611.472 83.493l-5-5M111.587 239.29l-5 5M106.587 244.29l5 5M111.587 249.29l5-5M116.587 244.29l-5-5M111.587 759.644l-5 5M106.587 764.644l5 5M111.587 769.644l5-5M116.587 764.644l-5-5M606.472 920.441l-5 5M601.472 925.441l5 5M606.472 930.441l5-5M611.472 925.441l-5-5M912.328 499.467l-5 5M907.328 504.467l5 5M912.328 509.467l5-5M917.328 504.467l-5-5" paint-order="fill stroke markers"/><path fill="#DB6114" fill-opacity=".098" fill-rule="evenodd" d="M912.328 504.467 606.472 83.493 111.587 244.29v520.353L606.472 925.44l305.856-420.974Z" paint-order="stroke fill markers"/><path fill="#DB6114" fill-opacity=".098" d="M478.96 532.999a30 30 0 0 0 20.73-28.532h-30Z" paint-order="stroke fill markers"/><path fill="none" stroke="#DB6114" stroke-linecap="round" stroke-linejoin="round" stroke-miterlimit="10" stroke-opacity=".6" stroke-width="2" d="M478.96 532.999a30 30 0 0 0 20.73-28.532h-30Z" paint-order="fill stroke markers"/><text x="510" y="536" fill="#DB6114" dominant-baseline="alphabetic" font-family="geogebra-sans-serif, sans-serif" font-size="16" text-decoration="normal">θ</text><text x="510" y="536" fill="none" stroke="#FFF" stroke-linejoin="bevel" stroke-miterlimit="10" stroke-width="3" dominant-baseline="alphabetic" font-family="geogebra-sans-serif, sans-serif" font-size="16" text-decoration="normal">θ</text><text x="510" y="536" fill="#DB6114" dominant-baseline="alphabetic" font-family="geogebra-sans-serif, sans-serif" font-size="16" text-decoration="normal">θ</text><path fill="none" stroke="#1565C0" stroke-linecap="round" stroke-linejoin="round" stroke-miterlimit="10" stroke-opacity=".8" stroke-width="2.5" d="M469.69 504.467 606.471 83.493" paint-order="fill stroke markers"/><path fill="none" stroke="#616161" stroke-dasharray="10.5,8" stroke-linejoin="round" stroke-miterlimit="10" stroke-opacity=".8" stroke-width="2.5" d="M827.792 504.467c0 197.774-160.328 358.102-358.103 358.102-197.774 0-358.102-160.328-358.102-358.102 0-197.774 160.328-358.102 358.102-358.102 197.775 0 358.103 160.328 358.103 358.102Z" paint-order="fill stroke markers"/><text x="359" y="180" fill="#616161" dominant-baseline="alphabetic" font-family="geogebra-sans-serif, sans-serif" font-size="16" text-decoration="normal">LOS</text><text x="359" y="180" fill="none" stroke="#FFF" stroke-linejoin="bevel" stroke-miterlimit="10" stroke-width="3" dominant-baseline="alphabetic" font-family="geogebra-sans-serif, sans-serif" font-size="16" text-decoration="normal">LOS</text><text x="359" y="180" fill="#616161" dominant-baseline="alphabetic" font-family="geogebra-sans-serif, sans-serif" font-size="16" text-decoration="normal">LOS</text><text x="623" y="412" fill="#616161" dominant-baseline="alphabetic" font-family="geogebra-sans-serif, sans-serif" font-size="16" text-decoration="normal">r</text><text x="623" y="412" fill="none" stroke="#FFF" stroke-linejoin="bevel" stroke-miterlimit="10" stroke-width="3" dominant-baseline="alphabetic" font-family="geogebra-sans-serif, sans-serif" font-size="16" text-decoration="normal">r</text><text x="623" y="412" fill="#616161" dominant-baseline="alphabetic" font-family="geogebra-sans-serif, sans-serif" font-size="16" text-decoration="normal">r</text><text x="629" y="419" fill="#616161" dominant-baseline="alphabetic" font-family="geogebra-sans-serif, sans-serif" font-size="14" text-decoration="normal">LOS</text><text x="629" y="419" fill="none" stroke="#FFF" stroke-linejoin="bevel" stroke-miterlimit="10" stroke-width="3" dominant-baseline="alphabetic" font-family="geogebra-sans-serif, sans-serif" font-size="14" text-decoration="normal">LOS</text><text x="629" y="419" fill="#616161" dominant-baseline="alphabetic" font-family="geogebra-sans-serif, sans-serif" font-size="14" text-decoration="normal">LOS</text><path fill="none" stroke="#616161" stroke-linecap="round" stroke-linejoin="round" stroke-miterlimit="10" stroke-opacity=".8" stroke-width="2.5" d="M469.69 504.467 759.4 293.98" paint-order="fill stroke markers"/><text x="827" y="379" fill="#616161" dominant-baseline="alphabetic" font-family="geogebra-sans-serif, sans-serif" font-size="16" text-decoration="normal">s</text><text x="827" y="379" fill="none" stroke="#FFF" stroke-linejoin="bevel" stroke-miterlimit="10" stroke-width="3" dominant-baseline="alphabetic" font-family="geogebra-sans-serif, sans-serif" font-size="16" text-decoration="normal">s</text><text x="827" y="379" fill="#616161" dominant-baseline="alphabetic" font-family="geogebra-sans-serif, sans-serif" font-size="16" text-decoration="normal">s</text><text x="834" y="386" fill="#616161" dominant-baseline="alphabetic" font-family="geogebra-sans-serif, sans-serif" font-size="14" text-decoration="normal">LOS</text><text x="834" y="386" fill="none" stroke="#FFF" stroke-linejoin="bevel" stroke-miterlimit="10" stroke-width="3" dominant-baseline="alphabetic" font-family="geogebra-sans-serif, sans-serif" font-size="14" text-decoration="normal">LOS</text><text x="834" y="386" fill="#616161" dominant-baseline="alphabetic" font-family="geogebra-sans-serif, sans-serif" font-size="14" text-decoration="normal">LOS</text><path fill="none" stroke="#616161" stroke-linecap="round" stroke-linejoin="round" stroke-miterlimit="10" stroke-opacity=".8" stroke-width="2.5" d="M912.328 504.467 759.4 293.98" paint-order="fill stroke markers"/><path fill="#616161" d="M763.4 293.98a4 4 0 1 1-8 0 4 4 0 0 1 8 0Z" paint-order="stroke fill markers"/><path fill="none" stroke="#000" stroke-linecap="round" stroke-linejoin="round" stroke-miterlimit="10" d="M763.4 293.98a4 4 0 1 1-8 0 4 4 0 0 1 8 0Z" paint-order="fill stroke markers"/><path fill="none" stroke="#6557D2" stroke-linecap="round" stroke-linejoin="round" stroke-miterlimit="10" stroke-opacity=".8" stroke-width="2.5" d="m469.69 504.467 136.782 420.974" paint-order="fill stroke markers"/></g></svg>