<svg xmlns="http://www.w3.org/2000/svg" width="950" height="1009"><defs><clipPath id="a"><path fill="none" d="M0 0h950v1009H0V0Z"/></clipPath></defs><g clip-path="url(#a)"><path fill="#FFF" d="M0 0h950v1009H0z"/><path fill="none" stroke="#DB6114" stroke-linecap="round" stroke-linejoin="round" stroke-miterlimit="10" stroke-opacity=".8" stroke-width="2.5" d="M913.512 504.51c0 244.693-198.363 443.055-443.055 443.055-244.693 0-443.055-198.362-443.055-443.055 0-244.692 198.362-443.055 443.055-443.055 244.692 0 443.055 198.363 443.055 443.055Z" paint-order="fill stroke markers"/><text x="304" y="90" fill="#DB6114" dominant-baseline="alphabetic" font-family="geogebra-sans-serif, sans-serif" font-size="16" text-decoration="normal">目标轨道</text><text x="304" y="90" fill="none" stroke="#FFF" stroke-linejoin="bevel" stroke-miterlimit="10" stroke-width="3" dominant-baseline="alphabetic" font-family="geogebra-sans-serif, sans-serif" font-size="16" text-decoration="normal">目标轨道</text><text x="304" y="90" fill="#DB6114" dominant-baseline="alphabetic" font-family="geogebra-sans-serif, sans-serif" font-size="16" text-decoration="normal">目标轨道</text><text x="674" y="495" fill="#DB6114" dominant-baseline="alphabetic" font-family="geogebra-sans-serif, sans-serif" font-size="16" text-decoration="normal">r</text><text x="674" y="495" fill="none" stroke="#FFF" stroke-linejoin="bevel" stroke-miterlimit="10" stroke-width="3" dominant-baseline="alphabetic" font-family="geogebra-sans-serif, sans-serif" font-size="16" text-decoration="normal">r</text><text x="674" y="495" fill="#DB6114" dominant-baseline="alphabetic" font-family="geogebra-sans-serif, sans-serif" font-size="16" text-decoration="normal">r</text><path fill="none" stroke="#DB6114" stroke-linecap="round" stroke-linejoin="round" stroke-miterlimit="10" stroke-opacity=".8" stroke-width="2.5" d="M470.457 504.51h443.055M913.512 504.51V388.594" paint-order="fill stroke markers"/><path fill="#DB6114" fill-opacity=".8" fill-rule="evenodd" d="m913.512 371.594 4.25 17h-8.5Z" paint-order="stroke fill markers"/><text x="925" y="394" fill="#DB6114" dominant-baseline="alphabetic" font-family="geogebra-sans-serif, sans-serif" font-size="16" text-decoration="normal">v</text><text x="925" y="394" fill="none" stroke="#FFF" stroke-linejoin="bevel" stroke-miterlimit="10" stroke-width="3" dominant-baseline="alphabetic" font-family="geogebra-sans-serif, sans-serif" font-size="16" text-decoration="normal">v</text><text x="925" y="394" fill="#DB6114" dominant-baseline="alphabetic" font-family="geogebra-sans-serif, sans-serif" font-size="16" text-decoration="normal">v</text><text x="933" y="401" fill="#DB6114" dominant-baseline="alphabetic" font-family="geogebra-sans-serif, sans-serif" font-size="14" text-decoration="normal">r</text><text x="933" y="401" fill="none" stroke="#FFF" stroke-linejoin="bevel" stroke-miterlimit="10" stroke-width="3" dominant-baseline="alphabetic" font-family="geogebra-sans-serif, sans-serif" font-size="14" text-decoration="normal">r</text><text x="933" y="401" fill="#DB6114" dominant-baseline="alphabetic" font-family="geogebra-sans-serif, sans-serif" font-size="14" text-decoration="normal">r</text><path fill="#616161" d="M474.457 504.51a4 4 0 1 1-8 0 4 4 0 0 1 8 0Z" paint-order="stroke fill markers"/><path fill="none" stroke="#000" stroke-linecap="round" stroke-linejoin="round" stroke-miterlimit="10" d="M474.457 504.51a4 4 0 1 1-8 0 4 4 0 0 1 8 0Z" paint-order="fill stroke markers"/><text x="448" y="511" fill="#616161" dominant-baseline="alphabetic" font-family="geogebra-sans-serif, sans-serif" font-size="16" text-decoration="normal">O</text><text x="448" y="511" fill="none" stroke="#FFF" stroke-linejoin="bevel" stroke-miterlimit="10" stroke-width="3" dominant-baseline="alphabetic" font-family="geogebra-sans-serif, sans-serif" font-size="16" text-decoration="normal">O</text><text x="448" y="511" fill="#616161" dominant-baseline="alphabetic" font-family="geogebra-sans-serif, sans-serif" font-size="16" text-decoration="normal">O</text><path fill="#DB6114" d="M918.512 504.51a5 5 0 1 1-10 0 5 5 0 0 1 10 0Z" paint-order="stroke fill markers"/><path fill="none" stroke="#000" stroke-linecap="round" stroke-linejoin="round" stroke-miterlimit="10" d="M918.512 504.51a5 5 0 1 1-10 0 5 5 0 0 1 10 0Z" paint-order="fill stroke markers"/><text x="918" y="495" fill="#DB6114" dominant-baseline="alphabetic" font-family="geogebra-sans-serif, sans-serif" font-size="16" text-decoration="normal">A</text><text x="918" y="495" fill="none" stroke="#FFF" stroke-linejoin="bevel" stroke-miterlimit="10" stroke-width="3" dominant-baseline="alphabetic" font-family="geogebra-sans-serif, sans-serif" font-size="16" text-decoration="normal">A</text><text x="918" y="495" fill="#DB6114" dominant-baseline="alphabetic" font-family="geogebra-sans-serif, sans-serif" font-size="16" text-decoration="normal">A</text><path fill="none" stroke="#666" stroke-linecap="square" stroke-miterlimit="10" stroke-width="2.5" d="m913.512 499.51-5 5M908.512 504.51l5 5M913.512 509.51l5-5M918.512 504.51l-5-5M607.368 78.14l-5 5M602.368 83.14l5 5M607.368 88.14l5-5M612.368 83.14l-5-5M112.018 239.09l-5 5M107.018 244.09l5 5M112.018 249.09l5-5M117.018 244.09l-5-5M112.018 759.932l-5 5M107.018 764.932l5 5M112.018 769.932l5-5M117.018 764.932l-5-5M607.368 920.88l-5 5M602.368 925.88l5 5M607.368 930.88l5-5M612.368 925.88l-5-5M913.512 499.51l-5 5M908.512 504.51l5 5M913.512 509.51l5-5M918.512 504.51l-5-5" paint-order="fill stroke markers"/><path fill="#DB6114" fill-opacity=".098" fill-rule="evenodd" d="M913.512 504.51 607.368 83.14l-495.35 160.95v520.842l495.35 160.949 306.144-421.37Z" paint-order="stroke fill markers"/><path fill="#DB6114" fill-opacity=".098" d="M479.727 533.042a30 30 0 0 0 20.73-28.532h-30Z" paint-order="stroke fill markers"/><path fill="none" stroke="#DB6114" stroke-linecap="round" stroke-linejoin="round" stroke-miterlimit="10" stroke-opacity=".6" stroke-width="2" d="M479.727 533.042a30 30 0 0 0 20.73-28.532h-30Z" paint-order="fill stroke markers"/><text x="511" y="536" fill="#DB6114" dominant-baseline="alphabetic" font-family="geogebra-sans-serif, sans-serif" font-size="16" text-decoration="normal">θ</text><text x="511" y="536" fill="none" stroke="#FFF" stroke-linejoin="bevel" stroke-miterlimit="10" stroke-width="3" dominant-baseline="alphabetic" font-family="geogebra-sans-serif, sans-serif" font-size="16" text-decoration="normal">θ</text><text x="511" y="536" fill="#DB6114" dominant-baseline="alphabetic" font-family="geogebra-sans-serif, sans-serif" font-size="16" text-decoration="normal">θ</text><path fill="none" stroke="#1565C0" stroke-linecap="round" stroke-linejoin="round" stroke-miterlimit="10" stroke-opacity=".8" stroke-width="2.5" d="M470.457 504.51 607.368 83.14" paint-order="fill stroke markers"/><path fill="none" stroke="#6557D2" stroke-linecap="round" stroke-linejoin="round" stroke-miterlimit="10" stroke-opacity=".8" stroke-width="2.5" d="m470.457 504.51 136.911 421.37" paint-order="fill stroke markers"/></g></svg>