<svg xmlns="http://www.w3.org/2000/svg" width="950" height="1009"><defs><clipPath id="a"><path fill="none" d="M0 0h950v1009H0V0Z"/></clipPath></defs><g clip-path="url(#a)"><path fill="#FFF" d="M0 0h950v1009H0z"/><path fill="none" stroke="#DB6114" stroke-linecap="round" stroke-linejoin="round" stroke-miterlimit="10" stroke-opacity=".8" stroke-width="2.5" d="M909.964 504.688c0 243.815-197.651 441.467-441.467 441.467-243.815 0-441.467-197.652-441.467-441.467 0-243.816 197.652-441.467 441.467-441.467 243.816 0 441.467 197.651 441.467 441.467Z" paint-order="fill stroke markers"/><text x="303" y="92" fill="#DB6114" dominant-baseline="alphabetic" font-family="geogebra-sans-serif, sans-serif" font-size="16" text-decoration="normal">目标轨道</text><text x="303" y="92" fill="none" stroke="#FFF" stroke-linejoin="bevel" stroke-miterlimit="10" stroke-width="3" dominant-baseline="alphabetic" font-family="geogebra-sans-serif, sans-serif" font-size="16" text-decoration="normal">目标轨道</text><text x="303" y="92" fill="#DB6114" dominant-baseline="alphabetic" font-family="geogebra-sans-serif, sans-serif" font-size="16" text-decoration="normal">目标轨道</text><text x="672" y="495" fill="#DB6114" dominant-baseline="alphabetic" font-family="geogebra-sans-serif, sans-serif" font-size="16" text-decoration="normal">r</text><text x="672" y="495" fill="none" stroke="#FFF" stroke-linejoin="bevel" stroke-miterlimit="10" stroke-width="3" dominant-baseline="alphabetic" font-family="geogebra-sans-serif, sans-serif" font-size="16" text-decoration="normal">r</text><text x="672" y="495" fill="#DB6114" dominant-baseline="alphabetic" font-family="geogebra-sans-serif, sans-serif" font-size="16" text-decoration="normal">r</text><path fill="none" stroke="#DB6114" stroke-linecap="round" stroke-linejoin="round" stroke-miterlimit="10" stroke-opacity=".8" stroke-width="2.5" d="M468.497 504.688h441.467M909.964 504.688v-115.44" paint-order="fill stroke markers"/><path fill="#DB6114" fill-opacity=".8" fill-rule="evenodd" d="m909.964 372.247 4.25 17h-8.5Z" paint-order="stroke fill markers"/><text x="921" y="394" fill="#DB6114" dominant-baseline="alphabetic" font-family="geogebra-sans-serif, sans-serif" font-size="16" text-decoration="normal">v</text><text x="921" y="394" fill="none" stroke="#FFF" stroke-linejoin="bevel" stroke-miterlimit="10" stroke-width="3" dominant-baseline="alphabetic" font-family="geogebra-sans-serif, sans-serif" font-size="16" text-decoration="normal">v</text><text x="921" y="394" fill="#DB6114" dominant-baseline="alphabetic" font-family="geogebra-sans-serif, sans-serif" font-size="16" text-decoration="normal">v</text><text x="929" y="401" fill="#DB6114" dominant-baseline="alphabetic" font-family="geogebra-sans-serif, sans-serif" font-size="14" text-decoration="normal">r</text><text x="929" y="401" fill="none" stroke="#FFF" stroke-linejoin="bevel" stroke-miterlimit="10" stroke-width="3" dominant-baseline="alphabetic" font-family="geogebra-sans-serif, sans-serif" font-size="14" text-decoration="normal">r</text><text x="929" y="401" fill="#DB6114" dominant-baseline="alphabetic" font-family="geogebra-sans-serif, sans-serif" font-size="14" text-decoration="normal">r</text><path fill="#616161" d="M472.497 504.688a4 4 0 1 1-8 0 4 4 0 0 1 8 0Z" paint-order="stroke fill markers"/><path fill="none" stroke="#000" stroke-linecap="round" stroke-linejoin="round" stroke-miterlimit="10" d="M472.497 504.688a4 4 0 1 1-8 0 4 4 0 0 1 8 0Z" paint-order="fill stroke markers"/><text x="446" y="511" fill="#616161" dominant-baseline="alphabetic" font-family="geogebra-sans-serif, sans-serif" font-size="16" text-decoration="normal">O</text><text x="446" y="511" fill="none" stroke="#FFF" stroke-linejoin="bevel" stroke-miterlimit="10" stroke-width="3" dominant-baseline="alphabetic" font-family="geogebra-sans-serif, sans-serif" font-size="16" text-decoration="normal">O</text><text x="446" y="511" fill="#616161" dominant-baseline="alphabetic" font-family="geogebra-sans-serif, sans-serif" font-size="16" text-decoration="normal">O</text><path fill="#DB6114" d="M914.964 504.688a5 5 0 1 1-10 0 5 5 0 0 1 10 0Z" paint-order="stroke fill markers"/><path fill="none" stroke="#000" stroke-linecap="round" stroke-linejoin="round" stroke-miterlimit="10" d="M914.964 504.688a5 5 0 1 1-10 0 5 5 0 0 1 10 0Z" paint-order="fill stroke markers"/><text x="914" y="495" fill="#DB6114" dominant-baseline="alphabetic" font-family="geogebra-sans-serif, sans-serif" font-size="16" text-decoration="normal">A</text><text x="914" y="495" fill="none" stroke="#FFF" stroke-linejoin="bevel" stroke-miterlimit="10" stroke-width="3" dominant-baseline="alphabetic" font-family="geogebra-sans-serif, sans-serif" font-size="16" text-decoration="normal">A</text><text x="914" y="495" fill="#DB6114" dominant-baseline="alphabetic" font-family="geogebra-sans-serif, sans-serif" font-size="16" text-decoration="normal">A</text><path fill="none" stroke="#666" stroke-linecap="square" stroke-miterlimit="10" stroke-width="2.5" d="m909.964 499.688-5 5M904.964 504.688l5 5M909.964 509.688l5-5M914.964 504.688l-5-5M604.918 79.827l-5 5M599.918 84.827l5 5M604.918 89.827l5-5M609.918 84.827l-5-5M111.343 240.2l-5 5M106.343 245.2l5 5M111.343 250.2l5-5M116.343 245.2l-5-5M111.343 759.175l-5 5M106.343 764.175l5 5M111.343 769.175l5-5M116.343 764.175l-5-5M604.918 919.548l-5 5M599.918 924.548l5 5M604.918 929.548l5-5M609.918 924.548l-5-5M909.964 499.688l-5 5M904.964 504.688l5 5M909.964 509.688l5-5M914.964 504.688l-5-5" paint-order="fill stroke markers"/><path fill="#DB6114" fill-opacity=".098" fill-rule="evenodd" d="M909.964 504.688 604.918 84.828 111.343 245.2v518.975l493.575 160.373 305.046-419.86Z" paint-order="stroke fill markers"/><path fill="#DB6114" fill-opacity=".098" d="M477.768 533.22a30 30 0 0 0 20.73-28.532h-30Z" paint-order="stroke fill markers"/><path fill="none" stroke="#DB6114" stroke-linecap="round" stroke-linejoin="round" stroke-miterlimit="10" stroke-opacity=".6" stroke-width="2" d="M477.768 533.22a30 30 0 0 0 20.73-28.532h-30Z" paint-order="fill stroke markers"/><text x="509" y="537" fill="#DB6114" dominant-baseline="alphabetic" font-family="geogebra-sans-serif, sans-serif" font-size="16" text-decoration="normal">θ</text><text x="509" y="537" fill="none" stroke="#FFF" stroke-linejoin="bevel" stroke-miterlimit="10" stroke-width="3" dominant-baseline="alphabetic" font-family="geogebra-sans-serif, sans-serif" font-size="16" text-decoration="normal">θ</text><text x="509" y="537" fill="#DB6114" dominant-baseline="alphabetic" font-family="geogebra-sans-serif, sans-serif" font-size="16" text-decoration="normal">θ</text><path fill="none" stroke="#6557D2" stroke-linecap="round" stroke-linejoin="round" stroke-miterlimit="10" stroke-opacity=".8" stroke-width="2.5" d="M909.964 504.688c0-154.203-138.356-279.209-309.026-279.209-170.671 0-309.027 125.006-309.027 279.209 0 154.202 138.356 279.208 309.027 279.208 170.67 0 309.026-125.006 309.026-279.208Z" paint-order="fill stroke markers"/><text x="409" y="273" fill="#6557D2" dominant-baseline="alphabetic" font-family="geogebra-sans-serif, sans-serif" font-size="16" text-decoration="normal">部署轨道</text><text x="409" y="273" fill="none" stroke="#FFF" stroke-linejoin="bevel" stroke-miterlimit="10" stroke-width="3" dominant-baseline="alphabetic" font-family="geogebra-sans-serif, sans-serif" font-size="16" text-decoration="normal">部署轨道</text><text x="409" y="273" fill="#6557D2" dominant-baseline="alphabetic" font-family="geogebra-sans-serif, sans-serif" font-size="16" text-decoration="normal">部署轨道</text><path fill="none" stroke="#6557D2" stroke-linecap="round" stroke-linejoin="round" stroke-miterlimit="10" stroke-opacity=".8" stroke-width="2.5" d="m468.497 504.688 136.421 419.86" paint-order="fill stroke markers"/><text x="787" y="521" fill="#6557D2" dominant-baseline="alphabetic" font-family="geogebra-sans-serif, sans-serif" font-size="16" text-decoration="normal">a</text><text x="787" y="521" fill="none" stroke="#FFF" stroke-linejoin="bevel" stroke-miterlimit="10" stroke-width="3" dominant-baseline="alphabetic" font-family="geogebra-sans-serif, sans-serif" font-size="16" text-decoration="normal">a</text><text x="787" y="521" fill="#6557D2" dominant-baseline="alphabetic" font-family="geogebra-sans-serif, sans-serif" font-size="16" text-decoration="normal">a</text><path fill="none" stroke="#6557D2" stroke-linecap="round" stroke-linejoin="round" stroke-miterlimit="10" stroke-opacity=".8" stroke-width="2.5" d="M600.938 504.688h309.026M909.964 504.688v-71.294" paint-order="fill stroke markers"/><path fill="#6557D2" fill-opacity=".8" fill-rule="evenodd" d="m909.964 416.394 4.25 17h-8.5Z" paint-order="stroke fill markers"/><text x="919" y="444" fill="#6557D2" dominant-baseline="alphabetic" font-family="geogebra-sans-serif, sans-serif" font-size="16" text-decoration="normal">v</text><text x="919" y="444" fill="none" stroke="#FFF" stroke-linejoin="bevel" stroke-miterlimit="10" stroke-width="3" dominant-baseline="alphabetic" font-family="geogebra-sans-serif, sans-serif" font-size="16" text-decoration="normal">v</text><text x="919" y="444" fill="#6557D2" dominant-baseline="alphabetic" font-family="geogebra-sans-serif, sans-serif" font-size="16" text-decoration="normal">v</text><text x="927" y="451" fill="#6557D2" dominant-baseline="alphabetic" font-family="geogebra-sans-serif, sans-serif" font-size="14" text-decoration="normal">a</text><text x="927" y="451" fill="none" stroke="#FFF" stroke-linejoin="bevel" stroke-miterlimit="10" stroke-width="3" dominant-baseline="alphabetic" font-family="geogebra-sans-serif, sans-serif" font-size="14" text-decoration="normal">a</text><text x="927" y="451" fill="#6557D2" dominant-baseline="alphabetic" font-family="geogebra-sans-serif, sans-serif" font-size="14" text-decoration="normal">a</text><path fill="#6557D2" d="M608.918 924.548a4 4 0 1 1-8 0 4 4 0 0 1 8 0Z" paint-order="stroke fill markers"/><path fill="none" stroke="#000" stroke-linecap="round" stroke-linejoin="round" stroke-miterlimit="10" d="M608.918 924.548a4 4 0 1 1-8 0 4 4 0 0 1 8 0Z" paint-order="fill stroke markers"/><text x="609" y="917" fill="#6557D2" dominant-baseline="alphabetic" font-family="geogebra-sans-serif, sans-serif" font-size="16" text-decoration="normal">A</text><text x="609" y="917" fill="none" stroke="#FFF" stroke-linejoin="bevel" stroke-miterlimit="10" stroke-width="3" dominant-baseline="alphabetic" font-family="geogebra-sans-serif, sans-serif" font-size="16" text-decoration="normal">A</text><text x="609" y="917" fill="#6557D2" dominant-baseline="alphabetic" font-family="geogebra-sans-serif, sans-serif" font-size="16" text-decoration="normal">A</text><text x="620" y="924" fill="#6557D2" dominant-baseline="alphabetic" font-family="geogebra-sans-serif, sans-serif" font-size="14" text-decoration="normal">-</text><text x="620" y="924" fill="none" stroke="#FFF" stroke-linejoin="bevel" stroke-miterlimit="10" stroke-width="3" dominant-baseline="alphabetic" font-family="geogebra-sans-serif, sans-serif" font-size="14" text-decoration="normal">-</text><text x="620" y="924" fill="#6557D2" dominant-baseline="alphabetic" font-family="geogebra-sans-serif, sans-serif" font-size="14" text-decoration="normal">-</text><path fill="#6557D2" d="M738.378 504.688a5 5 0 1 1-10 0 5 5 0 0 1 10 0Z" paint-order="stroke fill markers"/><path fill="none" stroke="#000" stroke-linecap="round" stroke-linejoin="round" stroke-miterlimit="10" d="M738.378 504.688a5 5 0 1 1-10 0 5 5 0 0 1 10 0Z" paint-order="fill stroke markers"/><text x="727" y="529" fill="#6557D2" dominant-baseline="alphabetic" font-family="geogebra-sans-serif, sans-serif" font-size="16" text-decoration="normal">O&apos;</text><text x="727" y="529" fill="none" stroke="#FFF" stroke-linejoin="bevel" stroke-miterlimit="10" stroke-width="3" dominant-baseline="alphabetic" font-family="geogebra-sans-serif, sans-serif" font-size="16" text-decoration="normal">O&apos;</text><text x="727" y="529" fill="#6557D2" dominant-baseline="alphabetic" font-family="geogebra-sans-serif, sans-serif" font-size="16" text-decoration="normal">O&apos;</text><path fill="#6557D2" d="M604.938 504.688a4 4 0 1 1-8 0 4 4 0 0 1 8 0Z" paint-order="stroke fill markers"/><path fill="none" stroke="#000" stroke-linecap="round" stroke-linejoin="round" stroke-miterlimit="10" d="M604.938 504.688a4 4 0 1 1-8 0 4 4 0 0 1 8 0Z" paint-order="fill stroke markers"/><text x="594" y="529" fill="#6557D2" dominant-baseline="alphabetic" font-family="geogebra-sans-serif, sans-serif" font-size="16" text-decoration="normal">M</text><text x="594" y="529" fill="none" stroke="#FFF" stroke-linejoin="bevel" stroke-miterlimit="10" stroke-width="3" dominant-baseline="alphabetic" font-family="geogebra-sans-serif, sans-serif" font-size="16" text-decoration="normal">M</text><text x="594" y="529" fill="#6557D2" dominant-baseline="alphabetic" font-family="geogebra-sans-serif, sans-serif" font-size="16" text-decoration="normal">M</text></g></svg>