<svg xmlns="http://www.w3.org/2000/svg" width="950" height="1009"><defs><clipPath id="a"><path fill="none" d="M0 0h950v1009H0V0Z"/></clipPath></defs><g clip-path="url(#a)"><path fill="#FFF" d="M0 0h950v1009H0z"/><path fill="none" stroke="#DB6114" stroke-linecap="round" stroke-linejoin="round" stroke-miterlimit="10" stroke-opacity=".8" stroke-width="2.5" d="M911.726 504.789c0 187.94-152.355 340.296-340.296 340.296-187.94 0-340.297-152.356-340.297-340.296 0-187.941 152.356-340.297 340.297-340.297 187.94 0 340.296 152.356 340.296 340.297Z" paint-order="fill stroke markers"/><text x="457" y="178" fill="#DB6114" dominant-baseline="alphabetic" font-family="geogebra-sans-serif, sans-serif" font-size="16" text-decoration="normal">目标轨道</text><text x="457" y="178" fill="none" stroke="#FFF" stroke-linejoin="bevel" stroke-miterlimit="10" stroke-width="3" dominant-baseline="alphabetic" font-family="geogebra-sans-serif, sans-serif" font-size="16" text-decoration="normal">目标轨道</text><text x="457" y="178" fill="#DB6114" dominant-baseline="alphabetic" font-family="geogebra-sans-serif, sans-serif" font-size="16" text-decoration="normal">目标轨道</text><text x="724" y="495" fill="#DB6114" dominant-baseline="alphabetic" font-family="geogebra-sans-serif, sans-serif" font-size="16" text-decoration="normal">r</text><text x="724" y="495" fill="none" stroke="#FFF" stroke-linejoin="bevel" stroke-miterlimit="10" stroke-width="3" dominant-baseline="alphabetic" font-family="geogebra-sans-serif, sans-serif" font-size="16" text-decoration="normal">r</text><text x="724" y="495" fill="#DB6114" dominant-baseline="alphabetic" font-family="geogebra-sans-serif, sans-serif" font-size="16" text-decoration="normal">r</text><path fill="none" stroke="#DB6114" stroke-linecap="round" stroke-linejoin="round" stroke-miterlimit="10" stroke-opacity=".8" stroke-width="2.5" d="M571.43 504.789h340.296M911.726 504.789v-85.09" paint-order="fill stroke markers"/><path fill="#DB6114" fill-opacity=".8" fill-rule="evenodd" d="m911.726 402.7 4.25 17h-8.5Z" paint-order="stroke fill markers"/><text x="923" y="409" fill="#DB6114" dominant-baseline="alphabetic" font-family="geogebra-sans-serif, sans-serif" font-size="16" text-decoration="normal">v</text><text x="923" y="409" fill="none" stroke="#FFF" stroke-linejoin="bevel" stroke-miterlimit="10" stroke-width="3" dominant-baseline="alphabetic" font-family="geogebra-sans-serif, sans-serif" font-size="16" text-decoration="normal">v</text><text x="923" y="409" fill="#DB6114" dominant-baseline="alphabetic" font-family="geogebra-sans-serif, sans-serif" font-size="16" text-decoration="normal">v</text><text x="931" y="416" fill="#DB6114" dominant-baseline="alphabetic" font-family="geogebra-sans-serif, sans-serif" font-size="14" text-decoration="normal">r</text><text x="931" y="416" fill="none" stroke="#FFF" stroke-linejoin="bevel" stroke-miterlimit="10" stroke-width="3" dominant-baseline="alphabetic" font-family="geogebra-sans-serif, sans-serif" font-size="14" text-decoration="normal">r</text><text x="931" y="416" fill="#DB6114" dominant-baseline="alphabetic" font-family="geogebra-sans-serif, sans-serif" font-size="14" text-decoration="normal">r</text><path fill="#616161" d="M575.43 504.789a4 4 0 1 1-8 0 4 4 0 0 1 8 0Z" paint-order="stroke fill markers"/><path fill="none" stroke="#000" stroke-linecap="round" stroke-linejoin="round" stroke-miterlimit="10" d="M575.43 504.789a4 4 0 1 1-8 0 4 4 0 0 1 8 0Z" paint-order="fill stroke markers"/><text x="549" y="511" fill="#616161" dominant-baseline="alphabetic" font-family="geogebra-sans-serif, sans-serif" font-size="16" text-decoration="normal">O</text><text x="549" y="511" fill="none" stroke="#FFF" stroke-linejoin="bevel" stroke-miterlimit="10" stroke-width="3" dominant-baseline="alphabetic" font-family="geogebra-sans-serif, sans-serif" font-size="16" text-decoration="normal">O</text><text x="549" y="511" fill="#616161" dominant-baseline="alphabetic" font-family="geogebra-sans-serif, sans-serif" font-size="16" text-decoration="normal">O</text><path fill="#DB6114" d="M916.726 504.789a5 5 0 1 1-10 0 5 5 0 0 1 10 0Z" paint-order="stroke fill markers"/><path fill="none" stroke="#000" stroke-linecap="round" stroke-linejoin="round" stroke-miterlimit="10" d="M916.726 504.789a5 5 0 1 1-10 0 5 5 0 0 1 10 0Z" paint-order="fill stroke markers"/><text x="916" y="495" fill="#DB6114" dominant-baseline="alphabetic" font-family="geogebra-sans-serif, sans-serif" font-size="16" text-decoration="normal">A</text><text x="916" y="495" fill="none" stroke="#FFF" stroke-linejoin="bevel" stroke-miterlimit="10" stroke-width="3" dominant-baseline="alphabetic" font-family="geogebra-sans-serif, sans-serif" font-size="16" text-decoration="normal">A</text><text x="916" y="495" fill="#DB6114" dominant-baseline="alphabetic" font-family="geogebra-sans-serif, sans-serif" font-size="16" text-decoration="normal">A</text><path fill="none" stroke="#666" stroke-linecap="square" stroke-miterlimit="10" stroke-width="2.5" d="m911.726 499.789-5 5M906.726 504.789l5 5M911.726 509.789l5-5M916.726 504.789l-5-5M676.587 176.147l-5 5M671.587 181.147l5 5M676.587 186.147l5-5M681.587 181.147l-5-5M296.124 299.767l-5 5M291.124 304.767l5 5M296.124 309.767l5-5M301.124 304.767l-5-5M296.124 699.81l-5 5M291.124 704.81l5 5M296.124 709.81l5-5M301.124 704.81l-5-5M676.587 823.43l-5 5M671.587 828.43l5 5M676.587 833.43l5-5M681.587 828.43l-5-5M911.726 499.789l-5 5M906.726 504.789l5 5M911.726 509.789l5-5M916.726 504.789l-5-5" paint-order="fill stroke markers"/><path fill="#DB6114" fill-opacity=".098" fill-rule="evenodd" d="M911.726 504.789 676.587 181.147l-380.463 123.62V704.81l380.463 123.62 235.14-323.641Z" paint-order="stroke fill markers"/><path fill="#DB6114" fill-opacity=".098" d="M580.7 533.32a30 30 0 0 0 20.73-28.531h-30Z" paint-order="stroke fill markers"/><path fill="none" stroke="#DB6114" stroke-linecap="round" stroke-linejoin="round" stroke-miterlimit="10" stroke-opacity=".6" stroke-width="2" d="M580.7 533.32a30 30 0 0 0 20.73-28.531h-30Z" paint-order="fill stroke markers"/><text x="612" y="537" fill="#DB6114" dominant-baseline="alphabetic" font-family="geogebra-sans-serif, sans-serif" font-size="16" text-decoration="normal">θ</text><text x="612" y="537" fill="none" stroke="#FFF" stroke-linejoin="bevel" stroke-miterlimit="10" stroke-width="3" dominant-baseline="alphabetic" font-family="geogebra-sans-serif, sans-serif" font-size="16" text-decoration="normal">θ</text><text x="612" y="537" fill="#DB6114" dominant-baseline="alphabetic" font-family="geogebra-sans-serif, sans-serif" font-size="16" text-decoration="normal">θ</text><path fill="none" stroke="#1565C0" stroke-linecap="round" stroke-linejoin="round" stroke-miterlimit="10" stroke-opacity=".8" stroke-width="2.5" d="M911.726 504.789c0-237.729-198.062-430.445-442.385-430.445-244.323 0-442.386 192.716-442.386 430.445 0 237.728 198.063 430.444 442.386 430.444 244.323 0 442.385-192.716 442.385-430.444Z" paint-order="fill stroke markers"/><text x="318" y="119" fill="#1565C0" dominant-baseline="alphabetic" font-family="geogebra-sans-serif, sans-serif" font-size="16" text-decoration="normal">部署轨道</text><text x="318" y="119" fill="none" stroke="#FFF" stroke-linejoin="bevel" stroke-miterlimit="10" stroke-width="3" dominant-baseline="alphabetic" font-family="geogebra-sans-serif, sans-serif" font-size="16" text-decoration="normal">部署轨道</text><text x="318" y="119" fill="#1565C0" dominant-baseline="alphabetic" font-family="geogebra-sans-serif, sans-serif" font-size="16" text-decoration="normal">部署轨道</text><path fill="none" stroke="#6557D2" stroke-linecap="round" stroke-linejoin="round" stroke-miterlimit="10" stroke-opacity=".8" stroke-width="2.5" d="m571.43 504.789 105.157 323.64" paint-order="fill stroke markers"/><text x="722" y="521" fill="#1565C0" dominant-baseline="alphabetic" font-family="geogebra-sans-serif, sans-serif" font-size="16" text-decoration="normal">a</text><text x="722" y="521" fill="none" stroke="#FFF" stroke-linejoin="bevel" stroke-miterlimit="10" stroke-width="3" dominant-baseline="alphabetic" font-family="geogebra-sans-serif, sans-serif" font-size="16" text-decoration="normal">a</text><text x="722" y="521" fill="#1565C0" dominant-baseline="alphabetic" font-family="geogebra-sans-serif, sans-serif" font-size="16" text-decoration="normal">a</text><path fill="none" stroke="#1565C0" stroke-linecap="round" stroke-linejoin="round" stroke-miterlimit="10" stroke-opacity=".8" stroke-width="2.5" d="M469.34 504.789h442.386M911.726 504.789v-51.06" paint-order="fill stroke markers"/><path fill="#1565C0" fill-opacity=".8" fill-rule="evenodd" d="m911.726 436.73 4.25 17h-8.5Z" paint-order="stroke fill markers"/><text x="921" y="454" fill="#1565C0" dominant-baseline="alphabetic" font-family="geogebra-sans-serif, sans-serif" font-size="16" text-decoration="normal">v</text><text x="921" y="454" fill="none" stroke="#FFF" stroke-linejoin="bevel" stroke-miterlimit="10" stroke-width="3" dominant-baseline="alphabetic" font-family="geogebra-sans-serif, sans-serif" font-size="16" text-decoration="normal">v</text><text x="921" y="454" fill="#1565C0" dominant-baseline="alphabetic" font-family="geogebra-sans-serif, sans-serif" font-size="16" text-decoration="normal">v</text><text x="929" y="461" fill="#1565C0" dominant-baseline="alphabetic" font-family="geogebra-sans-serif, sans-serif" font-size="14" text-decoration="normal">a</text><text x="929" y="461" fill="none" stroke="#FFF" stroke-linejoin="bevel" stroke-miterlimit="10" stroke-width="3" dominant-baseline="alphabetic" font-family="geogebra-sans-serif, sans-serif" font-size="14" text-decoration="normal">a</text><text x="929" y="461" fill="#1565C0" dominant-baseline="alphabetic" font-family="geogebra-sans-serif, sans-serif" font-size="14" text-decoration="normal">a</text><path fill="#1565C0" d="M372.252 504.789a5 5 0 1 1-10 0 5 5 0 0 1 10 0Z" paint-order="stroke fill markers"/><path fill="none" stroke="#000" stroke-linecap="round" stroke-linejoin="round" stroke-miterlimit="10" d="M372.252 504.789a5 5 0 1 1-10 0 5 5 0 0 1 10 0Z" paint-order="fill stroke markers"/><text x="361" y="529" fill="#1565C0" dominant-baseline="alphabetic" font-family="geogebra-sans-serif, sans-serif" font-size="16" text-decoration="normal">O&apos;</text><text x="361" y="529" fill="none" stroke="#FFF" stroke-linejoin="bevel" stroke-miterlimit="10" stroke-width="3" dominant-baseline="alphabetic" font-family="geogebra-sans-serif, sans-serif" font-size="16" text-decoration="normal">O&apos;</text><text x="361" y="529" fill="#1565C0" dominant-baseline="alphabetic" font-family="geogebra-sans-serif, sans-serif" font-size="16" text-decoration="normal">O&apos;</text><path fill="#1565C0" d="M473.34 504.789a4 4 0 1 1-8 0 4 4 0 0 1 8 0Z" paint-order="stroke fill markers"/><path fill="none" stroke="#000" stroke-linecap="round" stroke-linejoin="round" stroke-miterlimit="10" d="M473.34 504.789a4 4 0 1 1-8 0 4 4 0 0 1 8 0Z" paint-order="fill stroke markers"/><text x="462" y="529" fill="#1565C0" dominant-baseline="alphabetic" font-family="geogebra-sans-serif, sans-serif" font-size="16" text-decoration="normal">M</text><text x="462" y="529" fill="none" stroke="#FFF" stroke-linejoin="bevel" stroke-miterlimit="10" stroke-width="3" dominant-baseline="alphabetic" font-family="geogebra-sans-serif, sans-serif" font-size="16" text-decoration="normal">M</text><text x="462" y="529" fill="#1565C0" dominant-baseline="alphabetic" font-family="geogebra-sans-serif, sans-serif" font-size="16" text-decoration="normal">M</text><path fill="none" stroke="#1565C0" stroke-linecap="round" stroke-linejoin="round" stroke-miterlimit="10" stroke-opacity=".8" stroke-width="2.5" d="m571.43 504.789 105.157-323.642" paint-order="fill stroke markers"/><path fill="#1565C0" d="M681.587 181.147a5 5 0 1 1-10 0 5 5 0 0 1 10 0Z" paint-order="stroke fill markers"/><path fill="none" stroke="#000" stroke-linecap="round" stroke-linejoin="round" stroke-miterlimit="10" d="M681.587 181.147a5 5 0 1 1-10 0 5 5 0 0 1 10 0Z" paint-order="fill stroke markers"/><text x="681" y="171" fill="#1565C0" dominant-baseline="alphabetic" font-family="geogebra-sans-serif, sans-serif" font-size="16" text-decoration="normal">A</text><text x="681" y="171" fill="none" stroke="#FFF" stroke-linejoin="bevel" stroke-miterlimit="10" stroke-width="3" dominant-baseline="alphabetic" font-family="geogebra-sans-serif, sans-serif" font-size="16" text-decoration="normal">A</text><text x="681" y="171" fill="#1565C0" dominant-baseline="alphabetic" font-family="geogebra-sans-serif, sans-serif" font-size="16" text-decoration="normal">A</text><text x="692" y="178" fill="#1565C0" dominant-baseline="alphabetic" font-family="geogebra-sans-serif, sans-serif" font-size="14" text-decoration="normal">+</text><text x="692" y="178" fill="none" stroke="#FFF" stroke-linejoin="bevel" stroke-miterlimit="10" stroke-width="3" dominant-baseline="alphabetic" font-family="geogebra-sans-serif, sans-serif" font-size="14" text-decoration="normal">+</text><text x="692" y="178" fill="#1565C0" dominant-baseline="alphabetic" font-family="geogebra-sans-serif, sans-serif" font-size="14" text-decoration="normal">+</text></g></svg>