<svg xmlns="http://www.w3.org/2000/svg" xmlns:xlink="http://www.w3.org/1999/xlink" width="21.301ex" height="41.414ex" aria-hidden="true" viewBox="0 -9402.5 9415 18305.1"><defs><path id="a" d="M21 287q1 3 2 8t5 22 10 31 15 33 20 30 26 22 33 9q29 0 51-12t31-22 11-20q2-6 3-6t8 7q48 52 111 52h3q48 0 72-41 8-19 8-37 0-30-13-48t-26-23-25-4q-20 0-32 11t-12 29q0 48 56 64-22 13-36 13-56 0-103-74-10-16-15-33t-34-133Q156 25 151 16q-13-27-43-27-13 0-21 6T76 7t-2 10q0 13 40 172t40 177q0 39-26 39-21 0-36-28t-24-61-11-36q-2-2-16-2H27q-6 6-6 9Z"/><path id="b" d="M40 437q-19 0-19 8 0 5 16 56t34 101l17 49q5 18 13 26h558q32 0 38-1t7-9q0-6-17-114t-19-109q0-7-19-7h-12q-3 0-6 5l-2 3q0 6 6 45t6 61q0 35-13 53t-55 25q-5 1-58 2-46 0-58-1t-18-8q-1-1-71-279T298 60q0-12 88-14 32 0 41-1t9-9q0-5-3-14-4-18-9-21l-2-1h-7q-5 0-52 1T228 2Q99 2 64 0H49q-6 6-6 9t2 18q4 13 10 19h39q80 0 95 9 1 1 2 1 5 3 10 20t40 157q17 68 28 111 70 275 70 281 0 5-29 5h-31q-67 0-88-6-45-10-70-41T67 467q-7-22-10-26t-14-4h-3Z"/><path id="c" d="M208 74q0-24 46-28 18 0 18-11 0-1-2-13-3-14-6-18t-13-4h-12q-10 0-34 1t-64 1Q70 2 50 0h-8q-7 7-7 11 2 27 13 35h14q70 3 102 50 6 6 181 305t178 303q7 12 24 12h25q6-9 6-10l28-323q28-323 30-326 5-11 65-11 25 0 25-10 0-2-3-14-3-15-5-18t-14-4h-14q-11 0-39 1t-73 1q-94 0-123-2h-12q-6 6-6 9t2 18q4 13 6 16l4 3h20q54 3 64 17l-12 150H283l-34-58q-41-69-41-81Zm308 186q0 11-12 156t-14 146l-27-43q-16-27-63-107l-90-152 103-1q103 0 103 1Z"/><path id="d" d="M231 637q-27 0-32 1t-5 11q0 27 11 33 1 1 130 1 259 0 273-2 63-10 105-45t43-92q0-64-58-115t-133-69l-10-3q64-9 105-46t42-92q0-73-72-141T453 1q-7-1-211-1Q42 0 39 2q-4 3-4 8 0 7 2 14 5 19 10 21 4 1 15 1h6q27 0 60 3 14 3 19 12 3 4 72 278t69 289q0 7-57 9Zm418-93q0 30-15 56t-49 34q-7 2-92 3h-42q-22 0-35-1h-13q-15-1-19-10-2-4-32-120 0-3-1-6l-31-126h81q81 0 93 2 60 10 107 58t48 110Zm-54-315q0 44-23 73t-60 34q-6 1-83 1-118 0-119-1 0-2-17-73t-35-141l-18-70q0-4 12-4t81-2q89 0 96 1 62 7 114 58t52 124Z"/><path id="e" d="M423 750q9 0 15-6t6-14q0-5-173-482T92-240q-7-10-17-10-7 0-13 5t-6 14q0 10 174 488t177 483q4 10 16 10Z"/><path id="f" d="M50 252q0 115 67 221t169 168 204 63q90 0 143-51 9-10 15-17t8-10l1-3q3 0 27 26 7 6 15 14t16 16 10 11l15 15h6q14 0 14-7 0-4-32-137-36-139-36-140-2-5-5-6t-18-2h-16q-6 6-6 9 0 1 1 7t2 20 1 32q0 71-32 124t-109 54q-26 0-56-7t-72-24-83-56-73-93q-32-57-51-133t-19-124q0-114 76-164 48-34 118-34 91 0 162 68t94 148q4 13 6 15t16 2q20 0 20-9 0-5-1-9-29-107-124-184T319-22q-113 0-191 75T50 252Z"/><path id="g" d="M173 380q0 25-19 25-24 0-50-29t-43-89q-1-1-2-3t-1-3-2-2-3-1-4 0-8 0H27q-6 6-6 9 0 7 8 29t24 52 44 51 63 22q42 0 65-24t24-56q0-17-3-26 0-6-15-44t-31-89-18-89q0-27 5-44 13-43 63-43 37 0 69 34t50 79 29 83 11 55q0 23-8 40t-18 26-18 18-8 22q0 22 19 41t41 19q19 0 34-18t16-58q0-27-12-83t-37-125-71-119-106-51q-64 0-102 33-37 32-37 95 0 31 8 64t41 117q22 64 22 82Z"/><path id="h" d="M56 347q0 13 14 20h637q15-8 15-20 0-11-14-19l-318-1H72q-16 5-16 20Zm0-194q0 15 16 20h636q14-10 14-20 0-13-15-20H70q-14 7-14 20Z"/><path id="i" d="m712 899 6-6v-28q0-11-14-19-77-53-127-136t-67-185q0-1-1-4-4-28-5-172V240q0-242-1-244-1-4-9-5t-50-1q-52 0-54 1-3 1-4 4-2 10-2 235v82q0 50-1 70 0 99 9 153t42 121q76 150 230 236l13 7h35Z"/><path id="j" d="m718-893-6-6h-35l-11 6q-124 68-198 179t-83 238q-1 10-1 194 0 285 1 287l4 4q3 1 55 1 42 0 50-1t9-5q1-2 1-243v-127q0-104 4-147t22-96q16-48 39-89t48-69 44-45 38-31 18-13 1-20v-17Z"/><path id="k" d="M389 1159q2 1 66 1 41 0 43-1 3-1 4-4 2-10 2-231 0-233-1-242-9-133-78-243T243 259l-14-9 14-9q106-66 178-175t82-248q1-9 1-242v-205q0-29-5-30h-1q-2-1-54-1t-54 1q-3 1-4 4-2 10-2 230v143q0 106-7 166T342 10q-17 44-41 82t-46 63-41 41-31 26-12 10q-1 1-1 18t1 18q0 1 20 16t49 47 60 76 54 117 29 155q1 12 1 246 0 227 1 230l4 4Z"/><path id="l" d="M384 150v116q0 38 5 43 2 1 66 1 41 0 43-1 4-1 5-11 1-15 1-148V12q0-20-5-21h-1q-2-1-54-1t-54 1q-4 1-5 11-1 15-1 148Z"/><path id="m" d="M109 429q-27 0-43 18t-16 44q0 71 53 123t132 52q91 0 152-56t62-145q0-43-20-82t-48-68-80-74q-36-31-100-92l-59-56 76-1q157 0 167 5 7 2 24 89v3h40v-3q-1-3-13-91T421 3V0H50v31q0 7 6 15t30 35q29 32 50 56 9 10 34 37t34 37 29 33 28 34 23 30 21 32 15 29 13 32 7 30 3 33q0 63-34 109t-97 46q-33 0-58-17t-35-33-10-19q0-1 5-1 18 0 37-14t19-46q0-25-16-42t-45-18Z"/><path id="n" d="M132-11q-34 0-34 33v11l13 28q75 158 109 273l8 24h-32q-38 0-54-3t-39-19q-11-7-22-18t-19-21-9-12q-2-1-15-1-19 0-19 10 0 6 19 35t55 62 71 38q7 2 225 2 160 0 164-1 20-7 20-28 0-31-32-42-6-2-69-2h-64l-3-17q-12-72-12-119 0-52 9-93t19-64 10-28q0-17-14-32t-36-15q-11 0-18 3t-16 24-16 60q-1 9-1 44 0 49 9 105t18 92 10 40h-98l-1-4q0-3-19-79t-43-161-31-97q-11-28-43-28Z"/><path id="o" d="M94 250q0 69 10 131t23 107 37 88 38 67 42 52 33 34 25 21h17q14 0 14-9 0-3-17-21t-41-53-49-86-42-138-17-193 17-192 41-139 49-86 42-53 17-21q0-9-15-9h-16l-28 24q-94 85-137 212T94 250Z"/><path id="p" d="m213 578-13-5q-14-5-40-10t-58-7H83v46h19q47 2 87 15t56 24 28 22q2 3 12 3 9 0 17-6V361l1-300q7-7 12-9t24-4 62-2h26V0h-11q-21 3-159 3-136 0-157-3H88v46h64q16 0 25 1t16 3 8 2 6 5 6 4v517Z"/><path id="q" d="M56 237v13l14 20h299v150l1 150q10 13 19 13 13 0 20-15V270h298q15-8 15-20t-15-20H409V-68q-8-14-18-14h-4q-12 0-18 14v298H70q-14 7-14 20Z"/><path id="r" d="m60 749 4 1h22l28-24q94-85 137-212t43-264q0-68-10-131T261 12t-37-88-38-67-41-51-32-33-23-19l-4-4H63q-3 0-5 3t-3 9q1 1 11 13Q221-64 221 250T66 725q-10 12-11 13 0 8 5 11Z"/><path id="s" d="M401 694q11 0 21-13V375l1-305 12 11q52 49 116 81 13 8 19 8 2 0 9-7v-13q0-12-2-15t-13-9q-23-12-46-27t-65-51-79-94-56-131q-5-17-13-17t-12 16-21 59-47 88Q158 70 46 126q-11 6-13 9t-2 15v13q7 7 9 7 6 0 19-8 63-31 117-81l12-11v305l1 306q10 13 19 13 11 0 20-14V352l1-327 9-13q41-54 67-114 39 79 68 115l9 12v653q5 14 19 16Z"/><path id="t" d="M84 237v13l14 20h581q15-8 15-20t-15-20H98q-14 7-14 20Z"/></defs><g fill="currentColor" stroke="currentColor" stroke-width="0" data-mml-node="math"><g data-mml-node="mtable"><g data-mml-node="mtr"><g data-mml-node="mtd"><g data-mml-node="mtable"><g data-mml-node="mtr"><g data-mml-node="mtd"><use xlink:href="#a" data-mml-node="mi" transform="matrix(1 0 0 -1 0 -8652.5)"/></g><g data-mml-node="mtd"><g data-mml-node="mo" font-family="serif" font-size="884"><text data-variant="normal" transform="translate(2171.4 -8652.5)">赤</text><text data-variant="normal" transform="translate(3055.4 -8652.5)">道</text><text data-variant="normal" transform="translate(3939.4 -8652.5)">半</text><text data-variant="normal" transform="translate(4823.4 -8652.5)">径</text></g></g></g><g data-mml-node="mtr"><g data-mml-node="mtd"><g data-mml-node="msub"><use xlink:href="#b" data-mml-node="mi" transform="matrix(1 0 0 -1 0 -7252.5)"/><use xlink:href="#c" data-mml-node="mi" transform="matrix(.707 0 0 -.707 584 -7099.8)"/></g></g><g data-mml-node="mtd"><g data-mml-node="mo" font-family="serif" font-size="884"><text data-variant="normal" transform="translate(2171.4 -7252.5)">公</text><text data-variant="normal" transform="translate(3055.4 -7252.5)">转</text><text data-variant="normal" transform="translate(3939.4 -7252.5)">周</text><text data-variant="normal" transform="translate(4823.4 -7252.5)">期</text></g></g></g><g data-mml-node="mtr"><g data-mml-node="mtd"><g data-mml-node="msub"><use xlink:href="#b" data-mml-node="mi" transform="matrix(1 0 0 -1 0 -5852.5)"/><use xlink:href="#d" data-mml-node="mi" transform="matrix(.707 0 0 -.707 584 -5702.5)"/></g></g><g data-mml-node="mtd"><g data-mml-node="mo" font-family="serif" font-size="884"><text data-variant="normal" transform="translate(2171.4 -5852.5)">自</text><text data-variant="normal" transform="translate(3055.4 -5852.5)">转</text><text data-variant="normal" transform="translate(3939.4 -5852.5)">周</text><text data-variant="normal" transform="translate(4823.4 -5852.5)">期</text></g><g data-mjx-texclass="ORD" data-mml-node="TeXAtom"><use xlink:href="#e" data-mml-node="mo" transform="matrix(1 0 0 -1 5985.2 -5852.5)"/></g><g data-mml-node="mo" font-family="serif" font-size="884"><text data-variant="normal" transform="translate(6763 -5852.5)">恒</text><text data-variant="normal" transform="translate(7647 -5852.5)">星</text><text data-variant="normal" transform="translate(8531 -5852.5)">日</text></g></g></g><g data-mml-node="mtr"><g data-mml-node="mtd"><g data-mml-node="msub"><use xlink:href="#b" data-mml-node="mi" transform="matrix(1 0 0 -1 0 -4452.5)"/><use xlink:href="#f" data-mml-node="mi" transform="matrix(.707 0 0 -.707 584 -4302.5)"/></g></g><g data-mml-node="mtd"><g data-mml-node="mo" font-family="serif" font-size="884"><text data-variant="normal" transform="translate(2171.4 -4452.5)">太</text><text data-variant="normal" transform="translate(3055.4 -4452.5)">阳</text><text data-variant="normal" transform="translate(3939.4 -4452.5)">日</text></g></g></g></g></g></g><g data-mml-node="mtr"><g data-mml-node="mtd"><g data-mml-node="mtable"><g data-mml-node="mtr"><g data-mml-node="mtd"><use xlink:href="#g" data-mml-node="mi" transform="matrix(1 0 0 -1 1126.4 -298.1)"/></g><g data-mml-node="mtd"><use xlink:href="#h" data-mml-node="mo" transform="matrix(1 0 0 -1 1889.2 -298.1)"/><g data-mml-node="mrow"><g data-mml-node="mo" transform="matrix(1 0 0 -1 2945 -298.1)"><use xlink:href="#i" transform="translate(0 1205.4)"/><use xlink:href="#j" transform="translate(0 -705.4)"/><use xlink:href="#k"/><svg width="889" height="235.4" y="1060" viewBox="0 41.5 889 235.4"><use xlink:href="#l" transform="scale(1 1.158)"/></svg><svg width="889" height="235.4" y="-795.4" viewBox="0 41.5 889 235.4"><use xlink:href="#l" transform="scale(1 1.158)"/></svg></g><g data-mml-node="mtable"><g data-mml-node="mtr"><g data-mml-node="mtd"><g data-mml-node="mfrac"><g data-mml-node="mrow"><use xlink:href="#m" data-mml-node="mn" transform="matrix(.707 0 0 -.707 5054 -1931.6)"/><use xlink:href="#n" data-mml-node="mi" transform="matrix(.707 0 0 -.707 5407.5 -1931.6)"/><use xlink:href="#a" data-mml-node="mi" transform="matrix(.707 0 0 -.707 5810.49 -1931.6)"/></g><g data-mml-node="msub"><use xlink:href="#b" data-mml-node="mi" transform="matrix(.707 0 0 -.707 5177.9 -1192.6)"/><use xlink:href="#d" data-mml-node="mi" transform="matrix(.49985 0 0 -.49985 5590.788 -1086.55)"/></g><path stroke="none" d="M4954-1757.6h1275.5v-60H4954z"/></g></g></g><g data-mml-node="mtr"><g data-mml-node="mtd"><g data-mml-node="mfrac"><g data-mml-node="mrow"><use xlink:href="#m" data-mml-node="mn" transform="matrix(.707 0 0 -.707 5054 79.1)"/><use xlink:href="#n" data-mml-node="mi" transform="matrix(.707 0 0 -.707 5407.5 79.1)"/><use xlink:href="#a" data-mml-node="mi" transform="matrix(.707 0 0 -.707 5810.49 79.1)"/><use xlink:href="#o" data-mml-node="mo" transform="matrix(.707 0 0 -.707 6129.347 79.1)"/><use xlink:href="#p" data-mml-node="mn" transform="matrix(.707 0 0 -.707 6404.37 79.1)"/><use xlink:href="#q" data-mml-node="mo" transform="matrix(.707 0 0 -.707 6757.87 79.1)"/><g data-mml-node="mfrac"><g data-mml-node="msub"><use xlink:href="#b" data-mml-node="mi" transform="matrix(.49985 0 0 -.49985 7463.456 -347.928)"/><use xlink:href="#f" data-mml-node="mi" transform="matrix(.49985 0 0 -.49985 7755.368 -172.281)"/></g><g data-mml-node="msub"><use xlink:href="#b" data-mml-node="mi" transform="matrix(.49985 0 0 -.49985 7465.93 323.015)"/><use xlink:href="#c" data-mml-node="mi" transform="matrix(.49985 0 0 -.49985 7757.842 504.16)"/></g><path stroke="none" d="M7392.756-76.44h838.29v-42.42h-838.29z"/></g><use xlink:href="#r" data-mml-node="mo" transform="matrix(.707 0 0 -.707 8315.886 79.1)"/></g><g data-mml-node="msub"><use xlink:href="#b" data-mml-node="mi" transform="matrix(.707 0 0 -.707 6408.6 1189.3)"/><use xlink:href="#f" data-mml-node="mi" transform="matrix(.49985 0 0 -.49985 6821.488 1295.35)"/></g><path stroke="none" d="M4954 624.3h3737.4v-60H4954z"/></g></g></g></g></g></g></g><g data-mml-node="mtr"><g data-mml-node="mtd"><use xlink:href="#s" data-mml-node="mo" transform="matrix(1 0 0 -1 1889.2 2356.3)"/></g></g><g data-mml-node="mtr"><g data-mml-node="mtd"><g data-mml-node="msub"><use xlink:href="#b" data-mml-node="mi" transform="matrix(1 0 0 -1 440.7 4259.3)"/><use xlink:href="#d" data-mml-node="mi" transform="matrix(.707 0 0 -.707 1024.7 4409.3)"/></g></g><g data-mml-node="mtd"><use xlink:href="#h" data-mml-node="mo" transform="matrix(1 0 0 -1 1889.2 4259.3)"/><g data-mml-node="msub"><use xlink:href="#b" data-mml-node="mi" transform="matrix(1 0 0 -1 2945 4259.3)"/><use xlink:href="#c" data-mml-node="mi" transform="matrix(.707 0 0 -.707 3529 4412)"/></g><g data-mml-node="mfrac"><g data-mml-node="msub"><use xlink:href="#b" data-mml-node="mi" transform="matrix(1 0 0 -1 5522.7 3583.3)"/><use xlink:href="#f" data-mml-node="mi" transform="matrix(.707 0 0 -.707 6106.7 3733.3)"/></g><g data-mml-node="mrow"><g data-mml-node="msub"><use xlink:href="#b" data-mml-node="mi" transform="matrix(1 0 0 -1 4329.3 4945.3)"/><use xlink:href="#c" data-mml-node="mi" transform="matrix(.707 0 0 -.707 4913.3 5098)"/></g><use xlink:href="#q" data-mml-node="mo" transform="matrix(1 0 0 -1 5715.9 4945.3)"/><g data-mml-node="msub"><use xlink:href="#b" data-mml-node="mi" transform="matrix(1 0 0 -1 6716.1 4945.3)"/><use xlink:href="#f" data-mml-node="mi" transform="matrix(.707 0 0 -.707 7300.1 5095.3)"/></g></g><path stroke="none" d="M4229.3 4039.3h3758.2v-60H4229.3z"/></g></g></g><g data-mml-node="mtr"><g data-mml-node="mtd"><g data-mml-node="mfrac"><g data-mml-node="msub"><use xlink:href="#b" data-mml-node="mi" transform="matrix(1 0 0 -1 220 7387.9)"/><use xlink:href="#f" data-mml-node="mi" transform="matrix(.707 0 0 -.707 804 7537.9)"/></g><g data-mml-node="msub"><use xlink:href="#b" data-mml-node="mi" transform="matrix(1 0 0 -1 223.5 8749.9)"/><use xlink:href="#c" data-mml-node="mi" transform="matrix(.707 0 0 -.707 807.5 8902.6)"/></g><path stroke="none" d="M120 7843.9h1371.4v-60H120z"/></g></g><g data-mml-node="mtd"><use xlink:href="#h" data-mml-node="mo" transform="matrix(1 0 0 -1 1889.2 8063.9)"/><g data-mml-node="mfrac"><g data-mml-node="mrow"><g data-mml-node="msub"><use xlink:href="#b" data-mml-node="mi" transform="matrix(1 0 0 -1 3165 7387.9)"/><use xlink:href="#f" data-mml-node="mi" transform="matrix(.707 0 0 -.707 3749 7537.9)"/></g><use xlink:href="#t" data-mml-node="mo" transform="matrix(1 0 0 -1 4558.6 7387.9)"/><g data-mml-node="msub"><use xlink:href="#b" data-mml-node="mi" transform="matrix(1 0 0 -1 5558.8 7387.9)"/><use xlink:href="#d" data-mml-node="mi" transform="matrix(.707 0 0 -.707 6142.8 7537.9)"/></g></g><g data-mml-node="msub"><use xlink:href="#b" data-mml-node="mi" transform="matrix(1 0 0 -1 4361.9 8749.9)"/><use xlink:href="#d" data-mml-node="mi" transform="matrix(.707 0 0 -.707 4945.9 8899.9)"/></g><path stroke="none" d="M3065 7843.9h3764.5v-60H3065z"/></g></g></g></g></g></g></g></g></svg>