<svg xmlns="http://www.w3.org/2000/svg" width="1005" height="1020"><defs><clipPath id="a"><path fill="none" d="M0 0h1005v1020H0V0Z"/></clipPath></defs><g clip-path="url(#a)"><path fill="#FFF" d="M0 0h1005v1020H0z"/><path fill="none" stroke="#F93" stroke-linecap="round" stroke-linejoin="round" stroke-miterlimit="10" stroke-opacity=".698" stroke-width="2.5" d="M798.237 748.732c0 316.783-256.803 573.586-573.585 573.586-316.783 0-573.586-256.803-573.586-573.586 0-316.782 256.803-573.585 573.586-573.585 316.782 0 573.585 256.803 573.585 573.585Z" paint-order="fill stroke markers"/><text x="7" y="241" fill="#F93" dominant-baseline="alphabetic" font-family="geogebra-sans-serif, sans-serif" font-size="16" text-decoration="normal">地球轨道</text><text x="7" y="241" fill="none" stroke="#FFF" stroke-linejoin="bevel" stroke-miterlimit="10" stroke-width="3" dominant-baseline="alphabetic" font-family="geogebra-sans-serif, sans-serif" font-size="16" text-decoration="normal">地球轨道</text><text x="7" y="241" fill="#F93" dominant-baseline="alphabetic" font-family="geogebra-sans-serif, sans-serif" font-size="16" text-decoration="normal">地球轨道</text><path fill="none" stroke="#390" stroke-linecap="round" stroke-linejoin="round" stroke-miterlimit="10" stroke-opacity=".698" stroke-width="2.5" d="M855.596 748.732c0 31.679-25.68 57.359-57.359 57.359-31.678 0-57.358-25.68-57.358-57.359 0-31.678 25.68-57.358 57.358-57.358 31.678 0 57.359 25.68 57.359 57.358ZM729.087 389.396c0 31.678-25.68 57.359-57.358 57.359-31.679 0-57.359-25.68-57.359-57.359 0-31.678 25.68-57.358 57.359-57.358 31.678 0 57.358 25.68 57.358 57.358ZM798.066 498.359c0 31.678-25.68 57.359-57.359 57.359-31.678 0-57.358-25.68-57.358-57.359 0-31.678 25.68-57.359 57.358-57.359 31.679 0 57.359 25.68 57.359 57.359Z" paint-order="fill stroke markers"/><path fill="none" stroke="#666" stroke-linecap="round" stroke-linejoin="round" stroke-miterlimit="10" stroke-opacity=".298" stroke-width="2.5" d="M-5 389.396h1015" paint-order="fill stroke markers"/><text x="8" y="405" fill="#666" dominant-baseline="alphabetic" font-family="geogebra-sans-serif, sans-serif" font-size="16" text-decoration="normal">遥远恒星</text><text x="8" y="405" fill="none" stroke="#FFF" stroke-linejoin="bevel" stroke-miterlimit="10" stroke-width="3" dominant-baseline="alphabetic" font-family="geogebra-sans-serif, sans-serif" font-size="16" text-decoration="normal">遥远恒星</text><text x="8" y="405" fill="#666" dominant-baseline="alphabetic" font-family="geogebra-sans-serif, sans-serif" font-size="16" text-decoration="normal">遥远恒星</text><path fill="none" stroke="#666" stroke-linecap="round" stroke-linejoin="round" stroke-miterlimit="10" stroke-opacity=".298" stroke-width="2.5" d="M-5 748.732h1015" paint-order="fill stroke markers"/><text x="8" y="740" fill="#666" dominant-baseline="alphabetic" font-family="geogebra-sans-serif, sans-serif" font-size="16" text-decoration="normal">遥远恒星</text><text x="8" y="740" fill="none" stroke="#FFF" stroke-linejoin="bevel" stroke-miterlimit="10" stroke-width="3" dominant-baseline="alphabetic" font-family="geogebra-sans-serif, sans-serif" font-size="16" text-decoration="normal">遥远恒星</text><text x="8" y="740" fill="#666" dominant-baseline="alphabetic" font-family="geogebra-sans-serif, sans-serif" font-size="16" text-decoration="normal">遥远恒星</text><path fill="none" stroke="#666" stroke-linecap="round" stroke-linejoin="round" stroke-miterlimit="10" stroke-opacity=".298" stroke-width="2.5" d="M-5 498.359h1015M671.729 389.396 224.652 748.732" paint-order="fill stroke markers"/><path fill="#F93" d="M228.652 748.732a4 4 0 1 1-8 0 4 4 0 0 1 8 0Z" paint-order="stroke fill markers"/><path fill="none" stroke="#000" stroke-linecap="round" stroke-linejoin="round" stroke-miterlimit="10" d="M228.652 748.732a4 4 0 1 1-8 0 4 4 0 0 1 8 0Z" paint-order="fill stroke markers"/><text x="222" y="736" fill="#F93" dominant-baseline="alphabetic" font-family="geogebra-sans-serif, sans-serif" font-size="16" text-decoration="normal">O</text><text x="222" y="736" fill="none" stroke="#FFF" stroke-linejoin="bevel" stroke-miterlimit="10" stroke-width="3" dominant-baseline="alphabetic" font-family="geogebra-sans-serif, sans-serif" font-size="16" text-decoration="normal">O</text><text x="222" y="736" fill="#F93" dominant-baseline="alphabetic" font-family="geogebra-sans-serif, sans-serif" font-size="16" text-decoration="normal">O</text><path fill="#390" d="M802.237 748.732a4 4 0 1 1-8 0 4 4 0 0 1 8 0Z" paint-order="stroke fill markers"/><path fill="none" stroke="#000" stroke-linecap="round" stroke-linejoin="round" stroke-miterlimit="10" d="M802.237 748.732a4 4 0 1 1-8 0 4 4 0 0 1 8 0Z" paint-order="fill stroke markers"/><text x="807" y="754" fill="#390" dominant-baseline="alphabetic" font-family="geogebra-sans-serif, sans-serif" font-size="16" text-decoration="normal">A</text><text x="807" y="754" fill="none" stroke="#FFF" stroke-linejoin="bevel" stroke-miterlimit="10" stroke-width="3" dominant-baseline="alphabetic" font-family="geogebra-sans-serif, sans-serif" font-size="16" text-decoration="normal">A</text><text x="807" y="754" fill="#390" dominant-baseline="alphabetic" font-family="geogebra-sans-serif, sans-serif" font-size="16" text-decoration="normal">A</text><path fill="#390" d="M676.729 389.396a5 5 0 1 1-10 0 5 5 0 0 1 10 0Z" paint-order="stroke fill markers"/><path fill="none" stroke="#000" stroke-linecap="round" stroke-linejoin="round" stroke-miterlimit="10" d="M676.729 389.396a5 5 0 1 1-10 0 5 5 0 0 1 10 0Z" paint-order="fill stroke markers"/><text x="682" y="394" fill="#390" dominant-baseline="alphabetic" font-family="geogebra-sans-serif, sans-serif" font-size="16" text-decoration="normal">C</text><text x="682" y="394" fill="none" stroke="#FFF" stroke-linejoin="bevel" stroke-miterlimit="10" stroke-width="3" dominant-baseline="alphabetic" font-family="geogebra-sans-serif, sans-serif" font-size="16" text-decoration="normal">C</text><text x="682" y="394" fill="#390" dominant-baseline="alphabetic" font-family="geogebra-sans-serif, sans-serif" font-size="16" text-decoration="normal">C</text><path fill="#F90" d="M744.879 748.732a4 4 0 1 1-8 0 4 4 0 0 1 8 0Z" paint-order="stroke fill markers"/><path fill="none" stroke="#000" stroke-linecap="round" stroke-linejoin="round" stroke-miterlimit="10" d="M744.879 748.732a4 4 0 1 1-8 0 4 4 0 0 1 8 0Z" paint-order="fill stroke markers"/><text x="707" y="748" fill="#F90" dominant-baseline="alphabetic" font-family="geogebra-sans-serif, sans-serif" font-size="16" text-decoration="normal">P</text><text x="707" y="748" fill="none" stroke="#FFF" stroke-linejoin="bevel" stroke-miterlimit="10" stroke-width="3" dominant-baseline="alphabetic" font-family="geogebra-sans-serif, sans-serif" font-size="16" text-decoration="normal">P</text><text x="707" y="748" fill="#F90" dominant-baseline="alphabetic" font-family="geogebra-sans-serif, sans-serif" font-size="16" text-decoration="normal">P</text><text x="717" y="755" fill="#F90" dominant-baseline="alphabetic" font-family="geogebra-sans-serif, sans-serif" font-size="14" text-decoration="normal">A</text><text x="717" y="755" fill="none" stroke="#FFF" stroke-linejoin="bevel" stroke-miterlimit="10" stroke-width="3" dominant-baseline="alphabetic" font-family="geogebra-sans-serif, sans-serif" font-size="14" text-decoration="normal">A</text><text x="717" y="755" fill="#F90" dominant-baseline="alphabetic" font-family="geogebra-sans-serif, sans-serif" font-size="14" text-decoration="normal">A</text><path fill="#F90" d="M631.02 425.33a4 4 0 1 1-8 0 4 4 0 0 1 8 0Z" paint-order="stroke fill markers"/><path fill="none" stroke="#000" stroke-linecap="round" stroke-linejoin="round" stroke-miterlimit="10" d="M631.02 425.33a4 4 0 1 1-8 0 4 4 0 0 1 8 0Z" paint-order="fill stroke markers"/><text x="595" y="425" fill="#F90" dominant-baseline="alphabetic" font-family="geogebra-sans-serif, sans-serif" font-size="16" text-decoration="normal">P</text><text x="595" y="425" fill="none" stroke="#FFF" stroke-linejoin="bevel" stroke-miterlimit="10" stroke-width="3" dominant-baseline="alphabetic" font-family="geogebra-sans-serif, sans-serif" font-size="16" text-decoration="normal">P</text><text x="595" y="425" fill="#F90" dominant-baseline="alphabetic" font-family="geogebra-sans-serif, sans-serif" font-size="16" text-decoration="normal">P</text><text x="605" y="432" fill="#F90" dominant-baseline="alphabetic" font-family="geogebra-sans-serif, sans-serif" font-size="14" text-decoration="normal">C</text><text x="605" y="432" fill="none" stroke="#FFF" stroke-linejoin="bevel" stroke-miterlimit="10" stroke-width="3" dominant-baseline="alphabetic" font-family="geogebra-sans-serif, sans-serif" font-size="14" text-decoration="normal">C</text><text x="605" y="432" fill="#F90" dominant-baseline="alphabetic" font-family="geogebra-sans-serif, sans-serif" font-size="14" text-decoration="normal">C</text><path fill="#390" d="M745.707 498.359a5 5 0 1 1-10 0 5 5 0 0 1 10 0Z" paint-order="stroke fill markers"/><path fill="none" stroke="#000" stroke-linecap="round" stroke-linejoin="round" stroke-miterlimit="10" d="M745.707 498.359a5 5 0 1 1-10 0 5 5 0 0 1 10 0Z" paint-order="fill stroke markers"/><text x="751" y="503" fill="#390" dominant-baseline="alphabetic" font-family="geogebra-sans-serif, sans-serif" font-size="16" text-decoration="normal">B</text><text x="751" y="503" fill="none" stroke="#FFF" stroke-linejoin="bevel" stroke-miterlimit="10" stroke-width="3" dominant-baseline="alphabetic" font-family="geogebra-sans-serif, sans-serif" font-size="16" text-decoration="normal">B</text><text x="751" y="503" fill="#390" dominant-baseline="alphabetic" font-family="geogebra-sans-serif, sans-serif" font-size="16" text-decoration="normal">B</text><path fill="#F93" d="M687.349 498.359a4 4 0 1 1-8 0 4 4 0 0 1 8 0Z" paint-order="stroke fill markers"/><path fill="none" stroke="#000" stroke-linecap="round" stroke-linejoin="round" stroke-miterlimit="10" d="M687.349 498.359a4 4 0 1 1-8 0 4 4 0 0 1 8 0Z" paint-order="fill stroke markers"/><text x="654" y="502" fill="#F93" dominant-baseline="alphabetic" font-family="geogebra-sans-serif, sans-serif" font-size="16" text-decoration="normal">P</text><text x="654" y="502" fill="none" stroke="#FFF" stroke-linejoin="bevel" stroke-miterlimit="10" stroke-width="3" dominant-baseline="alphabetic" font-family="geogebra-sans-serif, sans-serif" font-size="16" text-decoration="normal">P</text><text x="654" y="502" fill="#F93" dominant-baseline="alphabetic" font-family="geogebra-sans-serif, sans-serif" font-size="16" text-decoration="normal">P</text><text x="664" y="509" fill="#F93" dominant-baseline="alphabetic" font-family="geogebra-sans-serif, sans-serif" font-size="14" text-decoration="normal">B</text><text x="664" y="509" fill="none" stroke="#FFF" stroke-linejoin="bevel" stroke-miterlimit="10" stroke-width="3" dominant-baseline="alphabetic" font-family="geogebra-sans-serif, sans-serif" font-size="14" text-decoration="normal">B</text><text x="664" y="509" fill="#F93" dominant-baseline="alphabetic" font-family="geogebra-sans-serif, sans-serif" font-size="14" text-decoration="normal">B</text></g></svg>